{
.appVersion = "1354";
classes = (
{
automatic = 1;
code = "A B C D E F G H I J K L M N O P Q R S U T V W X Y Z a a_hook a_macr a_n a_r b b_e b_o b_r b_s c c_hook c_macr c_a c_c c_e c_i c_h c_k c_o c_o_macr c_t c_t_i c_u c_u_macr d d_strok d_e d_e_hook d_e_macr d_o e e_hook e_macr e_etfin f f_a f_e f_f f_i f_l f_o f_r f_u g g_hook g_macr g_e g_e_macr g_i g_o g_u h h_e h_e_macr h_o i dotlessi i_macr i_n i_u i_j j k l l_hook l_i l_u m m_macr n n_macr n_i o o_macr o_e o_r p p_bardes p_hook p_macr p_e p_e_macr p_o p_o_macr p_p p_p_flour p_r q q_etfin q_etfin_macr q_etfin_ra q_hook q_macr q_ra q_strok r r.ss01 r_macr r_a r_a_macr r_e r_o s s.ss01 longs longs_strok longs_c_h longs_i longs_longs longs_t longs_t_i longs_t_u t t_acute t_urrot t_a t_e t_e_macr t_i t_o t_t t_u t_u_macr u u_hook u_macr u_ring u_i v v_hook v_longhook v_e v_o w x y y_dieresis z con rum us";
name = AllLetters;
}
);
copyright = "Copyright (c) 2019 ANRT. All rights reserved.";
customParameters = (
{
name = glyphOrder;
value = (
.notdef,
emspace,
enspace,
threeperemspace,
fourperemspace,
space,
thinspace,
hairspace,
A,
B,
C,
D,
E,
F,
G,
H,
I,
J,
K,
L,
M,
N,
O,
P,
Q,
R,
S,
U,
T,
V,
W,
X,
Y,
Z,
a,
a_hook,
a_macr,
a_n,
a_r,
b,
b_com,
b_e,
b_o,
b_r,
b_s,
c,
c_hook,
c_macr,
c_a,
c_c,
c_e,
ce_e_macr,
c_i,
c_h,
c_k,
c_o,
c_o_macr,
c_t,
c_t_i,
c_u,
c_u_macr,
d,
d_strok,
d_hook,
d_e,
d_e_hook,
d_e_macr,
d_o,
e,
e_hook,
e_macr,
e_i,
e_etfin,
f,
f_a,
f_e,
f_f,
f_i,
f_l,
f_o,
f_r,
f_u,
g,
g_hook,
g_macr,
g_a,
g_e,
g_e_macr,
g_i,
g_o,
g_r,
g_u,
h,
h_e,
h_e_macr,
h_o,
i,
dotlessi,
i_macr,
i_n,
i_u,
i_j,
j,
k,
l,
l_hook,
l_i,
l_u,
m,
m_macr,
n,
n_macr,
n_i,
o,
o_macr,
o_e,
o_r,
p,
p_bardes,
p_flour,
p_hook,
p_macr,
p_e,
p_e_macr,
p_o,
p_o_macr,
p_p,
p_p_flour,
p_p_macr,
p_r,
q,
q_etfin,
q_etfin_macr,
q_etfin_ra,
q_hook,
q_macr,
q_ra,
q_strok,
r,
r.ss01,
r_macr,
r_a,
r_a_macr,
r_e,
r_o,
r_i,
s,
s.ss01,
longs,
longs_strok,
longs_c_h,
longs_i,
longs_p,
longs_longs,
longs_t,
longs_t_i,
longs_t_u,
t,
t_acute,
t_macr,

glyphs = (
{
color = 3;
glyphname = A;
lastChange = "2020-02-10 15:33:58 +0000";
layers = (
{
layerId = "E35B076F-D533-4C92-BAB9-D65BCB0F4FA2";
paths = (
{
closed = 1;
nodes = (
"413 -10 LINE",
"440 81 OFFCURVE",
"484 163 OFFCURVE",
"539 244 CURVE",
"575 136 OFFCURVE",
"597 59 OFFCURVE",
"605 0 CURVE",
"774 0 LINE",
"774 30 LINE",
"730 73 OFFCURVE",
"670 203 OFFCURVE",
"612 345 CURVE",
"613 346 OFFCURVE",
"615 348 OFFCURVE",
"616 350 CURVE",
"646 389 OFFCURVE",
"650 398 OFFCURVE",
"700 375 CURVE",
"748 414 LINE",
"718 428 OFFCURVE",
"692 440 OFFCURVE",
"655 449 CURVE",
"640 432 OFFCURVE",
"619 409 OFFCURVE",
"596 382 CURVE",
"566 457 OFFCURVE",
"536 532 OFFCURVE",
"509 598 CURVE",
"578 595 OFFCURVE",
"634 594 OFFCURVE",
"656 596 CURVE",
"743 689 LINE",
"721 703 LINE",
"685 681 OFFCURVE",
"466 683 OFFCURVE",
"128 690 CURVE",
"98 660 OFFCURVE",
"68 620 OFFCURVE",
"18 563 CURVE",
"55 554 LINE",
"87 596 OFFCURVE",
"104 609 OFFCURVE",
"146 609 CURVE SMOOTH",
"184 609 OFFCURVE",
"235 608 OFFCURVE",
"290 606 CURVE",
"255 530 OFFCURVE",
"221 451 OFFCURVE",
"188 377 CURVE",
"169 398 OFFCURVE",
"152 415 OFFCURVE",
"138 430 CURVE",
"114 430 OFFCURVE",
"57 428 OFFCURVE",
"46 425 CURVE",
"62 363 LINE",
"133 380 OFFCURVE",
"140 375 OFFCURVE",
"171 338 CURVE",
"112 204 OFFCURVE",
"58 88 OFFCURVE",
"10 24 CURVE",
"13 -5 LINE",
"72 -1 OFFCURVE",
"198 1 OFFCURVE",
"261 -4 CURVE",
"261 28 LINE",
"165 46 LINE",
"241 249 LINE",
"317 150 OFFCURVE",
"355 79 OFFCURVE",
"384 -10 CURVE"
);
},
{
closed = 1;
nodes = (
"359 183 OFFCURVE",
"308 246 OFFCURVE",
"260 300 CURVE",
"374 603 LINE",
"387 602 OFFCURVE",
"401 602 OFFCURVE",
"415 601 CURVE",
"459 478 OFFCURVE",
"495 377 OFFCURVE",
"523 293 CURVE",
"481 239 OFFCURVE",
"438 178 OFFCURVE",
"401 116 CURVE"
);
}
);
width = 784;
}
);
note = A;
unicode = 0041;
},
{
color = 3;
glyphname = B;
lastChange = "2020-01-30 13:06:28 +0000";
layers = (
{
layerId = "E35B076F-D533-4C92-BAB9-D65BCB0F4FA2";
paths = (
{
closed = 1;
nodes = (
"328 25 OFFCURVE",
"351 34 OFFCURVE",
"397 34 CURVE SMOOTH",
"455 34 OFFCURVE",
"573 -10 OFFCURVE",
"593 -10 CURVE",
"674 20 OFFCURVE",
"841 79 OFFCURVE",
"841 224 CURVE SMOOTH",
"841 327 OFFCURVE",
"765 394 OFFCURVE",
"609 421 CURVE",
"720 477 OFFCURVE",
"783 534 OFFCURVE",
"783 599 CURVE SMOOTH",
"783 693 OFFCURVE",
"695 714 OFFCURVE",
"613 714 CURVE SMOOTH",
"457 714 OFFCURVE",
"334 576 OFFCURVE",
"238 576 CURVE SMOOTH",
"220 576 OFFCURVE",
"195 593 OFFCURVE",
"203 635 CURVE",
"179 657 OFFCURVE",
"114 646 OFFCURVE",
"82 619 CURVE SMOOTH",
"10 557 LINE",
"31 536 LINE",
"51 555 OFFCURVE",
"70 563 OFFCURVE",
"87 563 CURVE",
"121 551 OFFCURVE",
"152 515 OFFCURVE",
"202 515 CURVE SMOOTH",
"229 515 OFFCURVE",
"265 532 OFFCURVE",
"307 554 CURVE",
"313 506 OFFCURVE",
"319 454 OFFCURVE",
"323 403 CURVE",
"315 359 OFFCURVE",
"298 341 OFFCURVE",
"272 325 CURVE",
"272 315 LINE",
"286 315 OFFCURVE",
"314 293 OFFCURVE",
"327 263 CURVE",
"324 149 OFFCURVE",
"301 53 OFFCURVE",
"232 18 CURVE",
"251 -10 LINE"
);
},
{
closed = 1;
nodes = (
"512 643 LINE",
"530 647 OFFCURVE",
"548 649 OFFCURVE",
"565 649 CURVE SMOOTH",
"625 649 OFFCURVE",
"668 623 OFFCURVE",
"668 574 CURVE SMOOTH",
"668 495 OFFCURVE",
"598 442 OFFCURVE",
"512 423 CURVE"
);
},
{
closed = 1;
nodes = (
"421 470 OFFCURVE",
"415 532 OFFCURVE",
"408 605 CURVE",
"430 616 OFFCURVE",
"453 625 OFFCURVE",
"476 633 CURVE",
"476 417 LINE",
"458 415 OFFCURVE",
"440 414 OFFCURVE",
"423 415 CURVE"
);
},
{
closed = 1;
nodes = (
"607 92 OFFCURVE",
"560 107 OFFCURVE",
"513 117 CURVE",
"512 384 LINE",
"636 379 OFFCURVE",
"730 316 OFFCURVE",
"730 228 CURVE SMOOTH",
"730 154 OFFCURVE",
"694 105 OFFCURVE",
"620 92 CURVE"
);
},
{
closed = 1;
nodes = (
"402 165 OFFCURVE",
"424 250 OFFCURVE",
"423 377 CURVE",
"441 380 OFFCURVE",
"459 382 OFFCURVE",
"476 383 CURVE",
"476 124 LINE",
"465 126 OFFCURVE",
"454 127 OFFCURVE",
"444 127 CURVE SMOOTH",
"398 127 OFFCURVE",
"366 96 OFFCURVE",
"335 77 CURVE"
);
}
);
width = 876;
}
);
note = B;
unicode = 0042;
},
{
color = 3;
glyphname = C;
lastChange = "2020-02-10 15:34:10 +0000";
layers = (
{
layerId = "E35B076F-D533-4C92-BAB9-D65BCB0F4FA2";
paths = (
{
closed = 1;
nodes = (
"564 15 OFFCURVE",
"663 60 OFFCURVE",
"727 108 CURVE",
"710 138 LINE",
"643 114 OFFCURVE",
"596 92 OFFCURVE",
"509 92 CURVE SMOOTH",
"490 92 OFFCURVE",
"471 93 OFFCURVE",
"453 96 CURVE",
"453 620 LINE",
"540 614 OFFCURVE",
"596 586 OFFCURVE",
"676 546 CURVE",
"723 713 LINE",
"688 724 LINE",
"671 683 LINE",
"613 690 OFFCURVE",
"470 717 OFFCURVE",
"415 713 CURVE",
"314 682 OFFCURVE",
"211 600 OFFCURVE",
"167 558 CURVE",
"131 517 OFFCURVE",
"98 440 OFFCURVE",
"91 377 CURVE",
"20 365 LINE",
"20 314 LINE",
"93 302 LINE",
"112 126 OFFCURVE",
"235 -6 OFFCURVE",
"514 -15 CURVE"
);
},
{
closed = 1;
nodes = (
"278 134 OFFCURVE",
"186 236 OFFCURVE",
"186 366 CURVE SMOOTH",
"186 514 OFFCURVE",
"285 621 OFFCURVE",
"417 621 CURVE",
"415 102 LINE"
);
}
);
width = 767;
}
);
note = C;
unicode = 0043;
},
{
color = 3;
glyphname = D;
lastChange = "2020-02-10 15:34:44 +0000";
layers = (
{
layerId = "E35B076F-D533-4C92-BAB9-D65BCB0F4FA2";
paths = (
{
closed = 1;
nodes = (
"645 50 OFFCURVE",
"871 183 OFFCURVE",
"871 365 CURVE SMOOTH",
"871 607 OFFCURVE",
"651 701 OFFCURVE",
"417 701 CURVE SMOOTH",
"306 701 OFFCURVE",
"220 686 OFFCURVE",
"76 715 CURVE",
"69 715 LINE",
"30 640 LINE",
"30 635 LINE",
"116 603 OFFCURVE",
"203 602 OFFCURVE",
"287 601 CURVE",
"243 548 OFFCURVE",
"170 473 OFFCURVE",
"117 413 CURVE",
"115 402 OFFCURVE",
"113 392 OFFCURVE",
"112 382 CURVE",
"39 382 LINE",
"39 291 LINE",
"110 291 LINE",
"131 82 OFFCURVE",
"337 -21 OFFCURVE",
"585 -6 CURVE"
);
},
{
closed = 1;
nodes = (
"297 137 OFFCURVE",
"218 216 OFFCURVE",
"218 354 CURVE SMOOTH",
"218 456 OFFCURVE",
"292 533 OFFCURVE",
"359 604 CURVE",
"381 605 OFFCURVE",
"402 605 OFFCURVE",
"423 604 CURVE",
"430 112 LINE"
);
},
{
closed = 1;
nodes = (
"511 103 OFFCURVE",
"490 104 OFFCURVE",
"469 106 CURVE",
"461 601 LINE",
"640 581 OFFCURVE",
"761 479 OFFCURVE",
"761 346 CURVE SMOOTH",
"761 196 OFFCURVE",
"673 103 OFFCURVE",
"533 103 CURVE SMOOTH"
);
}
);
width = 911;
}
);
note = D;
unicode = 0044;
},
{
color = 3;
glyphname = E;
lastChange = "2020-02-10 15:34:39 +0000";
layers = (
{
layerId = "E35B076F-D533-4C92-BAB9-D65BCB0F4FA2";
paths = (
{
closed = 1;
nodes = (
"515 -10 OFFCURVE",
"630 80 OFFCURVE",
"700 136 CURVE",
"680 168 LINE",
"588 106 OFFCURVE",
"505 90 OFFCURVE",
"459 90 CURVE SMOOTH",
"443 90 OFFCURVE",
"428 91 OFFCURVE",
"413 92 CURVE",
"417 326 LINE",
"535 324 OFFCURVE",
"642 318 OFFCURVE",
"683 310 CURVE",
"698 407 LINE",
"419 407 LINE",
"423 630 LINE",
"504 626 OFFCURVE",
"566 591 OFFCURVE",
"623 548 CURVE",
"700 649 LINE",
"700 654 LINE",
"650 670 OFFCURVE",
"546 715 OFFCURVE",
"415 715 CURVE SMOOTH",
"365 715 OFFCURVE",
"156 583 OFFCURVE",
"140 558 CURVE SMOOTH",
"114 516 OFFCURVE",
"87 466 OFFCURVE",
"74 406 CURVE",
"30 406 LINE",
"30 326 LINE",
"39 327 OFFCURVE",
"51 327 OFFCURVE",
"66 328 CURVE",
"68 110 OFFCURVE",
"223 -10 OFFCURVE",
"476 -10 CURVE SMOOTH"
);
},
{
closed = 1;
nodes = (
"201 546 OFFCURVE",
"278 621 OFFCURVE",
"388 629 CURVE",
"384 407 LINE",
"182 406 LINE"
);
},
{
closed = 1;
nodes = (
"263 120 OFFCURVE",
"181 194 OFFCURVE",
"178 329 CURVE",
"240 329 OFFCURVE",
"312 329 OFFCURVE",
"382 327 CURVE",
"378 97 LINE"
);
}
);
width = 740;
}
);
note = E;
unicode = 0045;
},
{
color = 3;
glyphname = F;
lastChange = "2020-01-30 13:06:28 +0000";
layers = (
{
layerId = "E35B076F-D533-4C92-BAB9-D65BCB0F4FA2";
paths = (
{
closed = 1;
nodes = (
"336 -168 OFFCURVE",
"438 -89 OFFCURVE",
"438 110 CURVE SMOOTH",
"438 184 OFFCURVE",
"432 262 OFFCURVE",
"426 340 CURVE",
"478 341 OFFCURVE",
"559 335 OFFCURVE",
"600 332 CURVE",
"661 418 LINE",
"651 436 LINE",
"575 425 OFFCURVE",
"501 419 OFFCURVE",
"419 416 CURVE",
"413 488 OFFCURVE",
"408 560 OFFCURVE",
"409 629 CURVE",
"465 627 OFFCURVE",
"546 619 OFFCURVE",
"603 602 CURVE",
"680 685 LINE",
"673 705 LINE",
"465 700 LINE",
"412 696 OFFCURVE",
"307 660 OFFCURVE",
"283 639 CURVE",
"285 616 OFFCURVE",
"288 592 OFFCURVE",
"290 568 CURVE",
"188 554 OFFCURVE",
"111 536 OFFCURVE",
"58 473 CURVE",
"108 382 OFFCURVE",
"137 350 OFFCURVE",
"137 290 CURVE SMOOTH",
"137 243 OFFCURVE",
"118 196 OFFCURVE",
"50 148 CURVE",
"56 134 LINE",
"101 134 OFFCURVE",
"156 85 OFFCURVE",
"189 0 CURVE",
"200 0 LINE",
"219 59 OFFCURVE",
"266 99 OFFCURVE",
"312 133 CURVE",
"313 94 OFFCURVE",
"313 56 OFFCURVE",
"313 18 CURVE SMOOTH",
"313 -109 OFFCURVE",
"228 -173 OFFCURVE",
"89 -224 CURVE",
"128 -265 LINE"
);
},
{
closed = 1;
nodes = (
"211 160 OFFCURVE",
"183 176 OFFCURVE",
"147 194 CURVE",
"184 242 OFFCURVE",
"227 305 OFFCURVE",
"227 350 CURVE SMOOTH",
"227 414 OFFCURVE",
"200 439 OFFCURVE",
"170 486 CURVE",
"201 516 OFFCURVE",
"243 523 OFFCURVE",
"294 520 CURVE",
"303 404 OFFCURVE",
"308 285 OFFCURVE",
"311 169 CURVE",
"288 157 OFFCURVE",
"268 149 OFFCURVE",
"245 141 CURVE"
);
}
);
width = 710;
}
);
note = F;
unicode = 0046;
},
{
color = 3;
glyphname = G;
lastChange = "2020-02-10 15:35:03 +0000";
layers = (
{
layerId = "E35B076F-D533-4C92-BAB9-D65BCB0F4FA2";
paths = (
{
closed = 1;
nodes = (
"656 -237 OFFCURVE",
"792 -173 OFFCURVE",
"792 -45 CURVE SMOOTH",
"792 63 OFFCURVE",
"729 100 OFFCURVE",
"729 196 CURVE SMOOTH",
"729 300 OFFCURVE",
"754 385 OFFCURVE",
"795 421 CURVE",
"774 446 LINE",
"726 414 OFFCURVE",
"652 412 OFFCURVE",
"604 412 CURVE SMOOTH",
"540 412 OFFCURVE",
"434 449 OFFCURVE",
"397 454 CURVE",
"397 630 LINE",
"512 624 OFFCURVE",
"566 561 OFFCURVE",
"623 517 CURVE",
"739 599 LINE",
"739 604 LINE",
"689 620 OFFCURVE",
"555 715 OFFCURVE",
"424 715 CURVE SMOOTH",
"374 715 OFFCURVE",
"125 583 OFFCURVE",
"109 558 CURVE SMOOTH",
"73 500 OFFCURVE",
"35 426 OFFCURVE",
"35 332 CURVE SMOOTH",
"35 112 OFFCURVE",
"190 -10 OFFCURVE",
"445 -10 CURVE SMOOTH",
"476 -10 OFFCURVE",
"557 48 OFFCURVE",
"623 100 CURVE",
"652 40 OFFCURVE",
"686 -9 OFFCURVE",
"686 -60 CURVE SMOOTH",
"686 -156 OFFCURVE",
"628 -199 OFFCURVE",
"497 -232 CURVE",
"510 -265 LINE"
);
},
{
closed = 1;
nodes = (
"147 336 LINE SMOOTH",
"147 522 OFFCURVE",
"230 620 OFFCURVE",
"359 629 CURVE",
"357 437 LINE",
"147 330 LINE"
);
},
{
closed = 1;
nodes = (
"255 118 OFFCURVE",
"168 181 OFFCURVE",
"150 294 CURVE",
"214 319 OFFCURVE",
"282 348 OFFCURVE",
"335 355 CURVE SMOOTH",
"342 356 OFFCURVE",
"349 356 OFFCURVE",
"356 355 CURVE",
"354 98 LINE"
);
},
{
closed = 1;
nodes = (
"418 90 OFFCURVE",
"407 90 OFFCURVE",
"397 91 CURVE",
"397 351 LINE",
"456 341 OFFCURVE",
"517 318 OFFCURVE",
"558 318 CURVE SMOOTH",
"593 318 OFFCURVE",
"618 326 OFFCURVE",
"651 340 CURVE",
"631 280 OFFCURVE",
"619 207 OFFCURVE",
"616 147 CURVE",
"537 102 OFFCURVE",
"468 90 OFFCURVE",
"428 90 CURVE SMOOTH"
);
}
);
width = 830;
}
);
note = G;
unicode = 0047;
},
{
color = 3;
glyphname = H;
lastChange = "2020-02-10 15:35:19 +0000";
layers = (
{
layerId = "E35B076F-D533-4C92-BAB9-D65BCB0F4FA2";
paths = (
{
closed = 1;
nodes = (
"160 2 OFFCURVE",
"198 2 OFFCURVE",
"324 -5 CURVE",
"323 484 LINE",
"351 498 OFFCURVE",
"379 504 OFFCURVE",
"411 504 CURVE SMOOTH",
"543 504 OFFCURVE",
"653 410 OFFCURVE",
"653 276 CURVE SMOOTH",
"653 126 OFFCURVE",
"560 81 OFFCURVE",
"538 81 CURVE SMOOTH",
"528 81 OFFCURVE",
"469 89 OFFCURVE",
"418 97 CURVE",
"380 -1 LINE",
"427 -5 OFFCURVE",
"498 -10 OFFCURVE",
"518 -10 CURVE",
"590 64 OFFCURVE",
"737 132 OFFCURVE",
"737 325 CURVE SMOOTH",
"737 525 OFFCURVE",
"577 628 OFFCURVE",
"434 632 CURVE",
"225 466 LINE",
"227 547 OFFCURVE",
"229 627 OFFCURVE",
"230 705 CURVE",
"202 710 LINE",
"147 648 OFFCURVE",
"121 640 OFFCURVE",
"26 648 CURVE",
"20 614 LINE",
"102 578 OFFCURVE",
"111 536 OFFCURVE",
"111 477 CURVE SMOOTH",
"112 394 LINE",
"99 367 OFFCURVE",
"61 351 OFFCURVE",
"38 348 CURVE",
"39 324 LINE",
"64 319 OFFCURVE",
"93 317 OFFCURVE",
"112 284 CURVE",
"114 36 LINE",
"30 27 LINE",
"30 -10 LINE"
);
},
{
closed = 1;
nodes = (
"220 162 OFFCURVE",
"221 287 OFFCURVE",
"224 411 CURVE",
"246 431 OFFCURVE",
"266 448 OFFCURVE",
"285 462 CURVE",
"288 43 LINE",
"222 41 LINE"
);
}
);
width = 772;
}
);
note = H;
unicode = 0048;
},
{
color = 6;
glyphname = I;
lastChange = "2020-02-10 15:35:47 +0000";
layers = (
{
layerId = "E35B076F-D533-4C92-BAB9-D65BCB0F4FA2";
paths = (
{
closed = 1;
nodes = (
"122 10 OFFCURVE",
"285 29 OFFCURVE",
"285 218 CURVE SMOOTH",
"285 351 OFFCURVE",
"275 352 OFFCURVE",
"280 465 CURVE SMOOTH",
"285 595 OFFCURVE",
"285 614 OFFCURVE",
"372 695 CURVE",
"353 716 LINE",
"299 684 OFFCURVE",
"252 653 OFFCURVE",
"212 621 CURVE",
"150 684 OFFCURVE",
"61 710 OFFCURVE",
"-1 710 CURVE",
"-6 688 LINE",
"122 662 OFFCURVE",
"166 578 OFFCURVE",
"170 418 CURVE SMOOTH",
"171 387 LINE",
"109 397 OFFCURVE",
"36 399 OFFCURVE",
"23 399 CURVE",
"27 378 LINE",
"123 356 OFFCURVE",
"157 334 OFFCURVE",
"173 307 CURVE",
"175 240 LINE SMOOTH",
"180 78 OFFCURVE",
"152 63 OFFCURVE",
"-20 -15 CURVE",
"-6 -41 LINE"
);
}
);
width = 387;
}
);
note = I;
unicode = 0049;
},
{
color = 3;
glyphname = J;
lastChange = "2020-02-10 15:35:51 +0000";
layers = (
{
layerId = "E35B076F-D533-4C92-BAB9-D65BCB0F4FA2";
paths = (
{
closed = 1;
nodes = (
"160 -95 OFFCURVE",
"275 -71 OFFCURVE",
"275 118 CURVE SMOOTH",
"275 251 OFFCURVE",
"265 352 OFFCURVE",
"270 465 CURVE SMOOTH",
"275 595 OFFCURVE",
"275 614 OFFCURVE",
"362 695 CURVE",
"343 716 LINE",
"289 684 OFFCURVE",
"242 653 OFFCURVE",
"202 621 CURVE",
"140 684 OFFCURVE",
"51 710 OFFCURVE",
"-11 710 CURVE",
"-16 688 LINE",
"112 662 OFFCURVE",
"157 578 OFFCURVE",
"160 418 CURVE SMOOTH",
"161 387 LINE",
"99 397 OFFCURVE",
"26 399 OFFCURVE",
"13 399 CURVE",
"17 378 LINE",
"111 357 OFFCURVE",
"145 335 OFFCURVE",
"162 309 CURVE",
"163 230 LINE",
"125 245 OFFCURVE",
"32 252 OFFCURVE",
"18 252 CURVE",
"21 231 LINE",
"101 206 OFFCURVE",
"151 178 OFFCURVE",
"165 146 CURVE",
"165 140 LINE SMOOTH",
"168 -22 OFFCURVE",
"142 -57 OFFCURVE",
"-70 -185 CURVE",
"-58 -215 LINE"
);
}
);
width = 377;
}
);
unicode = 004A;
},
{
color = 3;
glyphname = K;
lastChange = "2020-02-10 15:36:05 +0000";
layers = (
{
layerId = "E35B076F-D533-4C92-BAB9-D65BCB0F4FA2";
paths = (
{
closed = 1;
nodes = (
"510 9 OFFCURVE",
"539 22 OFFCURVE",
"568 37 CURVE",
"567 62 LINE",
"488 89 OFFCURVE",
"491 91 OFFCURVE",
"476 124 CURVE SMOOTH",
"457 166 OFFCURVE",
"474 306 OFFCURVE",
"452 377 CURVE",
"415 384 OFFCURVE",
"387 387 OFFCURVE",
"355 399 CURVE",
"442 458 OFFCURVE",
"514 527 OFFCURVE",
"514 592 CURVE SMOOTH",
"514 655 OFFCURVE",
"437 685 OFFCURVE",
"373 684 CURVE",
"315 643 OFFCURVE",
"270 617 OFFCURVE",
"208 582 CURVE",
"211 710 LINE",
"188 715 LINE",
"143 653 OFFCURVE",
"121 637 OFFCURVE",
"26 653 CURVE",
"20 628 LINE",
"102 584 OFFCURVE",
"105 526 OFFCURVE",
"104 467 CURVE SMOOTH",
"102 275 LINE",
"102 309 LINE",
"90 298 OFFCURVE",
"67 290 OFFCURVE",
"33 290 CURVE",
"32 270 LINE",
"64 264 OFFCURVE",
"79 264 OFFCURVE",
"102 218 CURVE",
"100 -4 LINE",
"199 10 LINE",
"197 99 OFFCURVE",
"199 201 OFFCURVE",
"201 305 CURVE",
"231 322 LINE",
"225 318 LINE",
"279 342 OFFCURVE",
"338 332 OFFCURVE",
"356 312 CURVE",
"380 248 OFFCURVE",
"370 119 OFFCURVE",
"370 87 CURVE SMOOTH",
"370 52 OFFCURVE",
"404 40 OFFCURVE",
"481 -10 CURVE"
);
},
{
closed = 1;
nodes = (
"203 410 OFFCURVE",
"205 477 OFFCURVE",
"207 542 CURVE",
"256 575 OFFCURVE",
"294 587 OFFCURVE",
"335 587 CURVE SMOOTH",
"375 587 OFFCURVE",
"416 562 OFFCURVE",
"416 525 CURVE SMOOTH",
"416 472 OFFCURVE",
"315 392 OFFCURVE",
"202 343 CURVE"
);
}
);
width = 578;
}
);
leftMetricsKey = H;
note = K;
unicode = 004B;
},
{
color = 3;
glyphname = L;
lastChange = "2020-02-10 15:36:34 +0000";
layers = (
{
layerId = "E35B076F-D533-4C92-BAB9-D65BCB0F4FA2";
paths = (
{
closed = 1;
nodes = (
"88 19 OFFCURVE",
"129 36 OFFCURVE",
"197 36 CURVE SMOOTH",
"301 36 OFFCURVE",
"432 -10 OFFCURVE",
"475 -10 CURVE",
"547 40 OFFCURVE",
"590 107 OFFCURVE",
"617 183 CURVE",
"590 191 LINE",
"570 145 OFFCURVE",
"519 94 OFFCURVE",
"462 94 CURVE SMOOTH",
"413 94 OFFCURVE",
"358 108 OFFCURVE",
"309 116 CURVE",
"324 705 LINE",
"289 702 LINE",
"277 120 LINE",
"271 121 OFFCURVE",
"265 121 OFFCURVE",
"259 121 CURVE SMOOTH",
"217 121 OFFCURVE",
"183 113 OFFCURVE",
"142 93 CURVE",
"188 152 OFFCURVE",
"216 225 OFFCURVE",
"216 314 CURVE SMOOTH",
"216 363 OFFCURVE",
"212 469 OFFCURVE",
"216 545 CURVE SMOOTH",
"220 627 OFFCURVE",
"228 648 OFFCURVE",
"278 689 CURVE",
"269 713 LINE",
"218 693 OFFCURVE",
"180 664 OFFCURVE",
"147 645 CURVE",
"119 665 OFFCURVE",
"80 673 OFFCURVE",
"39 673 CURVE",
"41 648 LINE",
"104 625 OFFCURVE",
"120 610 OFFCURVE",
"121 449 CURVE",
"95 435 OFFCURVE",
"69 425 OFFCURVE",
"43 419 CURVE",
"45 399 LINE",
"87 388 OFFCURVE",
"110 351 OFFCURVE",
"120 316 CURVE",
"114 153 OFFCURVE",
"89 61 OFFCURVE",
"20 15 CURVE",
"48 -10 LINE"
);
}
);
width = 622;
}
);
note = L;
unicode = 004C;
},
{
color = 3;
glyphname = M;
lastChange = "2020-02-10 15:36:46 +0000";
layers = (
{
layerId = "E35B076F-D533-4C92-BAB9-D65BCB0F4FA2";
paths = (
{
closed = 1;
nodes = (
"940 -209 OFFCURVE",
"1054 -122 OFFCURVE",
"1054 -23 CURVE SMOOTH",
"1054 103 OFFCURVE",
"953 218 OFFCURVE",
"953 331 CURVE SMOOTH",
"953 403 OFFCURVE",
"982 493 OFFCURVE",
"1052 541 CURVE",
"1053 571 LINE",
"992 591 OFFCURVE",
"921 622 OFFCURVE",
"852 715 CURVE",
"829 715 LINE",
"764 639 OFFCURVE",
"717 602 OFFCURVE",
"629 544 CURVE",
"572 579 OFFCURVE",
"495 602 OFFCURVE",
"403 622 CURVE",
"356 715 LINE",
"335 715 LINE",
"287 666 OFFCURVE",
"210 607 OFFCURVE",
"146 573 CURVE",
"145 540 OFFCURVE",
"145 506 OFFCURVE",
"144 474 CURVE",
"125 478 OFFCURVE",
"108 485 OFFCURVE",
"82 496 CURVE",
"77 481 LINE",
"97 439 OFFCURVE",
"122 406 OFFCURVE",
"143 383 CURVE",
"143 372 LINE",
"113 353 OFFCURVE",
"84 343 OFFCURVE",
"51 334 CURVE",
"57 317 LINE",
"97 307 OFFCURVE",
"138 278 OFFCURVE",
"143 237 CURVE",
"143 219 LINE SMOOTH",
"144 183 OFFCURVE",
"144 154 OFFCURVE",
"144 132 CURVE",
"92 80 OFFCURVE",
"51 43 OFFCURVE",
"15 10 CURVE",
"38 -17 LINE",
"101 34 OFFCURVE",
"147 60 OFFCURVE",
"196 60 CURVE SMOOTH",
"260 60 OFFCURVE",
"311 27 OFFCURVE",
"382 -16 CURVE",
"453 32 OFFCURVE",
"499 63 OFFCURVE",
"574 90 CURVE",
"628 76 OFFCURVE",
"665 31 OFFCURVE",
"707 -17 CURVE",
"903 116 LINE",
"923 68 OFFCURVE",
"944 24 OFFCURVE",
"944 -60 CURVE SMOOTH",
"944 -130 OFFCURVE",
"893 -189 OFFCURVE",
"813 -236 CURVE",
"831 -265 LINE"
);
},
{
closed = 1;
nodes = (
"297 131 OFFCURVE",
"272 137 OFFCURVE",
"252 138 CURVE",
"244 260 OFFCURVE",
"241 395 OFFCURVE",
"248 569 CURVE",
"261 588 OFFCURVE",
"277 604 OFFCURVE",
"299 618 CURVE",
"329 581 LINE",
"324 125 LINE"
);
},
{
closed = 1;
nodes = (
"726 120 OFFCURVE",
"703 140 OFFCURVE",
"652 163 CURVE",
"686 225 OFFCURVE",
"718 279 OFFCURVE",
"749 333 CURVE",
"749 416 OFFCURVE",
"720 474 OFFCURVE",
"668 517 CURVE",
"706 544 OFFCURVE",
"740 573 OFFCURVE",
"789 592 CURVE",
"828 556 OFFCURVE",
"893 512 OFFCURVE",
"936 481 CURVE",
"893 430 OFFCURVE",
"862 381 OFFCURVE",
"862 305 CURVE SMOOTH",
"862 236 OFFCURVE",
"873 191 OFFCURVE",
"887 153 CURVE",
"856 130 OFFCURVE",
"817 113 OFFCURVE",
"775 103 CURVE"
);
},
{
closed = 1;
nodes = (
"443 94 OFFCURVE",
"402 105 OFFCURVE",
"362 115 CURVE",
"362 563 LINE",
"536 504 OFFCURVE",
"645 447 OFFCURVE",
"645 316 CURVE SMOOTH",
"645 263 OFFCURVE",
"631 213 OFFCURVE",
"596 159 CURVE",
"559 132 OFFCURVE",
"518 108 OFFCURVE",
"481 88 CURVE"
);
}
);
width = 1089;
}
);
note = M;
unicode = 004D;
},
{
color = 3;
glyphname = N;
lastChange = "2020-01-30 13:06:28 +0000";
layers = (
{
layerId = "E35B076F-D533-4C92-BAB9-D65BCB0F4FA2";
paths = (
{
closed = 1;
nodes = (
"193 4 OFFCURVE",
"228 2 OFFCURVE",
"367 -5 CURVE",
"359 114 OFFCURVE",
"358 233 OFFCURVE",
"358 432 CURVE SMOOTH",
"358 550 OFFCURVE",
"392 630 OFFCURVE",
"476 630 CURVE SMOOTH",
"536 630 OFFCURVE",
"573 596 OFFCURVE",
"573 516 CURVE SMOOTH",
"573 375 OFFCURVE",
"567 236 OFFCURVE",
"567 89 CURVE",
"577 65 OFFCURVE",
"635 -10 OFFCURVE",
"649 -10 CURVE",
"757 80 LINE",
"742 111 LINE",
"699 81 OFFCURVE",
"691 129 OFFCURVE",
"691 209 CURVE SMOOTH",
"690 329 OFFCURVE",
"699 457 OFFCURVE",
"698 577 CURVE SMOOTH",
"697 687 OFFCURVE",
"624 715 OFFCURVE",
"532 715 CURVE SMOOTH",
"402 715 OFFCURVE",
"317 605 OFFCURVE",
"317 445 CURVE SMOOTH",
"317 351 OFFCURVE",
"321 178 OFFCURVE",
"319 44 CURVE",
"260 46 LINE",
"260 633 LINE SMOOTH",
"260 653 OFFCURVE",
"191 715 OFFCURVE",
"171 715 CURVE SMOOTH",
"169 715 OFFCURVE",
"83 659 OFFCURVE",
"40 629 CURVE",
"50 594 LINE",
"126 631 OFFCURVE",
"153 604 OFFCURVE",
"152 512 CURVE SMOOTH",
"151 395 LINE",
"119 368 OFFCURVE",
"97 360 OFFCURVE",
"68 346 CURVE",
"68 332 LINE",
"95 320 OFFCURVE",
"123 302 OFFCURVE",
"150 277 CURVE",
"148 46 LINE",
"58 30 LINE",
"58 -10 LINE"
);
}
);
width = 797;
}
);
note = N;
unicode = 004E;
},
{
color = 3;
glyphname = O;
lastChange = "2020-02-10 15:37:05 +0000";
layers = (
{
layerId = "E35B076F-D533-4C92-BAB9-D65BCB0F4FA2";
paths = (
{
closed = 1;
nodes = (
"55 -3 OFFCURVE",
"72 10 OFFCURVE",
"98 15 CURVE",
"131 14 OFFCURVE",
"183 -3 OFFCURVE",
"211 -10 CURVE",
"233 2 OFFCURVE",
"261 23 OFFCURVE",
"293 35 CURVE",
"353 25 OFFCURVE",
"415 10 OFFCURVE",
"495 -10 CURVE",
"549 19 OFFCURVE",
"738 142 OFFCURVE",
"765 203 CURVE SMOOTH",
"789 260 OFFCURVE",
"799 315 OFFCURVE",
"797 367 CURVE SMOOTH",
"790 501 OFFCURVE",
"692 608 OFFCURVE",
"494 659 CURVE",
"462 655 OFFCURVE",
"425 649 OFFCURVE",
"406 646 CURVE",
"349 715 LINE",
"344 715 LINE",
"132 597 LINE",
"133 585 OFFCURVE",
"135 561 OFFCURVE",
"136 531 CURVE",
"114 531 OFFCURVE",
"92 531 OFFCURVE",
"66 533 CURVE",
"61 512 LINE",
"102 501 OFFCURVE",
"130 477 OFFCURVE",
"139 436 CURVE",
"110 433 OFFCURVE",
"84 431 OFFCURVE",
"53 432 CURVE",
"53 412 LINE",
"89 403 OFFCURVE",
"125 386 OFFCURVE",
"141 355 CURVE",
"142 311 OFFCURVE",
"143 269 OFFCURVE",
"143 241 CURVE SMOOTH",
"143 150 OFFCURVE",
"107 74 OFFCURVE",
"20 13 CURVE",
"42 -10 LINE"
);
},
{
closed = 1;
nodes = (
"172 93 OFFCURVE",
"160 95 OFFCURVE",
"148 98 CURVE",
"209 173 OFFCURVE",
"241 244 OFFCURVE",
"241 327 CURVE SMOOTH",
"241 429 OFFCURVE",
"230 524 OFFCURVE",
"236 576 CURVE",
"243 605 OFFCURVE",
"278 632 OFFCURVE",
"295 641 CURVE",
"324 585 LINE",
"312 129 LINE",
"277 112 OFFCURVE",
"224 96 OFFCURVE",
"187 89 CURVE"
);
},
{
closed = 1;
nodes = (
"494 90 OFFCURVE",
"422 107 OFFCURVE",
"347 126 CURVE",
"355 551 LINE",
"533 587 OFFCURVE",
"692 473 OFFCURVE",
"692 315 CURVE SMOOTH",
"692 172 OFFCURVE",
"627 128 OFFCURVE",
"560 88 CURVE"
);
}
);
width = 832;
}
);
note = O;
unicode = 004F;
},
{
color = 3;
glyphname = P;
lastChange = "2020-02-10 15:37:18 +0000";
layers = (
{
layerId = "E35B076F-D533-4C92-BAB9-D65BCB0F4FA2";
paths = (
{
closed = 1;
nodes = (
"283 -250 LINE",
"275 -157 OFFCURVE",
"269 -118 OFFCURVE",
"270 -17 CURVE SMOOTH",
"271 46 LINE",
"336 48 OFFCURVE",
"409 8 OFFCURVE",
"487 -10 CURVE",
"588 42 OFFCURVE",
"792 115 OFFCURVE",
"792 282 CURVE SMOOTH",
"792 466 OFFCURVE",
"626 557 OFFCURVE",
"467 557 CURVE",
"422 650 LINE",
"418 654 LINE",
"371 619 OFFCURVE",
"325 589 OFFCURVE",
"278 561 CURVE",
"279 654 LINE",
"252 672 OFFCURVE",
"198 706 OFFCURVE",
"179 715 CURVE",
"141 704 OFFCURVE",
"98 674 OFFCURVE",
"44 645 CURVE",
"54 611 LINE",
"105 632 OFFCURVE",
"164 595 OFFCURVE",
"164 554 CURVE SMOOTH",
"164 393 LINE",
"139 379 OFFCURVE",
"117 372 OFFCURVE",
"55 365 CURVE",
"55 339 LINE",
"129 327 OFFCURVE",
"141 310 OFFCURVE",
"164 281 CURVE",
"164 135 LINE",
"134 103 OFFCURVE",
"72 46 OFFCURVE",
"30 23 CURVE",
"46 -11 LINE",
"82 16 OFFCURVE",
"137 37 OFFCURVE",
"163 46 CURVE",
"162 -86 OFFCURVE",
"158 -147 OFFCURVE",
"148 -250 CURVE"
);
},
{
closed = 1;
nodes = (
"333 133 OFFCURVE",
"299 144 OFFCURVE",
"272 153 CURVE",
"277 520 LINE",
"353 544 LINE",
"373 497 LINE",
"370 122 LINE"
);
},
{
closed = 1;
nodes = (
"502 89 OFFCURVE",
"451 100 OFFCURVE",
"403 113 CURVE",
"403 486 LINE",
"552 505 OFFCURVE",
"682 406 OFFCURVE",
"682 276 CURVE SMOOTH",
"682 156 OFFCURVE",
"611 104 OFFCURVE",
"549 84 CURVE"
);
}
);
width = 827;
}
);
note = P;
unicode = 0050;
},
{
color = 3;
glyphname = Q;
lastChange = "2020-02-10 15:37:37 +0000";
layers = (
{
layerId = "E35B076F-D533-4C92-BAB9-D65BCB0F4FA2";
paths = (
{
closed = 1;
nodes = (
"572 17 OFFCURVE",
"602 42 OFFCURVE",
"631 67 CURVE",
"626 84 LINE",
"591 90 OFFCURVE",
"548 107 OFFCURVE",
"505 139 CURVE",
"505 149 OFFCURVE",
"532 225 OFFCURVE",
"545 264 CURVE",
"520 279 OFFCURVE",
"500 293 OFFCURVE",
"485 306 CURVE",
"508 335 OFFCURVE",
"528 358 OFFCURVE",
"552 384 CURVE",
"612 552 OFFCURVE",
"478 715 OFFCURVE",
"299 715 CURVE SMOOTH",
"223 715 OFFCURVE",
"109 630 OFFCURVE",
"52 558 CURVE",
"-4 409 OFFCURVE",
"74 167 OFFCURVE",
"292 162 CURVE",
"333 193 OFFCURVE",
"366 220 OFFCURVE",
"405 242 CURVE",
"418 237 OFFCURVE",
"435 224 OFFCURVE",
"447 217 CURVE",
"449 157 OFFCURVE",
"412 111 OFFCURVE",
"405 91 CURVE",
"433 59 OFFCURVE",
"488 12 OFFCURVE",
"543 -10 CURVE"
);
},
{
closed = 1;
nodes = (
"218 259 OFFCURVE",
"134 364 OFFCURVE",
"134 486 CURVE SMOOTH",
"134 568 OFFCURVE",
"181 635 OFFCURVE",
"215 645 CURVE",
"375 645 OFFCURVE",
"474 525 OFFCURVE",
"474 415 CURVE SMOOTH",
"474 365 OFFCURVE",
"459 327 OFFCURVE",
"435 291 CURVE",
"398 270 OFFCURVE",
"358 259 OFFCURVE",
"318 259 CURVE SMOOTH"
);
}
);
width = 651;
}
);
note = Q;
unicode = 0051;
},
{
color = 3;
glyphname = R;
lastChange = "2020-02-10 15:38:02 +0000";
layers = (
{
layerId = "E35B076F-D533-4C92-BAB9-D65BCB0F4FA2";
paths = (
{
closed = 1;
nodes = (
"70 -10 LINE",
"103 36 OFFCURVE",
"121 57 OFFCURVE",
"168 57 CURVE SMOOTH",
"213 57 OFFCURVE",
"282 20 OFFCURVE",
"325 -5 CURVE",
"332 0 LINE",
"336 108 OFFCURVE",
"336 215 OFFCURVE",
"336 323 CURVE",
"495 301 OFFCURVE",
"529 261 OFFCURVE",
"668 -10 CURVE",
"798 61 LINE",
"788 90 LINE",
"772 89 OFFCURVE",
"749 97 OFFCURVE",
"742 106 CURVE SMOOTH",
"697 164 OFFCURVE",
"603 294 OFFCURVE",
"549 331 CURVE SMOOTH",
"534 341 OFFCURVE",
"474 356 OFFCURVE",
"414 362 CURVE",
"528 422 OFFCURVE",
"652 513 OFFCURVE",
"652 592 CURVE SMOOTH",
"652 663 OFFCURVE",
"575 715 OFFCURVE",
"497 715 CURVE SMOOTH",
"488 715 OFFCURVE",
"387 626 OFFCURVE",
"319 588 CURVE",
"298 673 OFFCURVE",
"253 715 OFFCURVE",
"177 715 CURVE SMOOTH",
"57 715 OFFCURVE",
"6 631 OFFCURVE",
"16 495 CURVE",
"46 495 LINE",
"46 584 OFFCURVE",
"73 630 OFFCURVE",
"141 630 CURVE SMOOTH",
"207 630 OFFCURVE",
"228 569 OFFCURVE",
"228 475 CURVE SMOOTH",
"228 356 OFFCURVE",
"228 188 OFFCURVE",
"218 99 CURVE",
"140 115 OFFCURVE",
"109 97 OFFCURVE",
"48 12 CURVE",
"67 -10 LINE"
);
},
{
closed = 1;
nodes = (
"335 428 LINE SMOOTH",
"335 474 OFFCURVE",
"332 515 OFFCURVE",
"327 550 CURVE",
"358 578 OFFCURVE",
"410 611 OFFCURVE",
"458 611 CURVE SMOOTH",
"510 611 OFFCURVE",
"556 588 OFFCURVE",
"556 543 CURVE SMOOTH",
"556 480 OFFCURVE",
"440 405 OFFCURVE",
"335 357 CURVE"
);
}
);
width = 818;
}
);
note = R;
unicode = 0052;
},
{
color = 3;
glyphname = S;
lastChange = "2020-02-10 15:38:12 +0000";
layers = (
{
layerId = "E35B076F-D533-4C92-BAB9-D65BCB0F4FA2";
paths = (
{
closed = 1;
nodes = (
"483 41 OFFCURVE",
"622 123 OFFCURVE",
"622 257 CURVE SMOOTH",
"622 353 OFFCURVE",
"552 413 OFFCURVE",
"460 442 CURVE",
"401 417 OFFCURVE",
"316 388 OFFCURVE",
"247 388 CURVE SMOOTH",
"173 388 OFFCURVE",
"131 487 OFFCURVE",
"191 576 CURVE",
"257 620 OFFCURVE",
"417 598 OFFCURVE",
"474 507 CURVE",
"624 624 LINE",
"612 644 LINE",
"538 616 LINE",
"494 642 OFFCURVE",
"419 685 OFFCURVE",
"357 715 CURVE",
"297 685 OFFCURVE",
"181 617 OFFCURVE",
"71 557 CURVE",
"31 437 OFFCURVE",
"62 344 OFFCURVE",
"139 293 CURVE",
"209 330 OFFCURVE",
"320 365 OFFCURVE",
"380 365 CURVE SMOOTH",
"438 365 OFFCURVE",
"527 307 OFFCURVE",
"527 212 CURVE SMOOTH",
"527 132 OFFCURVE",
"473 69 OFFCURVE",
"376 69 CURVE SMOOTH",
"294 69 OFFCURVE",
"228 123 OFFCURVE",
"190 193 CURVE",
"304 282 LINE",
"289 300 LINE",
"40 127 LINE",
"59 102 LINE",
"77 112 LINE",
"153 50 OFFCURVE",
"240 -10 OFFCURVE",
"385 -10 CURVE"
);
}
);
width = 674;
}
);
note = S;
unicode = 0053;
},
{
color = 6;
glyphname = U;
lastChange = "2020-02-10 15:38:23 +0000";
layers = (
{
layerId = "E35B076F-D533-4C92-BAB9-D65BCB0F4FA2";
paths = (
{
closed = 1;
nodes = (
"404 28 OFFCURVE",
"457 66 OFFCURVE",
"515 97 CURVE",
"522 72 OFFCURVE",
"551 35 OFFCURVE",
"598 -10 CURVE",
"688 82 LINE",
"672 108 LINE",
"634 76 OFFCURVE",
"623 114 OFFCURVE",
"623 199 CURVE SMOOTH",
"623 325 OFFCURVE",
"623 416 OFFCURVE",
"624 467 CURVE SMOOTH",
"626 604 OFFCURVE",
"652 645 OFFCURVE",
"691 683 CURVE",
"677 705 LINE",
"651 694 OFFCURVE",
"610 670 OFFCURVE",
"569 634 CURVE",
"542 665 OFFCURVE",
"480 703 OFFCURVE",
"417 716 CURVE",
"406 696 LINE",
"491 648 OFFCURVE",
"525 593 OFFCURVE",
"525 475 CURVE SMOOTH",
"525 359 OFFCURVE",
"524 259 OFFCURVE",
"518 147 CURVE",
"480 115 OFFCURVE",
"419 99 OFFCURVE",
"371 99 CURVE SMOOTH",
"256 99 OFFCURVE",
"161 176 OFFCURVE",
"161 306 CURVE SMOOTH",
"161 424 OFFCURVE",
"229 522 OFFCURVE",
"302 615 CURVE",
"245 644 OFFCURVE",
"214 675 OFFCURVE",
"161 715 CURVE",
"54 640 LINE",
"71 617 LINE",
"118 642 OFFCURVE",
"154 598 OFFCURVE",
"206 552 CURVE",
"148 467 OFFCURVE",
"94 403 OFFCURVE",
"51 320 CURVE",
"41 170 OFFCURVE",
"103 20 OFFCURVE",
"344 -10 CURVE"
);
}
);
width = 736;
}
);
unicode = 0055;
},
{
color = 3;
glyphname = T;
lastChange = "2020-02-10 15:38:31 +0000";
layers = (
{
layerId = "E35B076F-D533-4C92-BAB9-D65BCB0F4FA2";
paths = (
{
closed = 1;
nodes = (
"561 -10 OFFCURVE",
"684 70 OFFCURVE",
"720 101 CURVE",
"706 122 LINE",
"653 93 OFFCURVE",
"616 90 OFFCURVE",
"563 90 CURVE SMOOTH",
"562 90 LINE",
"562 550 LINE",
"564 550 LINE SMOOTH",
"617 550 OFFCURVE",
"672 568 OFFCURVE",
"718 577 CURVE",
"765 705 LINE",
"735 715 LINE",
"716 675 OFFCURVE",
"654 660 OFFCURVE",
"594 660 CURVE SMOOTH",
"506 660 OFFCURVE",
"414 689 OFFCURVE",
"324 715 CURVE",
"146 720 OFFCURVE",
"10 634 OFFCURVE",
"10 516 CURVE SMOOTH",
"10 474 OFFCURVE",
"27 433 OFFCURVE",
"54 407 CURVE",
"138 486 LINE",
"102 526 OFFCURVE",
"88 564 OFFCURVE",
"91 600 CURVE",
"126 626 OFFCURVE",
"161 631 OFFCURVE",
"197 630 CURVE SMOOTH",
"282 628 OFFCURVE",
"345 599 OFFCURVE",
"414 577 CURVE",
"346 524 OFFCURVE",
"280 467 OFFCURVE",
"229 417 CURVE",
"214 387 OFFCURVE",
"205 350 OFFCURVE",
"203 310 CURVE",
"163 288 OFFCURVE",
"117 278 OFFCURVE",
"95 270 CURVE",
"95 250 LINE",
"131 237 OFFCURVE",
"171 228 OFFCURVE",
"209 226 CURVE",
"234 106 OFFCURVE",
"325 -10 OFFCURVE",
"507 -10 CURVE SMOOTH"
);
},
{
closed = 1;
nodes = (
"404 103 OFFCURVE",
"318 184 OFFCURVE",
"318 313 CURVE SMOOTH",
"318 417 OFFCURVE",
"391 509 OFFCURVE",
"455 565 CURVE",
"479 558 OFFCURVE",
"504 553 OFFCURVE",
"532 551 CURVE",
"531 91 LINE"
);
}
);
width = 780;
}
);
note = T;
unicode = 0054;
},
{
color = 3;
glyphname = V;
lastChange = "2020-02-10 15:38:46 +0000";
layers = (
{
layerId = "E35B076F-D533-4C92-BAB9-D65BCB0F4FA2";
paths = (
{
closed = 1;
nodes = (
"618 144 OFFCURVE",
"854 238 OFFCURVE",
"854 476 CURVE SMOOTH",
"854 635 OFFCURVE",
"716 714 OFFCURVE",
"602 714 CURVE SMOOTH",
"554 714 OFFCURVE",
"483 694 OFFCURVE",
"435 654 CURVE",
"314 408 LINE",
"298 420 OFFCURVE",
"280 431 OFFCURVE",
"262 441 CURVE SMOOTH",
"88 541 OFFCURVE",
"40 588 OFFCURVE",
"130 701 CURVE",
"108 715 LINE",
"42 652 OFFCURVE",
"20 599 OFFCURVE",
"20 531 CURVE SMOOTH",
"20 473 OFFCURVE",
"63 428 OFFCURVE",
"189 362 CURVE SMOOTH",
"338 284 OFFCURVE",
"374 182 OFFCURVE",
"329 8 CURVE",
"344 -10 LINE"
);
},
{
closed = 1;
nodes = (
"459 247 OFFCURVE",
"411 328 OFFCURVE",
"346 384 CURVE",
"413 541 OFFCURVE",
"480 600 OFFCURVE",
"580 600 CURVE SMOOTH",
"657 600 OFFCURVE",
"744 560 OFFCURVE",
"744 425 CURVE SMOOTH",
"744 293 OFFCURVE",
"653 216 OFFCURVE",
"458 93 CURVE"
);
}
);
width = 894;
}
);
note = V;
unicode = 0056;
},
{
color = 3;
glyphname = W;
lastChange = "2020-02-10 15:38:54 +0000";
layers = (
{
layerId = "E35B076F-D533-4C92-BAB9-D65BCB0F4FA2";
paths = (
{
closed = 1;
nodes = (
"458 -10 LINE",
"605 254 LINE",
"634 175 OFFCURVE",
"664 85 OFFCURVE",
"691 -10 CURVE",
"722 -10 LINE",
"988 527 LINE SMOOTH",
"1037 626 OFFCURVE",
"1086 622 OFFCURVE",
"1131 575 CURVE",
"1198 678 LINE",
"1176 700 OFFCURVE",
"1146 715 OFFCURVE",
"1106 715 CURVE SMOOTH",
"1043 715 OFFCURVE",
"1007 658 OFFCURVE",
"953 549 CURVE SMOOTH",
"762 162 LINE",
"740 204 OFFCURVE",
"723 252 OFFCURVE",
"677 397 CURVE",
"772 578 LINE SMOOTH",
"797 625 OFFCURVE",
"827 642 OFFCURVE",
"886 600 CURVE",
"942 684 LINE",
"872 741 OFFCURVE",
"799 725 OFFCURVE",
"751 626 CURVE SMOOTH",
"662 444 LINE",
"620 579 LINE SMOOTH",
"587 686 OFFCURVE",
"528 715 OFFCURVE",
"468 715 CURVE SMOOTH",
"403 715 OFFCURVE",
"352 655 OFFCURVE",
"311 600 CURVE",
"282 662 OFFCURVE",
"217 715 OFFCURVE",
"135 715 CURVE SMOOTH",
"40 715 OFFCURVE",
"-49 550 OFFCURVE",
"61 404 CURVE",
"97 418 LINE",
"32 522 OFFCURVE",
"51 594 OFFCURVE",
"109 594 CURVE SMOOTH",
"150 594 OFFCURVE",
"190 565 OFFCURVE",
"242 452 CURVE SMOOTH",
"300 326 OFFCURVE",
"405 89 OFFCURVE",
"427 -10 CURVE"
);
},
{
closed = 1;
nodes = (
"328 561 LINE",
"351 599 OFFCURVE",
"379 609 OFFCURVE",
"408 609 CURVE SMOOTH",
"460 609 OFFCURVE",
"496 568 OFFCURVE",
"528 471 CURVE SMOOTH",
"543 425 OFFCURVE",
"564 368 OFFCURVE",
"588 303 CURVE",
"497 148 LINE"
);
}
);
width = 1213;
}
);
unicode = 0057;
},
{
color = 3;
glyphname = X;
lastChange = "2020-02-10 15:39:06 +0000";
layers = (
{
layerId = "E35B076F-D533-4C92-BAB9-D65BCB0F4FA2";
paths = (
{
closed = 1;
nodes = (
"222 -10 OFFCURVE",
"305 56 OFFCURVE",
"333 170 CURVE",
"378 63 OFFCURVE",
"461 -10 OFFCURVE",
"556 -10 CURVE SMOOTH",
"633 -10 OFFCURVE",
"700 66 OFFCURVE",
"744 152 CURVE",
"714 165 LINE",
"680 108 OFFCURVE",
"640 82 OFFCURVE",
"582 82 CURVE SMOOTH",
"500 82 OFFCURVE",
"420 172 OFFCURVE",
"405 335 CURVE",
"656 335 LINE",
"666 365 LINE",
"403 364 LINE",
"401 417 OFFCURVE",
"405 477 OFFCURVE",
"418 543 CURVE",
"419 544 LINE",
"419 547 LINE",
"439 597 OFFCURVE",
"480 627 OFFCURVE",
"533 627 CURVE SMOOTH",
"596 627 OFFCURVE",
"628 582 OFFCURVE",
"649 560 CURVE",
"746 645 LINE",
"724 679 OFFCURVE",
"671 715 OFFCURVE",
"611 715 CURVE SMOOTH",
"542 715 OFFCURVE",
"475 667 OFFCURVE",
"399 605 CURVE",
"368 662 OFFCURVE",
"305 713 OFFCURVE",
"222 713 CURVE SMOOTH",
"110 713 OFFCURVE",
"34 636 OFFCURVE",
"31 533 CURVE",
"59 534 LINE",
"66 605 OFFCURVE",
"113 631 OFFCURVE",
"167 631 CURVE SMOOTH",
"243 631 OFFCURVE",
"304 576 OFFCURVE",
"299 425 CURVE SMOOTH",
"299 363 LINE",
"75 362 LINE",
"69 335 LINE",
"299 335 LINE",
"299 330 OFFCURVE",
"299 325 OFFCURVE",
"300 321 CURVE",
"301 93 OFFCURVE",
"203 46 OFFCURVE",
"148 46 CURVE SMOOTH",
"97 46 OFFCURVE",
"65 65 OFFCURVE",
"31 92 CURVE",
"10 72 LINE",
"49 22 OFFCURVE",
"105 -10 OFFCURVE",
"154 -10 CURVE SMOOTH"
);
}
);
width = 761;
}
);
note = X;
unicode = 0058;
},
{
color = 3;
glyphname = Y;
lastChange = "2020-02-10 15:39:17 +0000";
layers = (
{
layerId = "E35B076F-D533-4C92-BAB9-D65BCB0F4FA2";
paths = (
{
closed = 1;
nodes = (
"339 -82 OFFCURVE",
"815 199 OFFCURVE",
"815 504 CURVE SMOOTH",
"815 655 OFFCURVE",
"696 742 OFFCURVE",
"572 710 CURVE",
"422 581 LINE",
"403 639 OFFCURVE",
"376 686 OFFCURVE",
"340 715 CURVE",
"330 715 OFFCURVE",
"256 650 OFFCURVE",
"214 630 CURVE",
"185 659 OFFCURVE",
"163 686 OFFCURVE",
"138 714 CURVE",
"135 714 LINE",
"10 609 LINE",
"30 584 LINE",
"83 617 LINE",
"101 603 OFFCURVE",
"134 570 OFFCURVE",
"168 530 CURVE",
"178 540 OFFCURVE",
"234 590 OFFCURVE",
"260 603 CURVE",
"359 463 OFFCURVE",
"378 257 OFFCURVE",
"363 -2 CURVE",
"270 -64 OFFCURVE",
"160 -130 OFFCURVE",
"30 -203 CURVE",
"48 -265 LINE"
);
},
{
closed = 1;
nodes = (
"470 75 LINE",
"471 200 OFFCURVE",
"471 392 OFFCURVE",
"434 539 CURVE",
"467 574 OFFCURVE",
"514 613 OFFCURVE",
"580 613 CURVE SMOOTH",
"636 613 OFFCURVE",
"713 546 OFFCURVE",
"713 441 CURVE SMOOTH",
"713 313 OFFCURVE",
"632 200 OFFCURVE",
"469 74 CURVE SMOOTH"
);
}
);
width = 850;
}
);
note = Y;
unicode = 0059;
},
{
color = 3;
glyphname = Z;
lastChange = "2020-02-10 15:39:31 +0000";
layers = (
{
layerId = "E35B076F-D533-4C92-BAB9-D65BCB0F4FA2";
paths = (
{
closed = 1;
nodes = (
"639 150 LINE",
"610 167 LINE",
"587 141 OFFCURVE",
"541 105 OFFCURVE",
"487 105 CURVE SMOOTH",
"415 107 OFFCURVE",
"351 157 OFFCURVE",
"202 159 CURVE",
"345 318 LINE",
"472 318 LINE",
"532 400 LINE",
"419 400 LINE",
"680 690 LINE",
"649 710 LINE",
"585 664 OFFCURVE",
"567 662 OFFCURVE",
"521 662 CURVE SMOOTH",
"442 662 OFFCURVE",
"342 715 OFFCURVE",
"256 715 CURVE SMOOTH",
"167 715 OFFCURVE",
"65 634 OFFCURVE",
"65 584 CURVE SMOOTH",
"65 544 OFFCURVE",
"95 510 OFFCURVE",
"116 494 CURVE",
"217 547 LINE",
"168 580 OFFCURVE",
"147 607 OFFCURVE",
"147 638 CURVE",
"226 675 OFFCURVE",
"366 586 OFFCURVE",
"519 568 CURVE",
"366 400 LINE",
"210 400 LINE",
"137 324 LINE",
"141 318 LINE",
"291 318 LINE",
"25 27 LINE",
"51 0 LINE",
"107 42 OFFCURVE",
"124 63 OFFCURVE",
"184 63 CURVE SMOOTH",
"253 63 OFFCURVE",
"410 10 OFFCURVE",
"499 -10 CURVE"
);
}
);
width = 705;
}
);
note = Z;
unicode = 005A;
},
{
color = 4;
glyphname = a;
lastChange = "2020-01-30 13:06:29 +0000";
layers = (
{
layerId = "E35B076F-D533-4C92-BAB9-D65BCB0F4FA2";
paths = (
{
closed = 1;
nodes = (
"177 26 OFFCURVE",
"231 74 OFFCURVE",
"270 93 CURVE",
"271 48 OFFCURVE",
"281 14 OFFCURVE",
"310 -10 CURVE",
"412 49 LINE",
"411 90 LINE",
"388 73 OFFCURVE",
"375 86 OFFCURVE",
"374 135 CURVE SMOOTH",
"373 208 OFFCURVE",
"370 317 OFFCURVE",
"373 400 CURVE",
"352 429 OFFCURVE",
"301 455 OFFCURVE",
"271 465 CURVE",
"192 432 OFFCURVE",
"114 385 OFFCURVE",
"36 338 CURVE",
"54 312 LINE",
"56 311 LINE",
"97 336 OFFCURVE",
"165 378 OFFCURVE",
"204 378 CURVE SMOOTH",
"238 378 OFFCURVE",
"266 354 OFFCURVE",
"269 318 CURVE",
"218 279 OFFCURVE",
"98 202 OFFCURVE",
"15 142 CURVE",
"52 91 OFFCURVE",
"97 37 OFFCURVE",
"122 -10 CURVE"
);
},
{
closed = 1;
nodes = (
"122 167 LINE",
"269 277 LINE",
"270 151 LINE",
"250 119 OFFCURVE",
"215 99 OFFCURVE",
"187 82 CURVE"
);
}
);
width = 437;
}
);
note = a;
unicode = 0061;
},
{
color = 4;
glyphname = a_hook;
lastChange = "2020-01-30 13:06:29 +0000";
layers = (
{
anchors = (
{
name = bottom;
position = "{212, 0}";
},
{
name = ogonek;
position = "{382, 10}";
},
{
name = top;
position = "{212, 455}";
}
);
layerId = "E35B076F-D533-4C92-BAB9-D65BCB0F4FA2";
paths = (
{
closed = 1;
nodes = (
"260 506 OFFCURVE",
"320 567 OFFCURVE",
"312 624 CURVE SMOOTH",
"305 670 OFFCURVE",
"253 702 OFFCURVE",
"206 696 CURVE",
"150 607 LINE",
"153 603 LINE",
"190 603 OFFCURVE",
"222 590 OFFCURVE",
"225 567 CURVE SMOOTH",
"229 539 OFFCURVE",
"199 513 OFFCURVE",
"174 501 CURVE",
"185 478 LINE"
);
},
{
closed = 1;
nodes = (
"177 26 OFFCURVE",
"231 74 OFFCURVE",
"270 93 CURVE",
"271 48 OFFCURVE",
"281 14 OFFCURVE",
"310 -10 CURVE",
"412 49 LINE",
"411 90 LINE",
"388 73 OFFCURVE",
"375 86 OFFCURVE",
"374 135 CURVE SMOOTH",
"373 208 OFFCURVE",
"370 317 OFFCURVE",
"373 400 CURVE",
"352 429 OFFCURVE",
"301 455 OFFCURVE",
"271 465 CURVE",
"192 432 OFFCURVE",
"114 385 OFFCURVE",
"36 338 CURVE",
"54 312 LINE",
"56 311 LINE",
"97 336 OFFCURVE",
"165 378 OFFCURVE",
"204 378 CURVE SMOOTH",
"238 378 OFFCURVE",
"266 354 OFFCURVE",
"269 318 CURVE",
"218 279 OFFCURVE",
"98 202 OFFCURVE",
"15 142 CURVE",
"52 91 OFFCURVE",
"97 37 OFFCURVE",
"122 -10 CURVE"
);
},
{
closed = 1;
nodes = (
"122 167 LINE",
"269 277 LINE",
"270 151 LINE",
"250 119 OFFCURVE",
"215 99 OFFCURVE",
"187 82 CURVE"
);
}
);
width = 437;
}
);
leftMetricsKey = a;
note = a_apomod;
rightMetricsKey = a;
},
{
color = 4;
glyphname = a_macr;
lastChange = "2020-01-30 13:06:29 +0000";
layers = (
{
layerId = "E35B076F-D533-4C92-BAB9-D65BCB0F4FA2";
paths = (
{
closed = 1;
nodes = (
"81 544 OFFCURVE",
"165 557 OFFCURVE",
"229 561 CURVE SMOOTH",
"362 569 LINE",
"388 648 LINE",
"386 654 LINE",
"113 617 LINE",
"82 586 OFFCURVE",
"50 545 OFFCURVE",
"31 508 CURVE",
"52 501 LINE"
);
},
{
closed = 1;
nodes = (
"177 26 OFFCURVE",
"231 74 OFFCURVE",
"270 93 CURVE",
"271 48 OFFCURVE",
"281 14 OFFCURVE",
"310 -10 CURVE",
"412 49 LINE",
"411 90 LINE",
"388 73 OFFCURVE",
"375 86 OFFCURVE",
"374 135 CURVE SMOOTH",
"373 208 OFFCURVE",
"370 317 OFFCURVE",
"373 400 CURVE",
"352 429 OFFCURVE",
"301 455 OFFCURVE",
"271 465 CURVE",
"192 432 OFFCURVE",
"114 385 OFFCURVE",
"36 338 CURVE",
"54 312 LINE",
"56 311 LINE",
"97 336 OFFCURVE",
"165 378 OFFCURVE",
"204 378 CURVE SMOOTH",
"238 378 OFFCURVE",
"266 354 OFFCURVE",
"269 318 CURVE",
"218 279 OFFCURVE",
"98 202 OFFCURVE",
"15 142 CURVE",
"52 91 OFFCURVE",
"97 37 OFFCURVE",
"122 -10 CURVE"
);
},
{
closed = 1;
nodes = (
"122 167 LINE",
"269 277 LINE",
"270 151 LINE",
"250 119 OFFCURVE",
"215 99 OFFCURVE",
"187 82 CURVE"
);
}
);
width = 437;
}
);
leftMetricsKey = a;
note = a_macr;
rightMetricsKey = a;
unicode = 0101;
},
{
color = 4;
glyphname = a_n;
lastChange = "2020-01-30 13:06:29 +0000";
layers = (
{
layerId = "E35B076F-D533-4C92-BAB9-D65BCB0F4FA2";
paths = (
{
closed = 1;
nodes = (
"864 25 LINE",
"864 60 LINE",
"845 60 OFFCURVE",
"840 84 OFFCURVE",
"839 114 CURVE SMOOTH",
"836 208 OFFCURVE",
"835 284 OFFCURVE",
"846 370 CURVE SMOOTH",
"849 390 OFFCURVE",
"760 455 OFFCURVE",
"740 455 CURVE",
"622 379 LINE",
"607 405 OFFCURVE",
"521 465 OFFCURVE",
"503 465 CURVE",
"350 357 LINE",
"350 416 OFFCURVE",
"255 465 OFFCURVE",
"226 465 CURVE SMOOTH",
"181 465 OFFCURVE",
"104 413 OFFCURVE",
"39 377 CURVE",
"49 350 LINE",
"51 349 LINE",
"92 368 OFFCURVE",
"132 381 OFFCURVE",
"171 381 CURVE SMOOTH",
"213 381 OFFCURVE",
"254 351 OFFCURVE",
"252 290 CURVE SMOOTH",
"252 296 LINE",
"15 168 LINE",
"37 111 OFFCURVE",
"65 44 OFFCURVE",
"115 -10 CURVE",
"162 21 OFFCURVE",
"224 87 OFFCURVE",
"252 100 CURVE",
"270 77 OFFCURVE",
"302 12 OFFCURVE",
"318 -10 CURVE",
"379 28 OFFCURVE",
"450 80 OFFCURVE",
"502 107 CURVE",
"500 70 OFFCURVE",
"499 34 OFFCURVE",
"498 0 CURVE",
"612 0 LINE",
"610 107 OFFCURVE",
"609 243 OFFCURVE",
"618 334 CURVE",
"640 350 OFFCURVE",
"667 360 OFFCURVE",
"686 360 CURVE SMOOTH",
"704 360 OFFCURVE",
"733 345 OFFCURVE",
"733 322 CURVE SMOOTH",
"733 259 OFFCURVE",
"734 102 OFFCURVE",
"730 -10 CURVE",
"736 -13 LINE"
);
},
{
closed = 1;
nodes = (
"372 91 OFFCURVE",
"358 109 OFFCURVE",
"356 120 CURVE SMOOTH",
"350 151 OFFCURVE",
"346 245 OFFCURVE",
"348 319 CURVE",
"387 343 OFFCURVE",
"429 361 OFFCURVE",
"463 361 CURVE SMOOTH",
"488 361 OFFCURVE",
"506 348 OFFCURVE",
"506 318 CURVE SMOOTH",
"506 258 OFFCURVE",
"505 199 OFFCURVE",
"503 142 CURVE",
"466 116 OFFCURVE",
"416 97 OFFCURVE",
"394 94 CURVE SMOOTH"
);
},
{
closed = 1;
nodes = (
"143 102 OFFCURVE",
"129 148 OFFCURVE",
"117 183 CURVE",
"252 265 LINE",
"252 227 OFFCURVE",
"254 189 OFFCURVE",
"251 151 CURVE",
"231 118 OFFCURVE",
"191 88 OFFCURVE",
"170 79 CURVE"
);
}
);
width = 894;
}
);
leftMetricsKey = a;
note = a_n;
rightMetricsKey = n;
},
{
color = 4;
glyphname = a_r;
lastChange = "2020-01-30 13:06:29 +0000";
layers = (
{
layerId = "E35B076F-D533-4C92-BAB9-D65BCB0F4FA2";
paths = (
{
closed = 1;
nodes = (
"168 25 OFFCURVE",
"234 72 OFFCURVE",
"274 89 CURVE",
"284 69 OFFCURVE",
"315 28 OFFCURVE",
"340 -10 CURVE",
"504 67 LINE",
"504 -6 LINE",
"617 0 LINE",
"606 109 OFFCURVE",
"604 218 OFFCURVE",
"604 327 CURVE",
"641 351 OFFCURVE",
"674 330 OFFCURVE",
"698 286 CURVE",
"703 286 LINE",
"761 363 LINE",
"763 425 OFFCURVE",
"725 456 OFFCURVE",
"668 465 CURVE",
"663 465 LINE",
"599 366 LINE",
"584 418 OFFCURVE",
"559 439 OFFCURVE",
"495 465 CURVE",
"454 431 OFFCURVE",
"413 400 OFFCURVE",
"372 372 CURVE",
"351 420 OFFCURVE",
"301 455 OFFCURVE",
"271 465 CURVE",
"192 432 OFFCURVE",
"114 385 OFFCURVE",
"36 338 CURVE",
"54 312 LINE",
"56 311 LINE",
"97 336 OFFCURVE",
"165 378 OFFCURVE",
"204 378 CURVE SMOOTH",
"252 378 OFFCURVE",
"267 346 OFFCURVE",
"269 309 CURVE",
"218 270 OFFCURVE",
"98 202 OFFCURVE",
"15 142 CURVE",
"52 91 OFFCURVE",
"90 32 OFFCURVE",
"111 -10 CURVE"
);
},
{
closed = 1;
nodes = (
"431 80 OFFCURVE",
"374 91 OFFCURVE",
"374 153 CURVE SMOOTH",
"373 337 LINE",
"398 355 OFFCURVE",
"413 358 OFFCURVE",
"433 358 CURVE SMOOTH",
"477 358 OFFCURVE",
"504 334 OFFCURVE",
"504 269 CURVE SMOOTH",
"504 96 LINE"
);
},
{
closed = 1;
nodes = (
"120 171 LINE",
"269 273 LINE",
"270 145 LINE",
"250 116 OFFCURVE",
"215 100 OFFCURVE",
"187 83 CURVE"
);
}
);
width = 766;
}
);
leftMetricsKey = a;
rightMetricsKey = r;
},
{
color = 4;
glyphname = b;
lastChange = "2020-01-30 13:06:29 +0000";
layers = (
{
layerId = "E35B076F-D533-4C92-BAB9-D65BCB0F4FA2";
paths = (
{
closed = 1;
nodes = (
"320 50 OFFCURVE",
"433 136 OFFCURVE",
"453 202 CURVE",
"475 322 OFFCURVE",
"429 434 OFFCURVE",
"290 465 CURVE",
"238 428 OFFCURVE",
"189 385 OFFCURVE",
"142 356 CURVE",
"157 692 LINE",
"41 708 LINE",
"30 686 LINE",
"54 594 OFFCURVE",
"50 212 OFFCURVE",
"47 80 CURVE",
"81 43 OFFCURVE",
"166 -3 OFFCURVE",
"217 -13 CURVE"
);
},
{
closed = 1;
nodes = (
"221 75 OFFCURVE",
"163 97 OFFCURVE",
"139 123 CURVE",
"143 258 LINE",
"153 328 OFFCURVE",
"196 364 OFFCURVE",
"249 364 CURVE SMOOTH",
"314 364 OFFCURVE",
"377 312 OFFCURVE",
"377 232 CURVE SMOOTH",
"377 153 OFFCURVE",
"318 92 OFFCURVE",
"271 72 CURVE"
);
}
);
width = 483;
}
);
note = b;
rightMetricsKey = o;
unicode = 0062;
},
{
color = 4;
glyphname = b_e;
lastChange = "2020-01-30 13:06:29 +0000";
layers = (
{
layerId = "E35B076F-D533-4C92-BAB9-D65BCB0F4FA2";
paths = (
{
closed = 1;
nodes = (
"684 374 OFFCURVE",
"645 443 OFFCURVE",
"560 464 CURVE",
"525 438 OFFCURVE",
"471 403 OFFCURVE",
"428 374 CURVE",
"401 417 OFFCURVE",
"356 450 OFFCURVE",
"290 465 CURVE",
"238 428 OFFCURVE",
"189 385 OFFCURVE",
"142 356 CURVE",
"157 692 LINE",
"41 708 LINE",
"30 686 LINE",
"54 594 OFFCURVE",
"50 212 OFFCURVE",
"47 80 CURVE",
"81 43 OFFCURVE",
"166 -3 OFFCURVE",
"217 -13 CURVE",
"282 26 OFFCURVE",
"350 75 OFFCURVE",
"397 122 CURVE",
"421 32 OFFCURVE",
"479 -10 OFFCURVE",
"515 -10 CURVE SMOOTH",
"550 -10 OFFCURVE",
"615 18 OFFCURVE",
"665 57 CURVE",
"655 87 LINE",
"572 51 OFFCURVE",
"514 81 OFFCURVE",
"489 149 CURVE",
"707 293 LINE",
"714 320 LINE"
);
},
{
closed = 1;
nodes = (
"477 199 OFFCURVE",
"476 215 OFFCURVE",
"476 232 CURVE SMOOTH",
"476 267 OFFCURVE",
"479 326 OFFCURVE",
"491 378 CURVE",
"545 375 OFFCURVE",
"610 332 OFFCURVE",
"613 299 CURVE SMOOTH",
"615 275 OFFCURVE",
"598 263 OFFCURVE",
"480 184 CURVE"
);
},
{
closed = 1;
nodes = (
"221 75 OFFCURVE",
"163 97 OFFCURVE",
"139 123 CURVE",
"143 258 LINE",
"153 328 OFFCURVE",
"196 364 OFFCURVE",
"249 364 CURVE SMOOTH",
"314 364 OFFCURVE",
"377 312 OFFCURVE",
"377 232 CURVE SMOOTH",
"377 153 OFFCURVE",
"318 92 OFFCURVE",
"271 72 CURVE"
);
}
);
width = 724;
}
);
leftMetricsKey = b;
note = b_e;
rightMetricsKey = e;
},
{
color = 4;
glyphname = b_o;
lastChange = "2020-01-30 13:06:29 +0000";
layers = (
{
layerId = "E35B076F-D533-4C92-BAB9-D65BCB0F4FA2";
paths = (
{
closed = 1;
nodes = (
"529 451 OFFCURVE",
"474 411 OFFCURVE",
"435 360 CURVE",
"410 410 OFFCURVE",
"363 449 OFFCURVE",
"290 465 CURVE",
"238 428 OFFCURVE",
"189 385 OFFCURVE",
"142 356 CURVE",
"157 692 LINE",
"41 708 LINE",
"30 686 LINE",
"54 594 OFFCURVE",
"50 212 OFFCURVE",
"47 80 CURVE",
"81 43 OFFCURVE",
"166 -3 OFFCURVE",
"217 -13 CURVE",
"283 28 OFFCURVE",
"354 78 OFFCURVE",
"401 126 CURVE",
"434 54 OFFCURVE",
"507 -2 OFFCURVE",
"622 -10 CURVE",
"711 68 OFFCURVE",
"808 108 OFFCURVE",
"808 258 CURVE SMOOTH",
"808 358 OFFCURVE",
"721 465 OFFCURVE",
"583 465 CURVE"
);
},
{
closed = 1;
nodes = (
"552 82 OFFCURVE",
"463 161 OFFCURVE",
"463 271 CURVE SMOOTH",
"463 310 OFFCURVE",
"480 362 OFFCURVE",
"515 380 CURVE",
"629 393 OFFCURVE",
"728 307 OFFCURVE",
"728 217 CURVE SMOOTH",
"728 157 OFFCURVE",
"704 112 OFFCURVE",
"663 83 CURVE"
);
},
{
closed = 1;
nodes = (
"221 75 OFFCURVE",
"163 97 OFFCURVE",
"139 123 CURVE",
"143 258 LINE",
"153 328 OFFCURVE",
"196 364 OFFCURVE",
"249 364 CURVE SMOOTH",
"314 364 OFFCURVE",
"377 312 OFFCURVE",
"377 232 CURVE SMOOTH",
"377 153 OFFCURVE",
"318 92 OFFCURVE",
"271 72 CURVE"
);
}
);
width = 833;
}
);
leftMetricsKey = b;
note = b_o;
rightMetricsKey = o;
},
{
color = 4;
glyphname = b_r;
lastChange = "2020-02-10 15:40:03 +0000";
layers = (
{
layerId = "E35B076F-D533-4C92-BAB9-D65BCB0F4FA2";
paths = (
{
closed = 1;
nodes = (
"705 100 OFFCURVE",
"695 90 OFFCURVE",
"678 90 CURVE SMOOTH",
"648 90 OFFCURVE",
"608 108 OFFCURVE",
"579 132 CURVE",
"640 214 OFFCURVE",
"726 307 OFFCURVE",
"726 355 CURVE SMOOTH",
"726 425 OFFCURVE",
"659 465 OFFCURVE",
"579 465 CURVE SMOOTH",
"570 465 LINE",
"447 357 LINE",
"422 409 OFFCURVE",
"374 448 OFFCURVE",
"300 465 CURVE",
"248 428 OFFCURVE",
"199 385 OFFCURVE",
"152 356 CURVE",
"167 692 LINE",
"51 708 LINE",
"40 686 LINE",
"64 594 OFFCURVE",
"60 212 OFFCURVE",
"57 80 CURVE",
"91 43 OFFCURVE",
"176 -3 OFFCURVE",
"227 -13 CURVE",
"330 50 OFFCURVE",
"443 136 OFFCURVE",
"463 202 CURVE",
"471 244 OFFCURVE",
"470 284 OFFCURVE",
"460 321 CURVE",
"477 337 OFFCURVE",
"511 365 OFFCURVE",
"549 365 CURVE SMOOTH",
"578 365 OFFCURVE",
"616 345 OFFCURVE",
"616 305 CURVE SMOOTH",
"616 265 OFFCURVE",
"605 214 OFFCURVE",
"500 94 CURVE",
"499 88 LINE",
"549 45 OFFCURVE",
"575 16 OFFCURVE",
"640 -10 CURVE",
"738 90 LINE",
"714 110 LINE"
);
},
{
closed = 1;
nodes = (
"231 75 OFFCURVE",
"173 97 OFFCURVE",
"149 123 CURVE",
"153 258 LINE",
"163 328 OFFCURVE",
"206 364 OFFCURVE",
"259 364 CURVE SMOOTH",
"324 364 OFFCURVE",
"387 312 OFFCURVE",
"387 232 CURVE SMOOTH",
"387 153 OFFCURVE",
"328 92 OFFCURVE",
"281 72 CURVE"
);
}
);
width = 758;
}
);
note = b_r.alt;
},
{
color = 4;
glyphname = b_s;
lastChange = "2020-02-10 15:40:18 +0000";
layers = (
{
layerId = "E35B076F-D533-4C92-BAB9-D65BCB0F4FA2";
paths = (
{
closed = 1;
nodes = (
"512 424 OFFCURVE",
"475 385 OFFCURVE",
"438 355 CURVE",
"413 408 OFFCURVE",
"365 448 OFFCURVE",
"290 465 CURVE",
"238 428 OFFCURVE",
"189 385 OFFCURVE",
"142 356 CURVE",
"157 692 LINE",
"41 708 LINE",
"30 686 LINE",
"54 594 OFFCURVE",
"50 212 OFFCURVE",
"47 80 CURVE",
"81 43 OFFCURVE",
"166 -3 OFFCURVE",
"217 -13 CURVE",
"320 50 OFFCURVE",
"433 136 OFFCURVE",
"453 202 CURVE",
"461 245 OFFCURVE",
"460 287 OFFCURVE",
"449 324 CURVE",
"470 340 OFFCURVE",
"497 356 OFFCURVE",
"531 356 CURVE SMOOTH",
"605 356 OFFCURVE",
"663 304 OFFCURVE",
"663 229 CURVE SMOOTH",
"663 164 OFFCURVE",
"638 119 OFFCURVE",
"602 94 CURVE",
"562 104 OFFCURVE",
"521 128 OFFCURVE",
"481 148 CURVE",
"350 22 LINE",
"380 3 LINE",
"424 33 LINE",
"466 12 OFFCURVE",
"499 1 OFFCURVE",
"552 -10 CURVE",
"557 -10 LINE",
"635 76 OFFCURVE",
"753 155 OFFCURVE",
"753 255 CURVE SMOOTH",
"753 370 OFFCURVE",
"682 445 OFFCURVE",
"549 465 CURVE"
);
},
{
closed = 1;
nodes = (
"221 75 OFFCURVE",
"163 97 OFFCURVE",
"139 123 CURVE",
"143 258 LINE",
"153 328 OFFCURVE",
"196 364 OFFCURVE",
"249 364 CURVE SMOOTH",
"314 364 OFFCURVE",
"377 312 OFFCURVE",
"377 232 CURVE SMOOTH",
"377 153 OFFCURVE",
"318 92 OFFCURVE",
"271 72 CURVE"
);
}
);
width = 778;
}
);
leftMetricsKey = b;
rightMetricsKey = o;
},
{
color = 4;
glyphname = c;
lastChange = "2020-02-10 15:40:24 +0000";
layers = (
{
layerId = "E35B076F-D533-4C92-BAB9-D65BCB0F4FA2";
paths = (
{
closed = 1;
nodes = (
"204 -10 OFFCURVE",
"269 21 OFFCURVE",
"316 55 CURVE",
"308 85 LINE",
"175 37 OFFCURVE",
"121 112 OFFCURVE",
"121 223 CURVE SMOOTH",
"121 275 OFFCURVE",
"122 339 OFFCURVE",
"132 376 CURVE",
"162 360 OFFCURVE",
"210 336 OFFCURVE",
"244 312 CURVE",
"249 312 LINE",
"304 388 LINE",
"303 393 LINE",
"253 415 OFFCURVE",
"217 437 OFFCURVE",
"169 465 CURVE",
"25 374 LINE",
"30 334 OFFCURVE",
"26 291 OFFCURVE",
"26 181 CURVE SMOOTH",
"26 82 OFFCURVE",
"88 -10 OFFCURVE",
"174 -10 CURVE SMOOTH"
);
}
);
width = 326;
}
);
note = c;
unicode = 0063;
},
{
color = 4;
glyphname = c_hook;
lastChange = "2020-01-30 13:06:29 +0000";
layers = (
{
layerId = "E35B076F-D533-4C92-BAB9-D65BCB0F4FA2";
paths = (
{
closed = 1;
nodes = (
"208 520 OFFCURVE",
"258 579 OFFCURVE",
"247 631 CURVE SMOOTH",
"238 674 OFFCURVE",
"189 700 OFFCURVE",
"146 691 CURVE",
"100 605 LINE",
"103 602 LINE",
"137 604 OFFCURVE",
"167 594 OFFCURVE",
"172 573 CURVE SMOOTH",
"177 548 OFFCURVE",
"151 522 OFFCURVE",
"129 509 CURVE",
"140 489 LINE"
);
},
{
closed = 1;
nodes = (
"204 -10 OFFCURVE",
"269 21 OFFCURVE",
"316 55 CURVE",
"308 85 LINE",
"175 37 OFFCURVE",
"121 112 OFFCURVE",
"121 223 CURVE SMOOTH",
"121 275 OFFCURVE",
"122 339 OFFCURVE",
"132 376 CURVE",
"162 360 OFFCURVE",
"210 336 OFFCURVE",
"244 312 CURVE",
"249 312 LINE",
"304 388 LINE",
"303 393 LINE",
"253 415 OFFCURVE",
"217 437 OFFCURVE",
"169 465 CURVE",
"25 374 LINE",
"30 334 OFFCURVE",
"26 291 OFFCURVE",
"26 181 CURVE SMOOTH",
"26 82 OFFCURVE",
"88 -10 OFFCURVE",
"174 -10 CURVE SMOOTH"
);
}
);
width = 326;
}
);
leftMetricsKey = c;
note = c_apomod;
rightMetricsKey = c;
},
{
color = 4;
glyphname = c_macr;
lastChange = "2020-01-30 13:06:29 +0000";
layers = (
{
layerId = "E35B076F-D533-4C92-BAB9-D65BCB0F4FA2";
paths = (
{
closed = 1;
nodes = (
"78 590 OFFCURVE",
"150 587 OFFCURVE",
"215 587 CURVE SMOOTH",
"298 587 LINE",
"349 662 LINE",
"348 668 LINE",
"259 650 OFFCURVE",
"181 657 OFFCURVE",
"83 651 CURVE",
"59 622 OFFCURVE",
"47 593 OFFCURVE",
"25 568 CURVE",
"46 559 LINE"
);
},
{
closed = 1;
nodes = (
"218 -10 OFFCURVE",
"283 21 OFFCURVE",
"330 55 CURVE",
"322 85 LINE",
"189 37 OFFCURVE",
"135 112 OFFCURVE",
"135 223 CURVE SMOOTH",
"135 275 OFFCURVE",
"136 339 OFFCURVE",
"146 376 CURVE",
"176 360 OFFCURVE",
"224 336 OFFCURVE",
"258 312 CURVE",
"263 312 LINE",
"318 388 LINE",
"317 393 LINE",
"267 415 OFFCURVE",
"231 437 OFFCURVE",
"183 465 CURVE",
"39 374 LINE",
"44 334 OFFCURVE",
"40 291 OFFCURVE",
"40 181 CURVE SMOOTH",
"40 82 OFFCURVE",
"102 -10 OFFCURVE",
"188 -10 CURVE SMOOTH"
);
}
);
width = 359;
}
);
leftMetricsKey = c;
note = c_macr;
rightMetricsKey = c;
},
{
color = 4;
glyphname = c_a;
lastChange = "2020-01-30 13:06:29 +0000";
layers = (
{
layerId = "E35B076F-D533-4C92-BAB9-D65BCB0F4FA2";
paths = (
{
closed = 1;
nodes = (
"198 10 OFFCURVE",
"254 65 OFFCURVE",
"305 95 CURVE",
"336 55 OFFCURVE",
"368 21 OFFCURVE",
"381 -10 CURVE",
"436 21 OFFCURVE",
"493 68 OFFCURVE",
"533 86 CURVE",
"535 46 OFFCURVE",
"545 12 OFFCURVE",
"572 -10 CURVE",
"674 49 LINE",
"673 90 LINE",
"650 73 OFFCURVE",
"637 86 OFFCURVE",
"636 135 CURVE SMOOTH",
"635 208 OFFCURVE",
"632 317 OFFCURVE",
"635 400 CURVE",
"614 429 OFFCURVE",
"563 455 OFFCURVE",
"533 465 CURVE",
"454 432 OFFCURVE",
"376 375 OFFCURVE",
"298 328 CURVE",
"316 302 LINE",
"318 301 LINE",
"359 326 OFFCURVE",
"416 369 OFFCURVE",
"455 369 CURVE SMOOTH",
"491 369 OFFCURVE",
"531 341 OFFCURVE",
"531 311 CURVE SMOOTH",
"531 309 LINE",
"482 270 OFFCURVE",
"373 177 OFFCURVE",
"291 125 CURVE SMOOTH",
"186 56 OFFCURVE",
"116 113 OFFCURVE",
"116 199 CURVE SMOOTH",
"116 266 OFFCURVE",
"114 332 OFFCURVE",
"119 374 CURVE",
"160 375 OFFCURVE",
"208 349 OFFCURVE",
"242 315 CURVE",
"247 315 LINE",
"312 388 LINE",
"311 393 LINE",
"261 416 OFFCURVE",
"225 438 OFFCURVE",
"177 465 CURVE",
"25 383 LINE",
"25 327 OFFCURVE",
"25 203 OFFCURVE",
"26 141 CURVE SMOOTH",
"27 98 OFFCURVE",
"89 8 OFFCURVE",
"169 -10 CURVE"
);
},
{
closed = 1;
nodes = (
"385 157 LINE",
"531 272 LINE",
"532 136 LINE",
"512 107 OFFCURVE",
"485 90 OFFCURVE",
"449 73 CURVE"
);
}
);
width = 699;
}
);
leftMetricsKey = c;
note = c_a;
rightMetricsKey = a;
},
{
color = 4;
glyphname = c_c;
lastChange = "2020-01-30 13:06:29 +0000";
layers = (
{
layerId = "E35B076F-D533-4C92-BAB9-D65BCB0F4FA2";
paths = (
{
closed = 1;
nodes = (
"227 10 OFFCURVE",
"257 49 OFFCURVE",
"304 77 CURVE",
"327 36 OFFCURVE",
"370 8 OFFCURVE",
"423 -10 CURVE",
"453 10 OFFCURVE",
"498 54 OFFCURVE",
"555 88 CURVE",
"547 118 LINE",
"434 70 OFFCURVE",
"380 108 OFFCURVE",
"380 229 CURVE SMOOTH",
"380 291 OFFCURVE",
"384 335 OFFCURVE",
"397 372 CURVE",
"428 366 OFFCURVE",
"460 347 OFFCURVE",
"494 328 CURVE",
"499 328 LINE",
"545 408 LINE",
"544 413 LINE",
"494 435 OFFCURVE",
"464 447 OFFCURVE",
"418 465 CURVE",
"295 361 LINE",
"283 303 OFFCURVE",
"283 231 OFFCURVE",
"283 161 CURVE SMOOTH",
"283 140 OFFCURVE",
"286 121 OFFCURVE",
"292 105 CURVE",
"228 70 OFFCURVE",
"118 86 OFFCURVE",
"118 196 CURVE SMOOTH",
"118 269 OFFCURVE",
"121 323 OFFCURVE",
"138 375 CURVE",
"167 373 OFFCURVE",
"205 358 OFFCURVE",
"239 345 CURVE",
"244 345 LINE",
"302 408 LINE",
"301 413 LINE",
"251 430 OFFCURVE",
"205 445 OFFCURVE",
"157 465 CURVE",
"35 373 LINE",
"25 317 OFFCURVE",
"21 143 OFFCURVE",
"32 81 CURVE",
"49 42 OFFCURVE",
"119 8 OFFCURVE",
"199 -10 CURVE"
);
}
);
width = 565;
}
);
leftMetricsKey = c;
rightMetricsKey = c;
},
{
color = 4;
glyphname = c_e;
lastChange = "2020-01-30 13:06:29 +0000";
layers = (
{
layerId = "E35B076F-D533-4C92-BAB9-D65BCB0F4FA2";
paths = (
{
closed = 1;
nodes = (
"563 374 OFFCURVE",
"524 443 OFFCURVE",
"439 464 CURVE",
"410 442 OFFCURVE",
"369 415 OFFCURVE",
"331 390 CURVE",
"281 413 OFFCURVE",
"212 449 OFFCURVE",
"170 465 CURVE",
"29 361 LINE",
"27 303 OFFCURVE",
"25 231 OFFCURVE",
"25 161 CURVE SMOOTH",
"25 69 OFFCURVE",
"83 18 OFFCURVE",
"165 -10 CURVE",
"194 9 OFFCURVE",
"236 50 OFFCURVE",
"289 83 CURVE",
"317 20 OFFCURVE",
"363 -10 OFFCURVE",
"394 -10 CURVE SMOOTH",
"429 -10 OFFCURVE",
"494 18 OFFCURVE",
"544 57 CURVE",
"534 87 LINE",
"451 51 OFFCURVE",
"393 81 OFFCURVE",
"368 149 CURVE",
"586 293 LINE",
"593 320 LINE"
);
},
{
closed = 1;
nodes = (
"356 199 OFFCURVE",
"355 215 OFFCURVE",
"355 232 CURVE SMOOTH",
"355 267 OFFCURVE",
"358 326 OFFCURVE",
"370 378 CURVE",
"424 375 OFFCURVE",
"489 332 OFFCURVE",
"492 299 CURVE SMOOTH",
"494 275 OFFCURVE",
"477 263 OFFCURVE",
"359 184 CURVE"
);
},
{
closed = 1;
nodes = (
"122 291 OFFCURVE",
"123 333 OFFCURVE",
"135 370 CURVE",
"164 364 OFFCURVE",
"234 341 OFFCURVE",
"270 305 CURVE",
"268 273 OFFCURVE",
"265 238 OFFCURVE",
"265 212 CURVE SMOOTH",
"265 174 OFFCURVE",
"270 141 OFFCURVE",
"278 114 CURVE",
"173 73 OFFCURVE",
"122 112 OFFCURVE",
"122 229 CURVE SMOOTH"
);
}
);
width = 603;
}
);
leftMetricsKey = c;
note = c_e;
rightMetricsKey = e;
},
{
color = 4;
glyphname = ce_e_macr;
lastChange = "2020-01-30 13:06:29 +0000";
layers = (
{
layerId = "E35B076F-D533-4C92-BAB9-D65BCB0F4FA2";
paths = (
{
closed = 1;
nodes = (
"481 588 LINE",
"533 665 LINE",
"531 671 LINE",
"266 653 LINE",
"233 624 OFFCURVE",
"190 575 OFFCURVE",
"169 539 CURVE",
"189 531 LINE",
"241 586 OFFCURVE",
"314 590 OFFCURVE",
"378 589 CURVE SMOOTH"
);
},
{
closed = 1;
nodes = (
"563 374 OFFCURVE",
"524 443 OFFCURVE",
"439 464 CURVE",
"410 442 OFFCURVE",
"369 415 OFFCURVE",
"331 390 CURVE",
"281 413 OFFCURVE",
"212 449 OFFCURVE",
"170 465 CURVE",
"29 361 LINE",
"27 303 OFFCURVE",
"25 231 OFFCURVE",
"25 161 CURVE SMOOTH",
"25 69 OFFCURVE",
"83 18 OFFCURVE",
"165 -10 CURVE",
"194 9 OFFCURVE",
"236 50 OFFCURVE",
"289 83 CURVE",
"317 20 OFFCURVE",
"363 -10 OFFCURVE",
"394 -10 CURVE SMOOTH",
"429 -10 OFFCURVE",
"494 18 OFFCURVE",
"544 57 CURVE",
"534 87 LINE",
"451 51 OFFCURVE",
"393 81 OFFCURVE",
"368 149 CURVE",
"586 293 LINE",
"593 320 LINE"
);
},
{
closed = 1;
nodes = (
"356 199 OFFCURVE",
"355 215 OFFCURVE",
"355 232 CURVE SMOOTH",
"355 267 OFFCURVE",
"358 326 OFFCURVE",
"370 378 CURVE",
"424 375 OFFCURVE",
"489 332 OFFCURVE",
"492 299 CURVE SMOOTH",
"494 275 OFFCURVE",
"477 263 OFFCURVE",
"359 184 CURVE"
);
},
{
closed = 1;
nodes = (
"122 291 OFFCURVE",
"123 333 OFFCURVE",
"135 370 CURVE",
"164 364 OFFCURVE",
"234 341 OFFCURVE",
"270 305 CURVE",
"268 273 OFFCURVE",
"265 238 OFFCURVE",
"265 212 CURVE SMOOTH",
"265 174 OFFCURVE",
"270 141 OFFCURVE",
"278 114 CURVE",
"173 73 OFFCURVE",
"122 112 OFFCURVE",
"122 229 CURVE SMOOTH"
);
}
);
width = 593;
}
);
},
{
color = 4;
glyphname = c_i;
lastChange = "2020-01-30 13:06:29 +0000";
layers = (
{
layerId = "E35B076F-D533-4C92-BAB9-D65BCB0F4FA2";
paths = (
{
closed = 1;
nodes = (
"409 630 LINE",
"356 650 LINE",
"284 538 LINE",
"300 522 LINE"
);
},
{
closed = 1;
nodes = (
"225 8 OFFCURVE",
"252 42 OFFCURVE",
"292 70 CURVE",
"302 48 OFFCURVE",
"343 -10 OFFCURVE",
"352 -10 CURVE SMOOTH",
"354 -10 LINE",
"439 40 LINE",
"439 70 LINE",
"417 70 OFFCURVE",
"399 91 OFFCURVE",
"397 105 CURVE SMOOTH",
"393 132 OFFCURVE",
"390 330 OFFCURVE",
"412 452 CURVE",
"391 465 LINE",
"291 419 LINE",
"291 387 LINE",
"245 405 OFFCURVE",
"202 438 OFFCURVE",
"157 465 CURVE",
"35 353 LINE",
"25 297 OFFCURVE",
"21 143 OFFCURVE",
"32 81 CURVE",
"49 42 OFFCURVE",
"119 8 OFFCURVE",
"199 -10 CURVE"
);
},
{
closed = 1;
nodes = (
"227 71 OFFCURVE",
"122 88 OFFCURVE",
"118 178 CURVE SMOOTH",
"115 251 OFFCURVE",
"118 323 OFFCURVE",
"131 365 CURVE",
"159 353 OFFCURVE",
"196 339 OFFCURVE",
"230 316 CURVE",
"235 316 LINE",
"291 361 LINE",
"290 104 LINE"
);
}
);
width = 464;
}
);
leftMetricsKey = c;
note = c_i;
rightMetricsKey = i;
},
{
color = 4;
glyphname = c_h;
lastChange = "2020-01-30 13:06:29 +0000";
layers = (
{
layerId = "E35B076F-D533-4C92-BAB9-D65BCB0F4FA2";
paths = (
{
closed = 1;
nodes = (
"433 -198 LINE",
"494 -79 OFFCURVE",
"694 145 OFFCURVE",
"694 281 CURVE SMOOTH",
"694 381 OFFCURVE",
"639 431 OFFCURVE",
"519 465 CURVE",
"470 429 OFFCURVE",
"430 409 OFFCURVE",
"382 378 CURVE",
"382 490 OFFCURVE",
"385 588 OFFCURVE",
"397 700 CURVE",
"375 715 LINE",
"195 635 LINE",
"195 609 LINE",
"238 606 OFFCURVE",
"280 604 OFFCURVE",
"281 571 CURVE SMOOTH",
"283 529 OFFCURVE",
"282 476 OFFCURVE",
"282 419 CURVE",
"238 437 OFFCURVE",
"202 449 OFFCURVE",
"160 465 CURVE",
"37 361 LINE",
"25 303 OFFCURVE",
"25 231 OFFCURVE",
"25 191 CURVE SMOOTH",
"25 69 OFFCURVE",
"83 18 OFFCURVE",
"165 -10 CURVE",
"192 8 OFFCURVE",
"231 45 OFFCURVE",
"280 78 CURVE",
"280 53 OFFCURVE",
"279 27 OFFCURVE",
"279 0 CURVE",
"389 0 LINE",
"383 337 LINE",
"408 357 OFFCURVE",
"434 369 OFFCURVE",
"470 369 CURVE SMOOTH",
"538 369 OFFCURVE",
"607 310 OFFCURVE",
"607 220 CURVE SMOOTH",
"607 110 OFFCURVE",
"518 -18 OFFCURVE",
"417 -103 CURVE",
"404 -198 LINE"
);
},
{
closed = 1;
nodes = (
"173 72 OFFCURVE",
"122 121 OFFCURVE",
"122 259 CURVE SMOOTH",
"122 301 OFFCURVE",
"126 335 OFFCURVE",
"139 372 CURVE",
"170 366 OFFCURVE",
"192 358 OFFCURVE",
"226 346 CURVE",
"231 346 LINE",
"282 394 LINE",
"282 376 LINE SMOOTH",
"282 305 OFFCURVE",
"282 223 OFFCURVE",
"281 115 CURVE"
);
}
);
width = 729;
}
);
leftMetricsKey = c;
note = c_h;
rightMetricsKey = h;
},
{
color = 4;
glyphname = c_k;
lastChange = "2020-01-30 13:06:29 +0000";
layers = (
{
layerId = "E35B076F-D533-4C92-BAB9-D65BCB0F4FA2";
paths = (
{
closed = 1;
nodes = (
"590 236 OFFCURVE",
"558 260 OFFCURVE",
"533 288 CURVE",
"568 323 OFFCURVE",
"598 355 OFFCURVE",
"618 375 CURVE",
"585 398 OFFCURVE",
"507 451 OFFCURVE",
"482 466 CURVE",
"369 371 LINE",
"370 483 OFFCURVE",
"372 597 OFFCURVE",
"373 710 CURVE",
"240 690 LINE",
"240 664 LINE",
"267 656 OFFCURVE",
"273 650 OFFCURVE",
"273 590 CURVE SMOOTH",
"273 540 OFFCURVE",
"273 483 OFFCURVE",
"274 422 CURVE",
"234 439 OFFCURVE",
"199 450 OFFCURVE",
"160 465 CURVE",
"37 361 LINE",
"25 303 OFFCURVE",
"25 231 OFFCURVE",
"25 191 CURVE SMOOTH",
"25 69 OFFCURVE",
"83 18 OFFCURVE",
"165 -10 CURVE",
"191 7 OFFCURVE",
"227 41 OFFCURVE",
"272 72 CURVE",
"272 48 OFFCURVE",
"271 24 OFFCURVE",
"270 0 CURVE",
"376 0 LINE",
"374 44 OFFCURVE",
"372 89 OFFCURVE",
"371 134 CURVE",
"404 162 OFFCURVE",
"437 193 OFFCURVE",
"469 224 CURVE",
"519 168 OFFCURVE",
"509 109 OFFCURVE",
"506 0 CURVE",
"627 0 LINE",
"627 30 LINE",
"600 47 OFFCURVE",
"604 87 OFFCURVE",
"593 208 CURVE SMOOTH"
);
},
{
closed = 1;
nodes = (
"122 301 OFFCURVE",
"126 335 OFFCURVE",
"139 372 CURVE",
"170 366 OFFCURVE",
"192 358 OFFCURVE",
"226 346 CURVE",
"231 346 LINE",
"274 387 LINE",
"275 297 OFFCURVE",
"275 202 OFFCURVE",
"273 112 CURVE",
"171 75 OFFCURVE",
"122 125 OFFCURVE",
"122 259 CURVE SMOOTH"
);
},
{
closed = 1;
nodes = (
"369 224 OFFCURVE",
"369 271 OFFCURVE",
"369 319 CURVE",
"390 353 OFFCURVE",
"412 372 OFFCURVE",
"433 382 CURVE",
"441 382 OFFCURVE",
"510 346 OFFCURVE",
"517 324 CURVE",
"476 265 OFFCURVE",
"414 212 OFFCURVE",
"370 177 CURVE"
);
}
);
width = 657;
}
);
leftMetricsKey = c;
note = c_k;
rightMetricsKey = k;
},
{
color = 4;
glyphname = c_o;
lastChange = "2020-01-30 13:06:29 +0000";
layers = (
{
layerId = "E35B076F-D533-4C92-BAB9-D65BCB0F4FA2";
paths = (
{
closed = 1;
nodes = (
"194 9 OFFCURVE",
"236 50 OFFCURVE",
"289 83 CURVE",
"321 45 OFFCURVE",
"394 -3 OFFCURVE",
"484 -10 CURVE",
"542 10 OFFCURVE",
"670 108 OFFCURVE",
"670 258 CURVE SMOOTH",
"670 358 OFFCURVE",
"583 465 OFFCURVE",
"455 465 CURVE",
"405 438 OFFCURVE",
"368 416 OFFCURVE",
"333 389 CURVE",
"283 412 OFFCURVE",
"212 448 OFFCURVE",
"170 465 CURVE",
"29 361 LINE",
"27 303 OFFCURVE",
"25 231 OFFCURVE",
"25 161 CURVE SMOOTH",
"25 69 OFFCURVE",
"83 18 OFFCURVE",
"165 -10 CURVE"
);
},
{
closed = 1;
nodes = (
"426 92 OFFCURVE",
"345 161 OFFCURVE",
"345 261 CURVE SMOOTH",
"345 310 OFFCURVE",
"362 354 OFFCURVE",
"391 370 CURVE",
"491 383 OFFCURVE",
"600 307 OFFCURVE",
"600 207 CURVE SMOOTH",
"600 167 OFFCURVE",
"586 113 OFFCURVE",
"545 93 CURVE"
);
},
{
closed = 1;
nodes = (
"172 73 OFFCURVE",
"122 113 OFFCURVE",
"122 229 CURVE SMOOTH",
"122 291 OFFCURVE",
"123 333 OFFCURVE",
"135 370 CURVE",
"164 364 OFFCURVE",
"231 342 OFFCURVE",
"267 307 CURVE",
"256 242 OFFCURVE",
"259 177 OFFCURVE",
"276 113 CURVE"
);
}
);
width = 695;
}
);
leftMetricsKey = c;
note = c_o;
rightMetricsKey = o;
},
{
color = 4;
glyphname = c_o_macr;
lastChange = "2020-01-30 13:06:29 +0000";
layers = (
{
layerId = "E35B076F-D533-4C92-BAB9-D65BCB0F4FA2";
paths = (
{
closed = 1;
nodes = (
"441 582 OFFCURVE",
"507 583 OFFCURVE",
"581 576 CURVE SMOOTH",
"676 567 LINE",
"712 642 LINE",
"711 648 LINE",
"456 649 LINE",
"421 623 OFFCURVE",
"401 587 OFFCURVE",
"377 553 CURVE",
"406 544 LINE"
);
},
{
closed = 1;
nodes = (
"194 9 OFFCURVE",
"236 50 OFFCURVE",
"289 83 CURVE",
"321 45 OFFCURVE",
"394 -3 OFFCURVE",
"484 -10 CURVE",
"542 10 OFFCURVE",
"670 108 OFFCURVE",
"670 258 CURVE SMOOTH",
"670 358 OFFCURVE",
"583 465 OFFCURVE",
"455 465 CURVE",
"405 438 OFFCURVE",
"368 416 OFFCURVE",
"333 389 CURVE",
"283 412 OFFCURVE",
"212 448 OFFCURVE",
"170 465 CURVE",
"29 361 LINE",
"27 303 OFFCURVE",
"25 231 OFFCURVE",
"25 161 CURVE SMOOTH",
"25 69 OFFCURVE",
"83 18 OFFCURVE",
"165 -10 CURVE"
);
},
{
closed = 1;
nodes = (
"426 92 OFFCURVE",
"345 161 OFFCURVE",
"345 261 CURVE SMOOTH",
"345 310 OFFCURVE",
"362 354 OFFCURVE",
"391 370 CURVE",
"491 383 OFFCURVE",
"600 307 OFFCURVE",
"600 207 CURVE SMOOTH",
"600 167 OFFCURVE",
"586 113 OFFCURVE",
"545 93 CURVE"
);
},
{
closed = 1;
nodes = (
"172 73 OFFCURVE",
"122 113 OFFCURVE",
"122 229 CURVE SMOOTH",
"122 291 OFFCURVE",
"123 333 OFFCURVE",
"135 370 CURVE",
"164 364 OFFCURVE",
"231 342 OFFCURVE",
"267 307 CURVE",
"256 242 OFFCURVE",
"259 177 OFFCURVE",
"276 113 CURVE"
);
}
);
width = 692;
}
);
leftMetricsKey = c;
note = c_omacr;
},
{
color = 4;
glyphname = c_t;
lastChange = "2020-01-30 13:06:29 +0000";
layers = (
{
layerId = "E35B076F-D533-4C92-BAB9-D65BCB0F4FA2";
paths = (
{
closed = 1;
nodes = (
"182 8 OFFCURVE",
"221 39 OFFCURVE",
"269 69 CURVE",
"283 38 OFFCURVE",
"337 -10 OFFCURVE",
"363 -10 CURVE SMOOTH",
"383 -10 OFFCURVE",
"490 42 OFFCURVE",
"539 72 CURVE",
"537 101 LINE",
"419 84 OFFCURVE",
"373 102 OFFCURVE",
"366 164 CURVE SMOOTH",
"360 218 OFFCURVE",
"360 296 OFFCURVE",
"362 371 CURVE",
"506 371 LINE",
"515 455 LINE",
"365 455 LINE",
"368 517 OFFCURVE",
"371 568 OFFCURVE",
"371 590 CURVE SMOOTH",
"371 670 OFFCURVE",
"309 715 OFFCURVE",
"259 715 CURVE SMOOTH",
"218 715 OFFCURVE",
"124 693 OFFCURVE",
"48 672 CURVE",
"52 642 LINE",
"203 665 OFFCURVE",
"278 650 OFFCURVE",
"278 585 CURVE SMOOTH",
"278 547 OFFCURVE",
"275 483 OFFCURVE",
"272 415 CURVE",
"224 436 OFFCURVE",
"195 448 OFFCURVE",
"150 465 CURVE",
"37 361 LINE",
"25 303 OFFCURVE",
"25 231 OFFCURVE",
"25 161 CURVE SMOOTH",
"25 69 OFFCURVE",
"73 18 OFFCURVE",
"155 -10 CURVE"
);
},
{
closed = 1;
nodes = (
"162 65 OFFCURVE",
"112 105 OFFCURVE",
"112 221 CURVE SMOOTH",
"112 283 OFFCURVE",
"116 335 OFFCURVE",
"129 372 CURVE",
"157 367 OFFCURVE",
"186 351 OFFCURVE",
"216 334 CURVE",
"271 401 LINE",
"268 343 OFFCURVE",
"266 284 OFFCURVE",
"266 235 CURVE SMOOTH",
"266 105 LINE"
);
}
);
width = 549;
}
);
leftMetricsKey = c;
note = c_t;
rightMetricsKey = t;
unicode = EEC5;
},
{
color = 4;
glyphname = c_t_i;
lastChange = "2020-01-30 13:06:29 +0000";
layers = (
{
layerId = "E35B076F-D533-4C92-BAB9-D65BCB0F4FA2";
paths = (
{
closed = 1;
nodes = (
"220 8 OFFCURVE",
"275 48 OFFCURVE",
"322 77 CURVE",
"357 38 OFFCURVE",
"390 13 OFFCURVE",
"425 -10 CURVE",
"481 20 OFFCURVE",
"525 57 OFFCURVE",
"571 80 CURVE",
"571 0 LINE",
"593 -10 LINE",
"595 -10 LINE",
"672 60 LINE",
"672 474 LINE",
"671 475 LINE",
"653 480 LINE",
"616 455 LINE",
"420 455 LINE",
"422 483 OFFCURVE",
"423 505 OFFCURVE",
"423 520 CURVE SMOOTH",
"423 638 OFFCURVE",
"361 715 OFFCURVE",
"271 715 CURVE SMOOTH",
"160 715 OFFCURVE",
"101 668 OFFCURVE",
"25 618 CURVE",
"36 592 LINE",
"103 633 OFFCURVE",
"164 644 OFFCURVE",
"216 644 CURVE SMOOTH",
"292 644 OFFCURVE",
"330 599 OFFCURVE",
"330 525 CURVE SMOOTH",
"330 494 OFFCURVE",
"328 457 OFFCURVE",
"325 417 CURVE",
"278 431 OFFCURVE",
"227 449 OFFCURVE",
"183 465 CURVE",
"59 383 LINE",
"49 327 OFFCURVE",
"45 163 OFFCURVE",
"56 101 CURVE",
"73 62 OFFCURVE",
"115 8 OFFCURVE",
"195 -10 CURVE"
);
},
{
closed = 1;
nodes = (
"228 64 OFFCURVE",
"155 117 OFFCURVE",
"145 171 CURVE SMOOTH",
"133 237 OFFCURVE",
"137 323 OFFCURVE",
"153 365 CURVE",
"184 365 OFFCURVE",
"227 354 OFFCURVE",
"258 335 CURVE",
"263 335 LINE",
"324 394 LINE",
"321 348 OFFCURVE",
"318 297 OFFCURVE",
"318 243 CURVE SMOOTH",
"318 113 LINE"
);
},
{
closed = 1;
nodes = (
"480 71 OFFCURVE",
"424 107 OFFCURVE",
"418 164 CURVE SMOOTH",
"411 227 OFFCURVE",
"412 303 OFFCURVE",
"415 371 CURVE",
"572 371 LINE",
"571 116 LINE"
);
}
);
width = 697;
}
);
leftMetricsKey = c;
note = c_t_i;
rightMetricsKey = i;
},
{
color = 4;
glyphname = c_u;
lastChange = "2020-02-10 15:51:10 +0000";
layers = (
{
layerId = "E35B076F-D533-4C92-BAB9-D65BCB0F4FA2";
paths = (
{
closed = 1;
nodes = (
"206 9 OFFCURVE",
"268 62 OFFCURVE",
"318 94 CURVE",
"348 70 OFFCURVE",
"393 16 OFFCURVE",
"421 -10 CURVE",
"547 84 LINE",
"546 53 OFFCURVE",
"546 32 OFFCURVE",
"546 32 CURVE",
"600 -10 LINE",
"683 50 LINE",
"678 83 LINE",
"644 83 OFFCURVE",
"644 99 OFFCURVE",
"642 158 CURVE SMOOTH",
"640 223 OFFCURVE",
"640 342 OFFCURVE",
"655 407 CURVE",
"634 424 OFFCURVE",
"608 451 OFFCURVE",
"588 465 CURVE",
"586 465 LINE",
"509 405 LINE",
"510 389 LINE",
"530 377 OFFCURVE",
"550 362 OFFCURVE",
"550 309 CURVE SMOOTH",
"550 266 OFFCURVE",
"549 189 OFFCURVE",
"548 127 CURVE",
"527 110 OFFCURVE",
"502 99 OFFCURVE",
"486 93 CURVE",
"435 119 OFFCURVE",
"406 146 OFFCURVE",
"406 215 CURVE SMOOTH",
"406 313 OFFCURVE",
"406 397 OFFCURVE",
"413 455 CURVE",
"393 465 LINE",
"296 438 LINE",
"298 431 OFFCURVE",
"300 422 OFFCURVE",
"302 412 CURVE",
"256 428 OFFCURVE",
"210 443 OFFCURVE",
"167 465 CURVE",
"35 383 LINE",
"25 327 OFFCURVE",
"21 163 OFFCURVE",
"32 101 CURVE",
"49 62 OFFCURVE",
"99 8 OFFCURVE",
"179 -10 CURVE"
);
},
{
closed = 1;
nodes = (
"215 72 OFFCURVE",
"139 124 OFFCURVE",
"129 179 CURVE SMOOTH",
"117 245 OFFCURVE",
"121 323 OFFCURVE",
"137 365 CURVE",
"168 365 OFFCURVE",
"211 354 OFFCURVE",
"242 335 CURVE",
"247 335 LINE",
"305 384 LINE",
"312 317 OFFCURVE",
"313 212 OFFCURVE",
"308 126 CURVE"
);
}
);
width = 703;
}
);
leftMetricsKey = c;
note = c_u;
rightMetricsKey = u;
},
{
color = 4;
glyphname = c_u_macr;
lastChange = "2020-02-10 15:41:09 +0000";
layers = (
{
layerId = "E35B076F-D533-4C92-BAB9-D65BCB0F4FA2";
paths = (
{
closed = 1;
nodes = (
"368 544 OFFCURVE",
"452 557 OFFCURVE",
"516 561 CURVE SMOOTH",
"649 569 LINE",
"675 648 LINE",
"673 654 LINE",
"400 617 LINE",
"369 586 OFFCURVE",
"337 545 OFFCURVE",
"318 508 CURVE",
"339 501 LINE"
);
},
{
closed = 1;
nodes = (
"206 9 OFFCURVE",
"268 62 OFFCURVE",
"318 94 CURVE",
"348 70 OFFCURVE",
"393 16 OFFCURVE",
"421 -10 CURVE",
"547 84 LINE",
"546 53 OFFCURVE",
"546 32 OFFCURVE",
"546 32 CURVE",
"600 -10 LINE",
"683 50 LINE",
"678 83 LINE",
"644 83 OFFCURVE",
"644 99 OFFCURVE",
"642 158 CURVE SMOOTH",
"640 223 OFFCURVE",
"640 342 OFFCURVE",
"655 407 CURVE",
"634 424 OFFCURVE",
"608 451 OFFCURVE",
"588 465 CURVE",
"586 465 LINE",
"509 405 LINE",
"510 389 LINE",
"530 377 OFFCURVE",
"550 362 OFFCURVE",
"550 309 CURVE SMOOTH",
"550 266 OFFCURVE",
"549 189 OFFCURVE",
"548 127 CURVE",
"527 110 OFFCURVE",
"502 99 OFFCURVE",
"486 93 CURVE",
"435 119 OFFCURVE",
"406 146 OFFCURVE",
"406 215 CURVE SMOOTH",
"406 313 OFFCURVE",
"406 397 OFFCURVE",
"413 455 CURVE",
"393 465 LINE",
"296 438 LINE",
"298 431 OFFCURVE",
"300 422 OFFCURVE",
"302 412 CURVE",
"256 428 OFFCURVE",
"210 443 OFFCURVE",
"167 465 CURVE",
"35 383 LINE",
"25 327 OFFCURVE",
"21 163 OFFCURVE",
"32 101 CURVE",
"49 62 OFFCURVE",
"99 8 OFFCURVE",
"179 -10 CURVE"
);
},
{
closed = 1;
nodes = (
"215 72 OFFCURVE",
"139 124 OFFCURVE",
"129 179 CURVE SMOOTH",
"117 245 OFFCURVE",
"121 323 OFFCURVE",
"137 365 CURVE",
"168 365 OFFCURVE",
"211 354 OFFCURVE",
"242 335 CURVE",
"247 335 LINE",
"305 384 LINE",
"312 317 OFFCURVE",
"313 212 OFFCURVE",
"308 126 CURVE"
);
}
);
width = 703;
}
);
leftMetricsKey = c;
note = c_umacr;
rightMetricsKey = u;
},
{
color = 4;
glyphname = d;
lastChange = "2020-02-10 15:41:19 +0000";
layers = (
{
layerId = "E35B076F-D533-4C92-BAB9-D65BCB0F4FA2";
paths = (
{
closed = 1;
nodes = (
"347 40 OFFCURVE",
"479 138 OFFCURVE",
"479 248 CURVE SMOOTH",
"479 390 OFFCURVE",
"383 442 OFFCURVE",
"259 461 CURVE SMOOTH",
"167 475 OFFCURVE",
"94 532 OFFCURVE",
"68 570 CURVE",
"50 571 LINE",
"5 479 LINE",
"51 446 OFFCURVE",
"114 408 OFFCURVE",
"161 383 CURVE",
"117 336 OFFCURVE",
"45 247 OFFCURVE",
"45 238 CURVE SMOOTH",
"45 88 OFFCURVE",
"157 -10 OFFCURVE",
"287 -10 CURVE"
);
},
{
closed = 1;
nodes = (
"217 90 OFFCURVE",
"130 149 OFFCURVE",
"130 245 CURVE SMOOTH",
"130 297 OFFCURVE",
"166 341 OFFCURVE",
"204 370 CURVE",
"328 373 OFFCURVE",
"410 301 OFFCURVE",
"410 207 CURVE SMOOTH",
"410 142 OFFCURVE",
"354 90 OFFCURVE",
"295 90 CURVE SMOOTH"
);
}
);
width = 504;
}
);
note = d;
unicode = 0064;
},
{
color = 4;
glyphname = d_strok;
lastChange = "2020-02-10 15:41:22 +0000";
layers = (
{
layerId = "E35B076F-D533-4C92-BAB9-D65BCB0F4FA2";
paths = (
{
closed = 1;
nodes = (
"331 570 OFFCURVE",
"373 597 OFFCURVE",
"401 642 CURVE",
"391 681 OFFCURVE",
"329 709 OFFCURVE",
"276 708 CURVE",
"221 670 LINE",
"223 657 LINE",
"264 650 OFFCURVE",
"308 626 OFFCURVE",
"308 600 CURVE SMOOTH",
"308 588 OFFCURVE",
"280 556 OFFCURVE",
"264 549 CURVE",
"291 530 LINE"
);
},
{
closed = 1;
nodes = (
"347 40 OFFCURVE",
"479 138 OFFCURVE",
"479 248 CURVE SMOOTH",
"479 390 OFFCURVE",
"383 442 OFFCURVE",
"259 461 CURVE SMOOTH",
"167 475 OFFCURVE",
"94 532 OFFCURVE",
"68 570 CURVE",
"50 571 LINE",
"5 479 LINE",
"51 446 OFFCURVE",
"114 408 OFFCURVE",
"161 383 CURVE",
"117 336 OFFCURVE",
"45 247 OFFCURVE",
"45 238 CURVE SMOOTH",
"45 88 OFFCURVE",
"157 -10 OFFCURVE",
"287 -10 CURVE"
);
},
{
closed = 1;
nodes = (
"217 90 OFFCURVE",
"130 149 OFFCURVE",
"130 245 CURVE SMOOTH",
"130 297 OFFCURVE",
"166 341 OFFCURVE",
"204 370 CURVE",
"328 373 OFFCURVE",
"410 301 OFFCURVE",
"410 207 CURVE SMOOTH",
"410 142 OFFCURVE",
"354 90 OFFCURVE",
"295 90 CURVE SMOOTH"
);
}
);
width = 504;
}
);
leftMetricsKey = d;
note = d_apomod;
rightMetricsKey = d;
},
{
color = 4;
glyphname = d_e;
lastChange = "2020-02-10 15:41:24 +0000";
layers = (
{
layerId = "E35B076F-D533-4C92-BAB9-D65BCB0F4FA2";
paths = (
{
closed = 1;
nodes = (
"714 374 OFFCURVE",
"675 443 OFFCURVE",
"590 464 CURVE",
"552 435 OFFCURVE",
"491 397 OFFCURVE",
"447 366 CURVE",
"409 422 OFFCURVE",
"340 449 OFFCURVE",
"259 461 CURVE SMOOTH",
"167 475 OFFCURVE",
"94 532 OFFCURVE",
"68 570 CURVE",
"50 571 LINE",
"5 479 LINE",
"51 446 OFFCURVE",
"114 408 OFFCURVE",
"161 383 CURVE",
"117 336 OFFCURVE",
"45 247 OFFCURVE",
"45 238 CURVE SMOOTH",
"45 88 OFFCURVE",
"157 -10 OFFCURVE",
"287 -10 CURVE",
"323 20 OFFCURVE",
"383 66 OFFCURVE",
"427 122 CURVE",
"451 32 OFFCURVE",
"509 -10 OFFCURVE",
"545 -10 CURVE SMOOTH",
"580 -10 OFFCURVE",
"645 18 OFFCURVE",
"695 57 CURVE",
"685 87 LINE",
"602 51 OFFCURVE",
"544 81 OFFCURVE",
"519 149 CURVE",
"737 293 LINE",
"744 320 LINE"
);
},
{
closed = 1;
nodes = (
"507 199 OFFCURVE",
"506 215 OFFCURVE",
"506 232 CURVE SMOOTH",
"506 267 OFFCURVE",
"509 326 OFFCURVE",
"521 378 CURVE",
"575 375 OFFCURVE",
"640 332 OFFCURVE",
"643 299 CURVE SMOOTH",
"645 275 OFFCURVE",
"628 263 OFFCURVE",
"510 184 CURVE"
);
},
{
closed = 1;
nodes = (
"217 90 OFFCURVE",
"130 149 OFFCURVE",
"130 245 CURVE SMOOTH",
"130 297 OFFCURVE",
"166 341 OFFCURVE",
"204 370 CURVE",
"328 373 OFFCURVE",
"410 301 OFFCURVE",
"410 207 CURVE SMOOTH",
"410 142 OFFCURVE",
"354 90 OFFCURVE",
"295 90 CURVE SMOOTH"
);
}
);
width = 754;
}
);
leftMetricsKey = d;
note = d_e;
rightMetricsKey = e;
},
{
color = 4;
glyphname = d_e_hook;
lastChange = "2020-02-10 15:41:27 +0000";
layers = (
{
layerId = "E35B076F-D533-4C92-BAB9-D65BCB0F4FA2";
paths = (
{
closed = 1;
nodes = (
"389 545 OFFCURVE",
"353 522 OFFCURVE",
"325 513 CURVE",
"333 487 LINE",
"417 506 OFFCURVE",
"489 561 OFFCURVE",
"489 623 CURVE SMOOTH",
"489 673 OFFCURVE",
"439 715 OFFCURVE",
"388 715 CURVE",
"315 629 LINE",
"318 624 LINE",
"357 619 OFFCURVE",
"389 600 OFFCURVE",
"389 575 CURVE SMOOTH"
);
},
{
closed = 1;
nodes = (
"714 374 OFFCURVE",
"675 443 OFFCURVE",
"590 464 CURVE",
"552 435 OFFCURVE",
"491 397 OFFCURVE",
"447 366 CURVE",
"409 422 OFFCURVE",
"340 449 OFFCURVE",
"259 461 CURVE SMOOTH",
"167 475 OFFCURVE",
"94 532 OFFCURVE",
"68 570 CURVE",
"50 571 LINE",
"5 479 LINE",
"51 446 OFFCURVE",
"114 408 OFFCURVE",
"161 383 CURVE",
"117 336 OFFCURVE",
"45 247 OFFCURVE",
"45 238 CURVE SMOOTH",
"45 88 OFFCURVE",
"157 -10 OFFCURVE",
"287 -10 CURVE",
"323 20 OFFCURVE",
"383 66 OFFCURVE",
"427 122 CURVE",
"451 32 OFFCURVE",
"509 -10 OFFCURVE",
"545 -10 CURVE SMOOTH",
"580 -10 OFFCURVE",
"645 18 OFFCURVE",
"695 57 CURVE",
"685 87 LINE",
"602 51 OFFCURVE",
"544 81 OFFCURVE",
"519 149 CURVE",
"737 293 LINE",
"744 320 LINE"
);
},
{
closed = 1;
nodes = (
"507 199 OFFCURVE",
"506 215 OFFCURVE",
"506 232 CURVE SMOOTH",
"506 267 OFFCURVE",
"509 326 OFFCURVE",
"521 378 CURVE",
"575 375 OFFCURVE",
"640 332 OFFCURVE",
"643 299 CURVE SMOOTH",
"645 275 OFFCURVE",
"628 263 OFFCURVE",
"510 184 CURVE"
);
},
{
closed = 1;
nodes = (
"217 90 OFFCURVE",
"130 149 OFFCURVE",
"130 245 CURVE SMOOTH",
"130 297 OFFCURVE",
"166 341 OFFCURVE",
"204 370 CURVE",
"328 373 OFFCURVE",
"410 301 OFFCURVE",
"410 207 CURVE SMOOTH",
"410 142 OFFCURVE",
"354 90 OFFCURVE",
"295 90 CURVE SMOOTH"
);
}
);
width = 754;
}
);
leftMetricsKey = d;
note = d_eapomod;
rightMetricsKey = e;
},
{
color = 4;
glyphname = d_e_macr;
lastChange = "2020-02-10 15:41:28 +0000";
layers = (
{
layerId = "E35B076F-D533-4C92-BAB9-D65BCB0F4FA2";
paths = (
{
closed = 1;
nodes = (
"569 546 OFFCURVE",
"604 545 OFFCURVE",
"648 541 CURVE",
"684 619 LINE",
"682 625 LINE",
"429 619 LINE",
"398 588 OFFCURVE",
"346 535 OFFCURVE",
"327 498 CURVE",
"348 491 LINE",
"397 534 OFFCURVE",
"461 548 OFFCURVE",
"525 547 CURVE SMOOTH"
);
},
{
closed = 1;
nodes = (
"714 374 OFFCURVE",
"675 443 OFFCURVE",
"590 464 CURVE",
"552 435 OFFCURVE",
"491 397 OFFCURVE",
"447 366 CURVE",
"409 422 OFFCURVE",
"340 449 OFFCURVE",
"259 461 CURVE SMOOTH",
"167 475 OFFCURVE",
"94 532 OFFCURVE",
"68 570 CURVE",
"50 571 LINE",
"5 479 LINE",
"51 446 OFFCURVE",
"114 408 OFFCURVE",
"161 383 CURVE",
"117 336 OFFCURVE",
"45 247 OFFCURVE",
"45 238 CURVE SMOOTH",
"45 88 OFFCURVE",
"157 -10 OFFCURVE",
"287 -10 CURVE",
"323 20 OFFCURVE",
"383 66 OFFCURVE",
"427 122 CURVE",
"451 32 OFFCURVE",
"509 -10 OFFCURVE",
"545 -10 CURVE SMOOTH",
"580 -10 OFFCURVE",
"645 18 OFFCURVE",
"695 57 CURVE",
"685 87 LINE",
"602 51 OFFCURVE",
"544 81 OFFCURVE",
"519 149 CURVE",
"737 293 LINE",
"744 320 LINE"
);
},
{
closed = 1;
nodes = (
"507 199 OFFCURVE",
"506 215 OFFCURVE",
"506 232 CURVE SMOOTH",
"506 267 OFFCURVE",
"509 326 OFFCURVE",
"521 378 CURVE",
"575 375 OFFCURVE",
"640 332 OFFCURVE",
"643 299 CURVE SMOOTH",
"645 275 OFFCURVE",
"628 263 OFFCURVE",
"510 184 CURVE"
);
},
{
closed = 1;
nodes = (
"217 90 OFFCURVE",
"130 149 OFFCURVE",
"130 245 CURVE SMOOTH",
"130 297 OFFCURVE",
"166 341 OFFCURVE",
"204 370 CURVE",
"328 373 OFFCURVE",
"410 301 OFFCURVE",
"410 207 CURVE SMOOTH",
"410 142 OFFCURVE",
"354 90 OFFCURVE",
"295 90 CURVE SMOOTH"
);
}
);
width = 754;
}
);
leftMetricsKey = d;
note = d_emacr;
rightMetricsKey = e;
},
{
color = 4;
glyphname = d_o;
lastChange = "2020-02-10 15:41:31 +0000";
layers = (
{
layerId = "E35B076F-D533-4C92-BAB9-D65BCB0F4FA2";
paths = (
{
closed = 1;
nodes = (
"561 450 OFFCURVE",
"500 402 OFFCURVE",
"461 342 CURVE",
"427 415 OFFCURVE",
"351 447 OFFCURVE",
"259 461 CURVE SMOOTH",
"167 475 OFFCURVE",
"94 532 OFFCURVE",
"68 570 CURVE",
"50 571 LINE",
"5 479 LINE",
"51 446 OFFCURVE",
"114 408 OFFCURVE",
"161 383 CURVE",
"117 336 OFFCURVE",
"45 247 OFFCURVE",
"45 238 CURVE SMOOTH",
"45 88 OFFCURVE",
"157 -10 OFFCURVE",
"287 -10 CURVE",
"325 22 OFFCURVE",
"392 73 OFFCURVE",
"436 134 CURVE",
"466 58 OFFCURVE",
"541 -2 OFFCURVE",
"660 -10 CURVE",
"749 68 OFFCURVE",
"846 108 OFFCURVE",
"846 258 CURVE SMOOTH",
"846 358 OFFCURVE",
"759 465 OFFCURVE",
"621 465 CURVE"
);
},
{
closed = 1;
nodes = (
"590 82 OFFCURVE",
"501 161 OFFCURVE",
"501 271 CURVE SMOOTH",
"501 310 OFFCURVE",
"518 362 OFFCURVE",
"553 380 CURVE",
"667 393 OFFCURVE",
"766 307 OFFCURVE",
"766 217 CURVE SMOOTH",
"766 157 OFFCURVE",
"742 112 OFFCURVE",
"701 83 CURVE"
);
},
{
closed = 1;
nodes = (
"217 90 OFFCURVE",
"130 149 OFFCURVE",
"130 245 CURVE SMOOTH",
"130 297 OFFCURVE",
"166 341 OFFCURVE",
"204 370 CURVE",
"328 373 OFFCURVE",
"410 301 OFFCURVE",
"410 207 CURVE SMOOTH",
"410 142 OFFCURVE",
"354 90 OFFCURVE",
"295 90 CURVE SMOOTH"
);
}
);
width = 871;
}
);
leftMetricsKey = d;
rightMetricsKey = o;
},
{
color = 4;
glyphname = e;
lastChange = "2020-01-30 13:06:29 +0000";
layers = (
{
layerId = "E35B076F-D533-4C92-BAB9-D65BCB0F4FA2";
paths = (
{
closed = 1;
nodes = (
"194 -10 OFFCURVE",
"259 18 OFFCURVE",
"309 57 CURVE",
"299 87 LINE",
"216 51 OFFCURVE",
"158 81 OFFCURVE",
"133 149 CURVE",
"351 293 LINE",
"358 320 LINE",
"328 374 OFFCURVE",
"289 443 OFFCURVE",
"204 464 CURVE",
"159 430 OFFCURVE",
"82 382 OFFCURVE",
"38 350 CURVE",
"36 312 OFFCURVE",
"30 252 OFFCURVE",
"30 212 CURVE SMOOTH",
"30 59 OFFCURVE",
"112 -10 OFFCURVE",
"159 -10 CURVE SMOOTH"
);
},
{
closed = 1;
nodes = (
"121 199 OFFCURVE",
"120 215 OFFCURVE",
"120 232 CURVE SMOOTH",
"120 267 OFFCURVE",
"123 326 OFFCURVE",
"135 378 CURVE",
"189 375 OFFCURVE",
"254 332 OFFCURVE",
"257 299 CURVE SMOOTH",
"259 275 OFFCURVE",
"242 263 OFFCURVE",
"124 184 CURVE"
);
}
);
width = 368;
}
);
note = e;
unicode = 0065;
},
{
color = 4;
glyphname = e_hook;
lastChange = "2020-01-30 13:06:29 +0000";
layers = (
{
layerId = "E35B076F-D533-4C92-BAB9-D65BCB0F4FA2";
paths = (
{
closed = 1;
nodes = (
"212 533 OFFCURVE",
"241 552 OFFCURVE",
"276 594 CURVE",
"276 654 OFFCURVE",
"222 704 OFFCURVE",
"163 704 CURVE",
"100 626 LINE",
"103 614 LINE",
"166 606 OFFCURVE",
"195 570 OFFCURVE",
"158 520 CURVE",
"178 507 LINE"
);
},
{
closed = 1;
nodes = (
"194 -10 OFFCURVE",
"259 18 OFFCURVE",
"309 57 CURVE",
"299 87 LINE",
"216 51 OFFCURVE",
"158 81 OFFCURVE",
"133 149 CURVE",
"351 293 LINE",
"358 320 LINE",
"328 374 OFFCURVE",
"289 443 OFFCURVE",
"204 464 CURVE",
"159 430 OFFCURVE",
"82 382 OFFCURVE",
"38 350 CURVE",
"36 312 OFFCURVE",
"30 252 OFFCURVE",
"30 212 CURVE SMOOTH",
"30 59 OFFCURVE",
"112 -10 OFFCURVE",
"159 -10 CURVE SMOOTH"
);
},
{
closed = 1;
nodes = (
"121 199 OFFCURVE",
"120 215 OFFCURVE",
"120 232 CURVE SMOOTH",
"120 267 OFFCURVE",
"123 326 OFFCURVE",
"135 378 CURVE",
"189 375 OFFCURVE",
"254 332 OFFCURVE",
"257 299 CURVE SMOOTH",
"259 275 OFFCURVE",
"242 263 OFFCURVE",
"124 184 CURVE"
);
}
);
width = 368;
}
);
leftMetricsKey = e;
note = e_apomod;
rightMetricsKey = e;
},
{
color = 4;
glyphname = e_macr;
lastChange = "2020-01-30 13:06:29 +0000";
layers = (
{
layerId = "E35B076F-D533-4C92-BAB9-D65BCB0F4FA2";
paths = (
{
closed = 1;
nodes = (
"83 543 OFFCURVE",
"167 550 OFFCURVE",
"232 550 CURVE SMOOTH",
"365 548 LINE",
"396 625 LINE",
"395 631 LINE",
"120 614 LINE",
"87 585 OFFCURVE",
"52 546 OFFCURVE",
"30 511 CURVE",
"51 502 LINE"
);
},
{
closed = 1;
nodes = (
"215 -10 OFFCURVE",
"280 18 OFFCURVE",
"330 57 CURVE",
"320 87 LINE",
"237 51 OFFCURVE",
"179 81 OFFCURVE",
"154 149 CURVE",
"372 293 LINE",
"379 320 LINE",
"349 374 OFFCURVE",
"310 443 OFFCURVE",
"225 464 CURVE",
"180 430 OFFCURVE",
"103 382 OFFCURVE",
"59 350 CURVE",
"57 312 OFFCURVE",
"51 252 OFFCURVE",
"51 212 CURVE SMOOTH",
"51 59 OFFCURVE",
"133 -10 OFFCURVE",
"180 -10 CURVE SMOOTH"
);
},
{
closed = 1;
nodes = (
"142 199 OFFCURVE",
"141 215 OFFCURVE",
"141 232 CURVE SMOOTH",
"141 267 OFFCURVE",
"144 326 OFFCURVE",
"156 378 CURVE",
"210 375 OFFCURVE",
"275 332 OFFCURVE",
"278 299 CURVE SMOOTH",
"280 275 OFFCURVE",
"263 263 OFFCURVE",
"145 184 CURVE"
);
}
);
width = 406;
}
);
leftMetricsKey = e;
note = e_macr;
rightMetricsKey = e;
unicode = 0113;
},
{
color = 4;
glyphname = e_etfin;
lastChange = "2020-01-30 13:06:29 +0000";
layers = (
{
layerId = "E35B076F-D533-4C92-BAB9-D65BCB0F4FA2";
paths = (
{
closed = 1;
nodes = (
"573 -146 OFFCURVE",
"648 -20 OFFCURVE",
"648 57 CURVE SMOOTH",
"648 133 OFFCURVE",
"603 168 OFFCURVE",
"547 195 CURVE",
"654 316 LINE",
"654 332 LINE",
"588 378 OFFCURVE",
"552 417 OFFCURVE",
"496 465 CURVE",
"491 465 LINE",
"363 353 LINE",
"315 383 OFFCURVE",
"249 455 OFFCURVE",
"215 465 CURVE",
"41 365 LINE",
"35 298 OFFCURVE",
"30 225 OFFCURVE",
"30 175 CURVE SMOOTH",
"30 62 OFFCURVE",
"66 -10 OFFCURVE",
"181 -10 CURVE SMOOTH",
"212 -10 OFFCURVE",
"302 39 OFFCURVE",
"417 99 CURVE",
"515 129 OFFCURVE",
"538 74 OFFCURVE",
"538 15 CURVE SMOOTH",
"538 -65 OFFCURVE",
"489 -154 OFFCURVE",
"347 -240 CURVE",
"372 -265 LINE"
);
},
{
closed = 1;
nodes = (
"122 222 OFFCURVE",
"125 299 OFFCURVE",
"131 372 CURVE",
"141 378 LINE",
"180 370 OFFCURVE",
"244 310 OFFCURVE",
"260 276 CURVE",
"217 231 OFFCURVE",
"174 197 OFFCURVE",
"132 164 CURVE"
);
},
{
closed = 1;
nodes = (
"174 60 OFFCURVE",
"150 89 OFFCURVE",
"138 135 CURVE",
"430 367 LINE",
"470 333 OFFCURVE",
"508 309 OFFCURVE",
"566 268 CURVE",
"549 246 OFFCURVE",
"525 207 OFFCURVE",
"502 192 CURVE SMOOTH",
"439 150 OFFCURVE",
"308 60 OFFCURVE",
"216 60 CURVE SMOOTH"
);
}
);
width = 724;
}
);
leftMetricsKey = e;
note = e_z;
},
{
color = 4;
glyphname = f;
lastChange = "2020-01-30 13:06:29 +0000";
layers = (
{
layerId = "E35B076F-D533-4C92-BAB9-D65BCB0F4FA2";
paths = (
{
closed = 1;
nodes = (
"158 0 LINE",
"150 92 OFFCURVE",
"153 277 OFFCURVE",
"153 355 CURVE",
"278 355 LINE",
"279 445 LINE",
"152 445 LINE",
"152 618 LINE",
"200 618 OFFCURVE",
"249 613 OFFCURVE",
"299 605 CURVE",
"365 679 LINE",
"365 695 LINE",
"305 696 OFFCURVE",
"244 697 OFFCURVE",
"184 700 CURVE",
"139 676 OFFCURVE",
"93 637 OFFCURVE",
"53 596 CURVE",
"53 368 LINE SMOOTH",
"53 285 OFFCURVE",
"58 92 OFFCURVE",
"50 0 CURVE"
);
}
);
width = 325;
}
);
note = f;
unicode = 0066;
},
{
color = 4;
glyphname = f_a;
lastChange = "2020-01-30 13:06:29 +0000";
layers = (
{
layerId = "E35B076F-D533-4C92-BAB9-D65BCB0F4FA2";
paths = (
{
closed = 1;
nodes = (
"432 110 LINE",
"432 67 LINE SMOOTH",
"432 27 OFFCURVE",
"462 -10 OFFCURVE",
"482 -10 CURVE",
"564 24 LINE",
"564 54 LINE",
"562 55 LINE",
"535 78 OFFCURVE",
"532 96 OFFCURVE",
"532 145 CURVE SMOOTH",
"532 383 LINE SMOOTH",
"532 413 OFFCURVE",
"438 465 OFFCURVE",
"408 465 CURVE",
"345 455 LINE",
"152 455 LINE",
"152 618 LINE",
"299 605 LINE",
"365 673 LINE",
"365 695 LINE",
"184 700 LINE",
"139 676 OFFCURVE",
"93 647 OFFCURVE",
"53 606 CURVE",
"53 368 LINE SMOOTH",
"53 285 OFFCURVE",
"58 92 OFFCURVE",
"50 0 CURVE",
"158 0 LINE",
"150 92 OFFCURVE",
"153 297 OFFCURVE",
"153 375 CURVE",
"372 375 LINE SMOOTH",
"416 375 OFFCURVE",
"429 343 OFFCURVE",
"431 309 CURVE",
"223 153 LINE",
"235 94 OFFCURVE",
"251 39 OFFCURVE",
"301 -10 CURVE"
);
},
{
closed = 1;
nodes = (
"331 105 OFFCURVE",
"314 144 OFFCURVE",
"314 177 CURVE",
"353 217 OFFCURVE",
"392 249 OFFCURVE",
"431 276 CURVE",
"432 142 LINE",
"407 116 OFFCURVE",
"383 96 OFFCURVE",
"358 83 CURVE"
);
}
);
width = 589;
}
);
leftMetricsKey = f;
note = f_a;
rightMetricsKey = a;
},
{
color = 4;
glyphname = f_e;
lastChange = "2020-01-30 13:06:29 +0000";
layers = (
{
layerId = "E35B076F-D533-4C92-BAB9-D65BCB0F4FA2";
paths = (
{
closed = 1;
nodes = (
"439 14 OFFCURVE",
"504 47 OFFCURVE",
"554 77 CURVE",
"544 107 LINE",
"453 83 OFFCURVE",
"396 105 OFFCURVE",
"369 166 CURVE",
"539 310 LINE",
"546 337 LINE",
"513 382 OFFCURVE",
"461 435 OFFCURVE",
"406 467 CURVE",
"405 467 LINE",
"306 454 LINE",
"152 453 LINE",
"152 618 LINE",
"299 605 LINE",
"365 673 LINE",
"365 695 LINE",
"184 700 LINE",
"139 676 OFFCURVE",
"93 647 OFFCURVE",
"53 606 CURVE",
"53 368 LINE SMOOTH",
"53 285 OFFCURVE",
"58 92 OFFCURVE",
"50 0 CURVE",
"158 0 LINE",
"150 92 OFFCURVE",
"153 287 OFFCURVE",
"153 365 CURVE",
"262 365 LINE",
"264 308 OFFCURVE",
"270 209 OFFCURVE",
"265 93 CURVE",
"293 56 OFFCURVE",
"336 25 OFFCURVE",
"395 -10 CURVE"
);
},
{
closed = 1;
nodes = (
"356 207 OFFCURVE",
"354 216 OFFCURVE",
"353 224 CURVE SMOOTH",
"348 259 OFFCURVE",
"343 343 OFFCURVE",
"352 395 CURVE",
"386 391 OFFCURVE",
"447 333 OFFCURVE",
"450 300 CURVE SMOOTH",
"452 278 OFFCURVE",
"423 251 OFFCURVE",
"358 200 CURVE"
);
}
);
width = 564;
}
);
leftMetricsKey = f;
rightMetricsKey = e;
},
{
color = 4;
glyphname = f_f;
lastChange = "2020-01-30 13:06:29 +0000";
layers = (
{
layerId = "E35B076F-D533-4C92-BAB9-D65BCB0F4FA2";
paths = (
{
closed = 1;
nodes = (
"386 693 OFFCURVE",
"374 685 OFFCURVE",
"361 677 CURVE",
"184 700 LINE",
"139 676 OFFCURVE",
"93 647 OFFCURVE",
"53 606 CURVE",
"53 368 LINE SMOOTH",
"53 285 OFFCURVE",
"58 92 OFFCURVE",
"50 0 CURVE",
"158 0 LINE",
"150 92 OFFCURVE",
"153 287 OFFCURVE",
"153 365 CURVE",
"268 365 LINE",
"268 280 OFFCURVE",
"273 91 OFFCURVE",
"265 0 CURVE",
"373 0 LINE",
"365 92 OFFCURVE",
"368 277 OFFCURVE",
"368 355 CURVE",
"493 355 LINE",
"494 445 LINE",
"367 445 LINE",
"367 618 LINE",
"415 618 OFFCURVE",
"464 613 OFFCURVE",
"514 605 CURVE",
"580 679 LINE",
"580 695 LINE",
"520 696 OFFCURVE",
"459 697 OFFCURVE",
"399 700 CURVE"
);
},
{
closed = 1;
nodes = (
"152 618 LINE",
"268 594 LINE",
"268 455 LINE",
"152 455 LINE"
);
}
);
width = 540;
}
);
leftMetricsKey = f;
note = f_f;
rightMetricsKey = f;
unicode = FB00;
},
{
color = 4;
glyphname = f_i;
lastChange = "2020-01-30 13:07:30 +0000";
layers = (
{
layerId = "E35B076F-D533-4C92-BAB9-D65BCB0F4FA2";
paths = (
{
closed = 1;
nodes = (
"348 -10 LINE",
"433 50 LINE",
"431 77 LINE",
"409 77 OFFCURVE",
"393 101 OFFCURVE",
"391 115 CURVE SMOOTH",
"387 142 OFFCURVE",
"392 342 OFFCURVE",
"395 464 CURVE",
"394 465 LINE",
"360 459 OFFCURVE",
"324 456 OFFCURVE",
"285 455 CURVE SMOOTH",
"152 455 LINE",
"152 627 LINE",
"201 626 OFFCURVE",
"250 618 OFFCURVE",
"299 605 CURVE",
"365 673 LINE",
"365 695 LINE",
"204 707 LINE",
"159 683 OFFCURVE",
"93 647 OFFCURVE",
"53 606 CURVE",
"53 368 LINE SMOOTH",
"53 285 OFFCURVE",
"58 92 OFFCURVE",
"50 0 CURVE",
"158 0 LINE",
"150 92 OFFCURVE",
"153 304 OFFCURVE",
"153 382 CURVE",
"218 382 OFFCURVE",
"276 379 OFFCURVE",
"295 352 CURVE",
"290 57 LINE",
"289 47 OFFCURVE",
"336 -10 OFFCURVE",
"346 -10 CURVE SMOOTH"
);
},
{
closed = 1;
nodes = (
"394 571 LINE",
"453 675 LINE",
"453 680 LINE",
"427 700 LINE",
"420 700 LINE",
"368 570 LINE"
);
}
);
width = 478;
}
);
leftMetricsKey = f;
note = fi;
rightMetricsKey = i;
unicode = FB01;
},
{
color = 4;
glyphname = f_l;
lastChange = "2020-01-30 13:06:29 +0000";
layers = (
{
layerId = "E35B076F-D533-4C92-BAB9-D65BCB0F4FA2";
paths = (
{
closed = 1;
nodes = (
"414 11 OFFCURVE",
"444 32 OFFCURVE",
"463 47 CURVE",
"463 67 LINE",
"421 87 OFFCURVE",
"407 100 OFFCURVE",
"402 150 CURVE SMOOTH",
"392 248 OFFCURVE",
"397 620 OFFCURVE",
"403 697 CURVE",
"402 701 LINE",
"287 701 LINE",
"287 690 OFFCURVE",
"288 672 OFFCURVE",
"288 650 CURVE",
"245 658 OFFCURVE",
"201 666 OFFCURVE",
"164 668 CURVE",
"128 644 OFFCURVE",
"93 609 OFFCURVE",
"53 568 CURVE",
"53 368 LINE SMOOTH",
"53 285 OFFCURVE",
"58 92 OFFCURVE",
"50 0 CURVE",
"158 0 LINE",
"150 92 OFFCURVE",
"153 286 OFFCURVE",
"153 364 CURVE",
"295 364 LINE",
"297 253 OFFCURVE",
"299 137 OFFCURVE",
"297 52 CURVE",
"316 34 OFFCURVE",
"345 7 OFFCURVE",
"384 -10 CURVE"
);
},
{
closed = 1;
nodes = (
"152 583 LINE",
"194 583 OFFCURVE",
"245 574 OFFCURVE",
"291 553 CURVE",
"292 520 OFFCURVE",
"292 483 OFFCURVE",
"293 445 CURVE",
"152 445 LINE"
);
}
);
width = 473;
}
);
leftMetricsKey = f;
rightMetricsKey = l;
},
{
color = 4;
glyphname = f_o;
lastChange = "2020-01-30 13:06:29 +0000";
layers = (
{
layerId = "E35B076F-D533-4C92-BAB9-D65BCB0F4FA2";
paths = (
{
closed = 1;
nodes = (
"152 465 LINE",
"152 618 LINE",
"200 618 OFFCURVE",
"249 613 OFFCURVE",
"299 605 CURVE",
"365 679 LINE",
"365 695 LINE",
"305 696 OFFCURVE",
"244 697 OFFCURVE",
"184 700 CURVE",
"139 676 OFFCURVE",
"93 637 OFFCURVE",
"53 596 CURVE",
"53 368 LINE SMOOTH",
"53 285 OFFCURVE",
"58 92 OFFCURVE",
"50 0 CURVE",
"158 0 LINE",
"150 92 OFFCURVE",
"153 297 OFFCURVE",
"153 375 CURVE",
"326 375 LINE",
"287 330 OFFCURVE",
"260 273 OFFCURVE",
"260 217 CURVE SMOOTH",
"260 107 OFFCURVE",
"339 1 OFFCURVE",
"500 -10 CURVE",
"589 68 OFFCURVE",
"686 108 OFFCURVE",
"686 258 CURVE SMOOTH",
"686 356 OFFCURVE",
"602 461 OFFCURVE",
"469 465 CURVE SMOOTH"
);
},
{
closed = 1;
nodes = (
"430 82 OFFCURVE",
"341 161 OFFCURVE",
"341 271 CURVE SMOOTH",
"341 310 OFFCURVE",
"358 362 OFFCURVE",
"393 380 CURVE",
"507 393 OFFCURVE",
"606 307 OFFCURVE",
"606 217 CURVE SMOOTH",
"606 157 OFFCURVE",
"582 112 OFFCURVE",
"541 83 CURVE"
);
}
);
width = 711;
}
);
leftMetricsKey = f;
note = f_o;
rightMetricsKey = o;
},
{
color = 4;
glyphname = f_r;
lastChange = "2020-01-30 13:06:29 +0000";
layers = (
{
layerId = "E35B076F-D533-4C92-BAB9-D65BCB0F4FA2";
paths = (
{
closed = 1;
nodes = (
"158 0 LINE",
"150 92 OFFCURVE",
"153 294 OFFCURVE",
"153 372 CURVE",
"200 372 OFFCURVE",
"249 373 OFFCURVE",
"271 343 CURVE",
"271 0 LINE",
"373 0 LINE",
"367 108 OFFCURVE",
"371 212 OFFCURVE",
"371 320 CURVE",
"411 353 OFFCURVE",
"446 343 OFFCURVE",
"472 296 CURVE",
"477 296 LINE",
"548 375 LINE",
"540 408 OFFCURVE",
"518 437 OFFCURVE",
"491 465 CURVE",
"486 465 LINE",
"370 364 LINE",
"370 461 LINE",
"368 465 LINE",
"296 457 OFFCURVE",
"224 455 OFFCURVE",
"152 455 CURVE",
"152 618 LINE",
"200 618 OFFCURVE",
"249 613 OFFCURVE",
"299 605 CURVE",
"365 679 LINE",
"365 695 LINE",
"305 696 OFFCURVE",
"244 697 OFFCURVE",
"184 700 CURVE",
"139 676 OFFCURVE",
"93 637 OFFCURVE",
"53 596 CURVE",
"53 368 LINE SMOOTH",
"53 285 OFFCURVE",
"58 92 OFFCURVE",
"50 0 CURVE"
);
}
);
width = 553;
}
);
leftMetricsKey = f;
note = f_r;
rightMetricsKey = r;
},
{
color = 4;
glyphname = f_u;
lastChange = "2020-02-10 15:41:44 +0000";
layers = (
{
layerId = "E35B076F-D533-4C92-BAB9-D65BCB0F4FA2";
paths = (
{
closed = 1;
nodes = (
"539 89 LINE",
"539 83 LINE SMOOTH",
"539 45 OFFCURVE",
"561 8 OFFCURVE",
"599 -10 CURVE",
"682 33 LINE",
"677 73 LINE",
"643 73 OFFCURVE",
"641 99 OFFCURVE",
"641 205 CURVE SMOOTH",
"641 270 OFFCURVE",
"649 346 OFFCURVE",
"654 417 CURVE",
"643 437 OFFCURVE",
"599 465 OFFCURVE",
"577 465 CURVE SMOOTH",
"575 465 LINE",
"468 395 LINE",
"469 375 LINE",
"510 371 OFFCURVE",
"551 361 OFFCURVE",
"549 329 CURVE SMOOTH",
"542 134 LINE",
"523 122 OFFCURVE",
"470 90 OFFCURVE",
"440 90 CURVE SMOOTH",
"400 90 OFFCURVE",
"395 112 OFFCURVE",
"395 185 CURVE SMOOTH",
"395 237 OFFCURVE",
"399 374 OFFCURVE",
"407 457 CURVE",
"402 463 LINE",
"400 465 LINE",
"310 454 LINE",
"152 455 LINE",
"152 618 LINE",
"200 618 OFFCURVE",
"249 613 OFFCURVE",
"299 605 CURVE",
"365 679 LINE",
"365 695 LINE",
"305 696 OFFCURVE",
"244 697 OFFCURVE",
"184 700 CURVE",
"139 676 OFFCURVE",
"93 637 OFFCURVE",
"53 596 CURVE",
"53 368 LINE SMOOTH",
"53 285 OFFCURVE",
"58 92 OFFCURVE",
"50 0 CURVE",
"158 0 LINE",
"150 92 OFFCURVE",
"153 295 OFFCURVE",
"153 373 CURVE",
"295 373 LINE",
"295 50 LINE SMOOTH",
"295 34 OFFCURVE",
"358 -10 OFFCURVE",
"390 -10 CURVE"
);
}
);
width = 702;
}
);
leftMetricsKey = f;
note = f_u;
rightMetricsKey = u;
},
{
color = 4;
glyphname = g;
lastChange = "2020-02-10 15:41:56 +0000";
layers = (
{
layerId = "E35B076F-D533-4C92-BAB9-D65BCB0F4FA2";
paths = (
{
closed = 1;
nodes = (
"374 -235 OFFCURVE",
"469 -181 OFFCURVE",
"469 -70 CURVE SMOOTH",
"469 -6 OFFCURVE",
"433 53 OFFCURVE",
"358 96 CURVE",
"409 139 OFFCURVE",
"447 193 OFFCURVE",
"447 263 CURVE SMOOTH",
"447 275 OFFCURVE",
"446 286 OFFCURVE",
"444 297 CURVE",
"525 297 LINE",
"516 386 LINE",
"402 387 LINE",
"367 427 OFFCURVE",
"313 456 OFFCURVE",
"242 465 CURVE",
"194 428 OFFCURVE",
"150 390 OFFCURVE",
"82 351 CURVE",
"50 314 OFFCURVE",
"33 267 OFFCURVE",
"33 207 CURVE SMOOTH",
"33 109 OFFCURVE",
"83 35 OFFCURVE",
"151 11 CURVE",
"171 35 OFFCURVE",
"197 52 OFFCURVE",
"213 62 CURVE",
"307 58 OFFCURVE",
"372 -15 OFFCURVE",
"372 -85 CURVE SMOOTH",
"372 -148 OFFCURVE",
"341 -198 OFFCURVE",
"288 -224 CURVE",
"199 -246 OFFCURVE",
"91 -133 OFFCURVE",
"145 -27 CURVE",
"136 -15 LINE",
"103 -24 OFFCURVE",
"64 -38 OFFCURVE",
"31 -46 CURVE",
"21 -203 OFFCURVE",
"152 -275 OFFCURVE",
"282 -265 CURVE"
);
},
{
closed = 1;
nodes = (
"227 82 OFFCURVE",
"123 89 OFFCURVE",
"123 235 CURVE SMOOTH",
"123 277 OFFCURVE",
"133 316 OFFCURVE",
"162 352 CURVE",
"280 386 OFFCURVE",
"359 303 OFFCURVE",
"359 219 CURVE SMOOTH",
"359 172 OFFCURVE",
"347 131 OFFCURVE",
"315 102 CURVE"
);
}
);
width = 535;
}
);
note = g;
unicode = 0067;
},
{
color = 4;
glyphname = g_hook;
lastChange = "2020-02-10 15:42:01 +0000";
layers = (
{
layerId = "E35B076F-D533-4C92-BAB9-D65BCB0F4FA2";
paths = (
{
closed = 1;
nodes = (
"360 535 OFFCURVE",
"408 599 OFFCURVE",
"393 652 CURVE SMOOTH",
"380 695 OFFCURVE",
"327 719 OFFCURVE",
"284 706 CURVE",
"243 615 LINE",
"247 611 LINE",
"281 617 OFFCURVE",
"313 608 OFFCURVE",
"319 587 CURVE SMOOTH",
"326 561 OFFCURVE",
"301 533 OFFCURVE",
"280 518 CURVE",
"293 498 LINE"
);
},
{
closed = 1;
nodes = (
"374 -235 OFFCURVE",
"469 -181 OFFCURVE",
"469 -70 CURVE SMOOTH",
"469 -6 OFFCURVE",
"433 53 OFFCURVE",
"358 96 CURVE",
"409 139 OFFCURVE",
"447 193 OFFCURVE",
"447 263 CURVE SMOOTH",
"447 275 OFFCURVE",
"446 286 OFFCURVE",
"444 297 CURVE",
"525 297 LINE",
"516 386 LINE",
"402 387 LINE",
"367 427 OFFCURVE",
"313 456 OFFCURVE",
"242 465 CURVE",
"194 428 OFFCURVE",
"150 390 OFFCURVE",
"82 351 CURVE",
"50 314 OFFCURVE",
"33 267 OFFCURVE",
"33 207 CURVE SMOOTH",
"33 109 OFFCURVE",
"83 35 OFFCURVE",
"151 11 CURVE",
"171 35 OFFCURVE",
"197 52 OFFCURVE",
"213 62 CURVE",
"307 58 OFFCURVE",
"372 -15 OFFCURVE",
"372 -85 CURVE SMOOTH",
"372 -148 OFFCURVE",
"341 -198 OFFCURVE",
"288 -224 CURVE",
"199 -246 OFFCURVE",
"91 -133 OFFCURVE",
"145 -27 CURVE",
"136 -15 LINE",
"103 -24 OFFCURVE",
"64 -38 OFFCURVE",
"31 -46 CURVE",
"21 -203 OFFCURVE",
"152 -275 OFFCURVE",
"282 -265 CURVE"
);
},
{
closed = 1;
nodes = (
"227 82 OFFCURVE",
"123 89 OFFCURVE",
"123 235 CURVE SMOOTH",
"123 277 OFFCURVE",
"133 316 OFFCURVE",
"162 352 CURVE",
"280 386 OFFCURVE",
"359 303 OFFCURVE",
"359 219 CURVE SMOOTH",
"359 172 OFFCURVE",
"347 131 OFFCURVE",
"315 102 CURVE"
);
}
);
width = 535;
}
);
leftMetricsKey = g;
note = g_apomod;
rightMetricsKey = g;
},
{
color = 4;
glyphname = g_macr;
lastChange = "2020-02-10 15:42:04 +0000";
layers = (
{
layerId = "E35B076F-D533-4C92-BAB9-D65BCB0F4FA2";
paths = (
{
closed = 1;
nodes = (
"154 544 OFFCURVE",
"238 557 OFFCURVE",
"302 561 CURVE SMOOTH",
"435 569 LINE",
"461 648 LINE",
"459 654 LINE",
"186 617 LINE",
"155 586 OFFCURVE",
"123 545 OFFCURVE",
"104 508 CURVE",
"125 501 LINE"
);
},
{
closed = 1;
nodes = (
"374 -235 OFFCURVE",
"469 -181 OFFCURVE",
"469 -70 CURVE SMOOTH",
"469 -6 OFFCURVE",
"433 53 OFFCURVE",
"358 96 CURVE",
"409 139 OFFCURVE",
"447 193 OFFCURVE",
"447 263 CURVE SMOOTH",
"447 275 OFFCURVE",
"446 286 OFFCURVE",
"444 297 CURVE",
"525 297 LINE",
"516 386 LINE",
"402 387 LINE",
"367 427 OFFCURVE",
"313 456 OFFCURVE",
"242 465 CURVE",
"194 428 OFFCURVE",
"150 390 OFFCURVE",
"82 351 CURVE",
"50 314 OFFCURVE",
"33 267 OFFCURVE",
"33 207 CURVE SMOOTH",
"33 109 OFFCURVE",
"83 35 OFFCURVE",
"151 11 CURVE",
"171 35 OFFCURVE",
"197 52 OFFCURVE",
"213 62 CURVE",
"307 58 OFFCURVE",
"372 -15 OFFCURVE",
"372 -85 CURVE SMOOTH",
"372 -148 OFFCURVE",
"341 -198 OFFCURVE",
"288 -224 CURVE",
"199 -246 OFFCURVE",
"91 -133 OFFCURVE",
"145 -27 CURVE",
"136 -15 LINE",
"103 -24 OFFCURVE",
"64 -38 OFFCURVE",
"31 -46 CURVE",
"21 -203 OFFCURVE",
"152 -275 OFFCURVE",
"282 -265 CURVE"
);
},
{
closed = 1;
nodes = (
"227 82 OFFCURVE",
"123 89 OFFCURVE",
"123 235 CURVE SMOOTH",
"123 277 OFFCURVE",
"133 316 OFFCURVE",
"162 352 CURVE",
"280 386 OFFCURVE",
"359 303 OFFCURVE",
"359 219 CURVE SMOOTH",
"359 172 OFFCURVE",
"347 131 OFFCURVE",
"315 102 CURVE"
);
}
);
width = 535;
}
);
leftMetricsKey = g;
note = g_macr;
rightMetricsKey = g;
},
{
color = 4;
glyphname = g_e;
lastChange = "2020-02-10 15:42:07 +0000";
layers = (
{
layerId = "E35B076F-D533-4C92-BAB9-D65BCB0F4FA2";
paths = (
{
closed = 1;
nodes = (
"374 -235 OFFCURVE",
"469 -181 OFFCURVE",
"469 -70 CURVE SMOOTH",
"469 -6 OFFCURVE",
"433 53 OFFCURVE",
"358 96 CURVE",
"409 139 OFFCURVE",
"447 193 OFFCURVE",
"447 263 CURVE SMOOTH",
"447 293 OFFCURVE",
"440 321 OFFCURVE",
"428 347 CURVE",
"507 347 LINE",
"509 300 OFFCURVE",
"509 239 OFFCURVE",
"511 212 CURVE SMOOTH",
"521 59 OFFCURVE",
"593 -10 OFFCURVE",
"640 -10 CURVE SMOOTH",
"675 -10 OFFCURVE",
"742 18 OFFCURVE",
"782 57 CURVE",
"772 87 LINE",
"695 50 OFFCURVE",
"662 82 OFFCURVE",
"639 149 CURVE",
"842 313 LINE",
"849 340 LINE",
"799 385 OFFCURVE",
"750 424 OFFCURVE",
"695 464 CURVE",
"675 454 OFFCURVE",
"644 445 OFFCURVE",
"612 436 CURVE",
"337 437 LINE",
"310 451 OFFCURVE",
"278 461 OFFCURVE",
"242 465 CURVE",
"194 428 OFFCURVE",
"150 390 OFFCURVE",
"82 351 CURVE",
"50 314 OFFCURVE",
"33 267 OFFCURVE",
"33 207 CURVE SMOOTH",
"33 109 OFFCURVE",
"83 35 OFFCURVE",
"151 11 CURVE",
"171 35 OFFCURVE",
"197 52 OFFCURVE",
"213 62 CURVE",
"307 58 OFFCURVE",
"372 -15 OFFCURVE",
"372 -85 CURVE SMOOTH",
"372 -148 OFFCURVE",
"341 -198 OFFCURVE",
"288 -224 CURVE",
"199 -246 OFFCURVE",
"91 -133 OFFCURVE",
"145 -27 CURVE",
"136 -15 LINE",
"103 -24 OFFCURVE",
"64 -38 OFFCURVE",
"31 -46 CURVE",
"21 -203 OFFCURVE",
"152 -275 OFFCURVE",
"282 -265 CURVE"
);
},
{
closed = 1;
nodes = (
"620 222 LINE SMOOTH",
"609 270 OFFCURVE",
"602 326 OFFCURVE",
"606 378 CURVE",
"670 375 OFFCURVE",
"725 341 OFFCURVE",
"728 308 CURVE SMOOTH",
"730 286 OFFCURVE",
"723 255 OFFCURVE",
"629 185 CURVE"
);
},
{
closed = 1;
nodes = (
"227 82 OFFCURVE",
"123 89 OFFCURVE",
"123 235 CURVE SMOOTH",
"123 277 OFFCURVE",
"133 316 OFFCURVE",
"162 352 CURVE",
"280 386 OFFCURVE",
"359 303 OFFCURVE",
"359 219 CURVE SMOOTH",
"359 172 OFFCURVE",
"347 131 OFFCURVE",
"315 102 CURVE"
);
}
);
width = 859;
}
);
leftMetricsKey = g;
note = g_e;
rightMetricsKey = e;
},
{
color = 4;
glyphname = g_e_macr;
lastChange = "2020-02-10 15:42:08 +0000";
layers = (
{
layerId = "E35B076F-D533-4C92-BAB9-D65BCB0F4FA2";
paths = (
{
closed = 1;
nodes = (
"575 544 OFFCURVE",
"639 558 OFFCURVE",
"703 557 CURVE SMOOTH",
"747 556 OFFCURVE",
"752 555 OFFCURVE",
"796 551 CURVE",
"832 629 LINE",
"830 635 LINE",
"637 632 LINE",
"596 601 OFFCURVE",
"534 546 OFFCURVE",
"505 508 CURVE",
"526 501 LINE"
);
},
{
closed = 1;
nodes = (
"374 -235 OFFCURVE",
"469 -181 OFFCURVE",
"469 -70 CURVE SMOOTH",
"469 4 OFFCURVE",
"433 54 OFFCURVE",
"358 96 CURVE",
"409 139 OFFCURVE",
"447 193 OFFCURVE",
"447 263 CURVE SMOOTH",
"447 293 OFFCURVE",
"440 321 OFFCURVE",
"428 347 CURVE",
"516 347 LINE",
"517 280 OFFCURVE",
"520 177 OFFCURVE",
"525 147 CURVE SMOOTH",
"545 34 OFFCURVE",
"638 -10 OFFCURVE",
"685 -10 CURVE",
"753 42 OFFCURVE",
"793 81 OFFCURVE",
"853 140 CURVE",
"829 161 LINE",
"785 120 OFFCURVE",
"741 88 OFFCURVE",
"704 89 CURVE SMOOTH",
"675 90 OFFCURVE",
"653 117 OFFCURVE",
"638 154 CURVE",
"852 316 LINE",
"859 343 LINE",
"799 388 OFFCURVE",
"750 424 OFFCURVE",
"695 464 CURVE",
"675 454 OFFCURVE",
"647 445 OFFCURVE",
"618 436 CURVE",
"337 437 LINE",
"310 451 OFFCURVE",
"278 461 OFFCURVE",
"242 465 CURVE",
"194 428 OFFCURVE",
"150 390 OFFCURVE",
"82 351 CURVE",
"50 314 OFFCURVE",
"33 267 OFFCURVE",
"33 207 CURVE SMOOTH",
"33 109 OFFCURVE",
"83 35 OFFCURVE",
"151 11 CURVE",
"171 35 OFFCURVE",
"197 52 OFFCURVE",
"213 62 CURVE",
"307 58 OFFCURVE",
"372 -15 OFFCURVE",
"372 -85 CURVE SMOOTH",
"372 -148 OFFCURVE",
"341 -198 OFFCURVE",
"288 -224 CURVE",
"199 -246 OFFCURVE",
"91 -133 OFFCURVE",
"145 -27 CURVE",
"136 -15 LINE",
"103 -24 OFFCURVE",
"64 -38 OFFCURVE",
"31 -46 CURVE",
"21 -203 OFFCURVE",
"152 -275 OFFCURVE",
"282 -265 CURVE"
);
},
{
closed = 1;
nodes = (
"623 202 OFFCURVE",
"620 217 OFFCURVE",
"617 232 CURVE SMOOTH",
"611 267 OFFCURVE",
"609 326 OFFCURVE",
"616 378 CURVE",
"670 375 OFFCURVE",
"725 341 OFFCURVE",
"728 308 CURVE SMOOTH",
"730 286 OFFCURVE",
"719 255 OFFCURVE",
"627 187 CURVE"
);
},
{
closed = 1;
nodes = (
"227 82 OFFCURVE",
"123 89 OFFCURVE",
"123 235 CURVE SMOOTH",
"123 277 OFFCURVE",
"133 316 OFFCURVE",
"162 352 CURVE",
"280 386 OFFCURVE",
"359 303 OFFCURVE",
"359 219 CURVE SMOOTH",
"359 172 OFFCURVE",
"347 131 OFFCURVE",
"315 102 CURVE"
);
}
);
width = 869;
}
);
leftMetricsKey = g;
note = g_emacr;
rightMetricsKey = e;
},
{
color = 4;
glyphname = g_i;
lastChange = "2020-02-10 15:42:10 +0000";
layers = (
{
layerId = "E35B076F-D533-4C92-BAB9-D65BCB0F4FA2";
paths = (
{
closed = 1;
nodes = (
"594 552 LINE",
"688 675 LINE",
"688 680 LINE",
"662 700 LINE",
"655 700 LINE",
"563 578 LINE",
"563 573 LINE",
"589 552 LINE"
);
},
{
closed = 1;
nodes = (
"374 -235 OFFCURVE",
"469 -181 OFFCURVE",
"469 -70 CURVE SMOOTH",
"469 3 OFFCURVE",
"427 50 OFFCURVE",
"364 102 CURVE",
"437 182 OFFCURVE",
"452 257 OFFCURVE",
"448 365 CURVE",
"489 372 OFFCURVE",
"534 366 OFFCURVE",
"571 353 CURVE",
"560 57 LINE SMOOTH",
"559 47 OFFCURVE",
"632 -10 OFFCURVE",
"642 -10 CURVE SMOOTH",
"644 -10 LINE",
"709 50 LINE",
"699 90 LINE",
"677 90 OFFCURVE",
"669 101 OFFCURVE",
"667 115 CURVE SMOOTH",
"664 137 OFFCURVE",
"664 270 OFFCURVE",
"676 384 CURVE SMOOTH",
"686 460 LINE",
"683 465 LINE",
"536 455 LINE",
"401 452 LINE",
"321 454 OFFCURVE",
"232 455 OFFCURVE",
"212 457 CURVE",
"164 420 OFFCURVE",
"129 391 OFFCURVE",
"82 351 CURVE",
"50 314 OFFCURVE",
"33 267 OFFCURVE",
"33 207 CURVE SMOOTH",
"33 109 OFFCURVE",
"83 35 OFFCURVE",
"151 11 CURVE",
"171 35 OFFCURVE",
"197 52 OFFCURVE",
"213 62 CURVE",
"307 58 OFFCURVE",
"372 -8 OFFCURVE",
"372 -85 CURVE SMOOTH",
"372 -148 OFFCURVE",
"352 -204 OFFCURVE",
"278 -230 CURVE",
"189 -225 OFFCURVE",
"91 -133 OFFCURVE",
"145 -27 CURVE",
"136 -15 LINE",
"103 -24 OFFCURVE",
"64 -38 OFFCURVE",
"31 -46 CURVE",
"21 -203 OFFCURVE",
"152 -275 OFFCURVE",
"282 -265 CURVE"
);
},
{
closed = 1;
nodes = (
"160 102 OFFCURVE",
"109 162 OFFCURVE",
"109 235 CURVE SMOOTH",
"109 313 OFFCURVE",
"166 374 OFFCURVE",
"232 374 CURVE SMOOTH",
"285 374 OFFCURVE",
"328 359 OFFCURVE",
"357 326 CURVE",
"371 207 OFFCURVE",
"332 102 OFFCURVE",
"240 102 CURVE SMOOTH"
);
}
);
width = 734;
}
);
leftMetricsKey = g;
rightMetricsKey = i;
},
{
color = 4;
glyphname = g_o;
lastChange = "2020-02-10 15:42:11 +0000";
layers = (
{
layerId = "E35B076F-D533-4C92-BAB9-D65BCB0F4FA2";
paths = (
{
closed = 1;
nodes = (
"374 -235 OFFCURVE",
"469 -181 OFFCURVE",
"469 -70 CURVE SMOOTH",
"469 -6 OFFCURVE",
"433 53 OFFCURVE",
"358 96 CURVE",
"409 139 OFFCURVE",
"447 193 OFFCURVE",
"447 263 CURVE SMOOTH",
"447 298 OFFCURVE",
"438 331 OFFCURVE",
"421 360 CURVE",
"571 365 LINE",
"536 322 OFFCURVE",
"513 269 OFFCURVE",
"513 217 CURVE SMOOTH",
"513 107 OFFCURVE",
"592 1 OFFCURVE",
"753 -10 CURVE",
"842 68 OFFCURVE",
"939 108 OFFCURVE",
"939 258 CURVE SMOOTH",
"939 358 OFFCURVE",
"852 465 OFFCURVE",
"714 465 CURVE",
"698 461 OFFCURVE",
"682 454 OFFCURVE",
"666 446 CURVE",
"315 447 LINE",
"293 456 OFFCURVE",
"269 462 OFFCURVE",
"242 465 CURVE",
"194 428 OFFCURVE",
"150 390 OFFCURVE",
"82 351 CURVE",
"50 314 OFFCURVE",
"33 267 OFFCURVE",
"33 207 CURVE SMOOTH",
"33 109 OFFCURVE",
"83 35 OFFCURVE",
"151 11 CURVE",
"171 35 OFFCURVE",
"197 52 OFFCURVE",
"213 62 CURVE",
"307 58 OFFCURVE",
"372 -15 OFFCURVE",
"372 -85 CURVE SMOOTH",
"372 -148 OFFCURVE",
"341 -198 OFFCURVE",
"288 -224 CURVE",
"199 -246 OFFCURVE",
"91 -133 OFFCURVE",
"145 -27 CURVE",
"136 -15 LINE",
"103 -24 OFFCURVE",
"64 -38 OFFCURVE",
"31 -46 CURVE",
"21 -203 OFFCURVE",
"152 -275 OFFCURVE",
"282 -265 CURVE"
);
},
{
closed = 1;
nodes = (
"683 82 OFFCURVE",
"594 161 OFFCURVE",
"594 271 CURVE SMOOTH",
"594 310 OFFCURVE",
"611 362 OFFCURVE",
"646 380 CURVE",
"760 393 OFFCURVE",
"859 307 OFFCURVE",
"859 217 CURVE SMOOTH",
"859 157 OFFCURVE",
"835 112 OFFCURVE",
"794 83 CURVE"
);
},
{
closed = 1;
nodes = (
"227 82 OFFCURVE",
"123 89 OFFCURVE",
"123 235 CURVE SMOOTH",
"123 277 OFFCURVE",
"133 316 OFFCURVE",
"162 352 CURVE",
"280 386 OFFCURVE",
"359 303 OFFCURVE",
"359 219 CURVE SMOOTH",
"359 172 OFFCURVE",
"347 131 OFFCURVE",
"315 102 CURVE"
);
}
);
width = 964;
}
);
leftMetricsKey = g;
note = g_o;
rightMetricsKey = o;
},
{
color = 4;
glyphname = g_r;
lastChange = "2020-02-10 15:42:12 +0000";
layers = (
{
layerId = "E35B076F-D533-4C92-BAB9-D65BCB0F4FA2";
paths = (
{
closed = 1;
nodes = (
"374 -235 OFFCURVE",
"469 -181 OFFCURVE",
"469 -70 CURVE SMOOTH",
"469 -6 OFFCURVE",
"433 53 OFFCURVE",
"358 96 CURVE",
"409 139 OFFCURVE",
"447 193 OFFCURVE",
"447 263 CURVE SMOOTH",
"447 291 OFFCURVE",
"441 318 OFFCURVE",
"430 342 CURVE",
"539 342 LINE SMOOTH",
"564 341 OFFCURVE",
"568 330 OFFCURVE",
"568 293 CURVE SMOOTH",
"568 219 OFFCURVE",
"564 114 OFFCURVE",
"562 0 CURVE",
"673 40 LINE",
"670 167 OFFCURVE",
"668 282 OFFCURVE",
"668 355 CURVE",
"716 393 OFFCURVE",
"735 364 OFFCURVE",
"765 313 CURVE",
"780 311 LINE",
"798 337 OFFCURVE",
"805 349 OFFCURVE",
"828 373 CURVE",
"822 419 OFFCURVE",
"799 458 OFFCURVE",
"755 483 CURVE",
"668 395 LINE",
"668 483 LINE",
"646 487 LINE",
"589 431 LINE",
"346 432 LINE",
"317 449 OFFCURVE",
"282 460 OFFCURVE",
"242 465 CURVE",
"194 428 OFFCURVE",
"150 390 OFFCURVE",
"82 351 CURVE",
"50 314 OFFCURVE",
"33 267 OFFCURVE",
"33 207 CURVE SMOOTH",
"33 109 OFFCURVE",
"83 35 OFFCURVE",
"151 11 CURVE",
"171 35 OFFCURVE",
"197 52 OFFCURVE",
"213 62 CURVE",
"307 58 OFFCURVE",
"372 -15 OFFCURVE",
"372 -85 CURVE SMOOTH",
"372 -148 OFFCURVE",
"341 -198 OFFCURVE",
"288 -224 CURVE",
"199 -246 OFFCURVE",
"91 -133 OFFCURVE",
"145 -27 CURVE",
"136 -15 LINE",
"103 -24 OFFCURVE",
"64 -38 OFFCURVE",
"31 -46 CURVE",
"21 -203 OFFCURVE",
"152 -275 OFFCURVE",
"282 -265 CURVE"
);
},
{
closed = 1;
nodes = (
"227 82 OFFCURVE",
"123 89 OFFCURVE",
"123 235 CURVE SMOOTH",
"123 277 OFFCURVE",
"133 316 OFFCURVE",
"162 352 CURVE",
"280 386 OFFCURVE",
"359 303 OFFCURVE",
"359 219 CURVE SMOOTH",
"359 172 OFFCURVE",
"347 131 OFFCURVE",
"315 102 CURVE"
);
}
);
width = 833;
}
);
leftMetricsKey = g;
rightMetricsKey = r;
},
{
color = 4;
glyphname = g_u;
lastChange = "2020-02-10 15:42:15 +0000";
layers = (
{
layerId = "E35B076F-D533-4C92-BAB9-D65BCB0F4FA2";
paths = (
{
closed = 1;
nodes = (
"368 -265 OFFCURVE",
"459 -186 OFFCURVE",
"459 -75 CURVE SMOOTH",
"459 0 OFFCURVE",
"414 62 OFFCURVE",
"364 90 CURVE",
"413 143 OFFCURVE",
"453 205 OFFCURVE",
"453 261 CURVE SMOOTH",
"453 297 OFFCURVE",
"439 333 OFFCURVE",
"417 365 CURVE",
"529 365 LINE SMOOTH",
"549 365 OFFCURVE",
"558 348 OFFCURVE",
"558 319 CURVE SMOOTH",
"558 50 LINE SMOOTH",
"558 34 OFFCURVE",
"621 -10 OFFCURVE",
"653 -10 CURVE",
"802 90 LINE",
"802 73 LINE SMOOTH",
"802 35 OFFCURVE",
"827 -10 OFFCURVE",
"862 -10 CURVE",
"945 50 LINE",
"940 90 LINE",
"906 90 OFFCURVE",
"904 99 OFFCURVE",
"904 205 CURVE SMOOTH",
"904 270 OFFCURVE",
"907 336 OFFCURVE",
"917 407 CURVE",
"917 427 OFFCURVE",
"860 465 OFFCURVE",
"840 465 CURVE SMOOTH",
"838 465 LINE",
"731 365 LINE",
"752 339 LINE",
"784 365 LINE",
"798 365 OFFCURVE",
"813 349 OFFCURVE",
"812 329 CURVE SMOOTH",
"805 135 LINE",
"785 122 OFFCURVE",
"733 90 OFFCURVE",
"703 90 CURVE SMOOTH",
"663 90 OFFCURVE",
"658 112 OFFCURVE",
"658 185 CURVE SMOOTH",
"658 230 OFFCURVE",
"661 330 OFFCURVE",
"668 403 CURVE SMOOTH",
"676 460 LINE",
"673 465 LINE",
"549 458 OFFCURVE",
"425 455 OFFCURVE",
"301 455 CURVE",
"289 459 OFFCURVE",
"277 463 OFFCURVE",
"265 465 CURVE",
"94 356 LINE SMOOTH",
"60 335 OFFCURVE",
"30 267 OFFCURVE",
"30 212 CURVE SMOOTH",
"30 114 OFFCURVE",
"110 27 OFFCURVE",
"168 13 CURVE",
"238 54 LINE",
"297 55 OFFCURVE",
"349 4 OFFCURVE",
"349 -86 CURVE SMOOTH",
"349 -149 OFFCURVE",
"318 -215 OFFCURVE",
"261 -215 CURVE SMOOTH",
"172 -215 OFFCURVE",
"135 -113 OFFCURVE",
"179 -27 CURVE",
"168 -8 LINE",
"68 -56 LINE",
"48 -163 OFFCURVE",
"92 -265 OFFCURVE",
"242 -265 CURVE SMOOTH"
);
},
{
closed = 1;
nodes = (
"184 90 OFFCURVE",
"130 183 OFFCURVE",
"130 259 CURVE SMOOTH",
"130 321 OFFCURVE",
"149 365 OFFCURVE",
"210 365 CURVE SMOOTH",
"262 365 OFFCURVE",
"353 303 OFFCURVE",
"353 209 CURVE SMOOTH",
"353 178 OFFCURVE",
"339 133 OFFCURVE",
"321 107 CURVE",
"247 90 LINE"
);
}
);
width = 965;
}
);
leftMetricsKey = g;
rightMetricsKey = u;
},
{
color = 4;
glyphname = h;
lastChange = "2020-02-10 15:42:23 +0000";
layers = (
{
layerId = "E35B076F-D533-4C92-BAB9-D65BCB0F4FA2";
paths = (
{
closed = 1;
nodes = (
"278 -161 LINE",
"400 41 OFFCURVE",
"482 147 OFFCURVE",
"482 263 CURVE SMOOTH",
"482 343 OFFCURVE",
"422 465 OFFCURVE",
"272 465 CURVE",
"231 435 OFFCURVE",
"191 406 OFFCURVE",
"150 381 CURVE",
"152 503 OFFCURVE",
"157 602 OFFCURVE",
"165 706 CURVE",
"162 710 LINE",
"36 700 LINE",
"35 675 LINE",
"53 610 OFFCURVE",
"50 522 OFFCURVE",
"50 376 CURVE SMOOTH",
"50 282 OFFCURVE",
"50 169 OFFCURVE",
"47 0 CURVE",
"157 0 LINE",
"151 134 OFFCURVE",
"149 244 OFFCURVE",
"150 339 CURVE",
"178 358 OFFCURVE",
"210 365 OFFCURVE",
"247 365 CURVE SMOOTH",
"325 365 OFFCURVE",
"395 298 OFFCURVE",
"395 216 CURVE SMOOTH",
"395 89 OFFCURVE",
"307 -49 OFFCURVE",
"195 -144 CURVE",
"195 -162 LINE"
);
}
);
width = 517;
}
);
note = h;
unicode = 0068;
},
{
color = 4;
glyphname = h_e;
lastChange = "2020-02-10 15:42:28 +0000";
layers = (
{
layerId = "E35B076F-D533-4C92-BAB9-D65BCB0F4FA2";
paths = (
{
closed = 1;
nodes = (
"691 374 OFFCURVE",
"652 443 OFFCURVE",
"567 464 CURVE",
"535 439 OFFCURVE",
"485 408 OFFCURVE",
"444 380 CURVE",
"411 427 OFFCURVE",
"356 465 OFFCURVE",
"272 465 CURVE",
"231 435 OFFCURVE",
"191 406 OFFCURVE",
"150 381 CURVE",
"152 503 OFFCURVE",
"157 602 OFFCURVE",
"165 706 CURVE",
"162 710 LINE",
"36 700 LINE",
"35 675 LINE",
"53 610 OFFCURVE",
"50 522 OFFCURVE",
"50 376 CURVE SMOOTH",
"50 282 OFFCURVE",
"50 169 OFFCURVE",
"47 0 CURVE",
"157 0 LINE",
"151 134 OFFCURVE",
"149 244 OFFCURVE",
"150 339 CURVE",
"178 358 OFFCURVE",
"210 365 OFFCURVE",
"247 365 CURVE SMOOTH",
"318 365 OFFCURVE",
"383 309 OFFCURVE",
"394 236 CURVE",
"393 228 OFFCURVE",
"393 219 OFFCURVE",
"393 212 CURVE SMOOTH",
"393 204 OFFCURVE",
"393 196 OFFCURVE",
"394 189 CURVE",
"382 69 OFFCURVE",
"299 -56 OFFCURVE",
"195 -144 CURVE",
"195 -162 LINE",
"278 -161 LINE",
"336 -64 OFFCURVE",
"386 11 OFFCURVE",
"421 75 CURVE",
"449 17 OFFCURVE",
"493 -10 OFFCURVE",
"522 -10 CURVE SMOOTH",
"557 -10 OFFCURVE",
"622 18 OFFCURVE",
"672 57 CURVE",
"662 87 LINE",
"579 51 OFFCURVE",
"521 81 OFFCURVE",
"496 149 CURVE",
"714 293 LINE",
"721 320 LINE"
);
},
{
closed = 1;
nodes = (
"484 199 OFFCURVE",
"483 215 OFFCURVE",
"483 232 CURVE SMOOTH",
"483 267 OFFCURVE",
"486 326 OFFCURVE",
"498 378 CURVE",
"552 375 OFFCURVE",
"617 332 OFFCURVE",
"620 299 CURVE SMOOTH",
"622 275 OFFCURVE",
"605 263 OFFCURVE",
"487 184 CURVE"
);
}
);
width = 731;
}
);
leftMetricsKey = h;
note = h_e;
rightMetricsKey = e;
},
{
color = 4;
glyphname = h_e_macr;
lastChange = "2020-02-10 15:42:30 +0000";
layers = (
{
layerId = "E35B076F-D533-4C92-BAB9-D65BCB0F4FA2";
paths = (
{
closed = 1;
nodes = (
"531 440 OFFCURVE",
"484 409 OFFCURVE",
"443 382 CURVE",
"410 428 OFFCURVE",
"354 465 OFFCURVE",
"272 465 CURVE",
"231 435 OFFCURVE",
"191 406 OFFCURVE",
"150 381 CURVE",
"152 503 OFFCURVE",
"157 602 OFFCURVE",
"165 706 CURVE",
"162 710 LINE",
"36 700 LINE",
"35 675 LINE",
"53 610 OFFCURVE",
"50 522 OFFCURVE",
"50 376 CURVE SMOOTH",
"50 282 OFFCURVE",
"50 169 OFFCURVE",
"47 0 CURVE",
"157 0 LINE",
"151 134 OFFCURVE",
"149 244 OFFCURVE",
"150 339 CURVE",
"178 358 OFFCURVE",
"210 365 OFFCURVE",
"247 365 CURVE SMOOTH",
"313 365 OFFCURVE",
"373 317 OFFCURVE",
"390 252 CURVE",
"390 238 OFFCURVE",
"389 224 OFFCURVE",
"389 212 CURVE SMOOTH",
"389 197 OFFCURVE",
"390 183 OFFCURVE",
"391 169 CURVE",
"373 56 OFFCURVE",
"293 -60 OFFCURVE",
"195 -144 CURVE",
"195 -162 LINE",
"278 -161 LINE",
"335 -66 OFFCURVE",
"384 8 OFFCURVE",
"419 71 CURVE",
"447 16 OFFCURVE",
"489 -10 OFFCURVE",
"518 -10 CURVE SMOOTH",
"553 -10 OFFCURVE",
"618 18 OFFCURVE",
"668 57 CURVE",
"658 87 LINE",
"575 51 OFFCURVE",
"517 81 OFFCURVE",
"492 149 CURVE",
"710 293 LINE",
"717 320 LINE",
"687 374 OFFCURVE",
"648 443 OFFCURVE",
"563 464 CURVE"
);
},
{
closed = 1;
nodes = (
"468 617 LINE",
"437 586 OFFCURVE",
"405 545 OFFCURVE",
"386 508 CURVE",
"407 501 LINE",
"436 544 OFFCURVE",
"520 557 OFFCURVE",
"584 561 CURVE SMOOTH",
"717 569 LINE",
"743 648 LINE",
"741 654 LINE"
);
},
{
closed = 1;
nodes = (
"480 197 OFFCURVE",
"479 210 OFFCURVE",
"479 225 CURVE",
"481 238 OFFCURVE",
"482 250 OFFCURVE",
"482 263 CURVE SMOOTH",
"482 269 OFFCURVE",
"482 276 OFFCURVE",
"481 283 CURVE",
"483 313 OFFCURVE",
"487 347 OFFCURVE",
"494 378 CURVE",
"548 375 OFFCURVE",
"613 332 OFFCURVE",
"616 299 CURVE SMOOTH",
"618 275 OFFCURVE",
"601 263 OFFCURVE",
"483 184 CURVE"
);
}
);
width = 753;
}
);
leftMetricsKey = h;
note = u_nbenannt;
rightMetricsKey = e;
},
{
color = 4;
glyphname = h_o;
lastChange = "2020-02-10 15:42:31 +0000";
layers = (
{
layerId = "E35B076F-D533-4C92-BAB9-D65BCB0F4FA2";
paths = (
{
closed = 1;
nodes = (
"546 452 OFFCURVE",
"493 414 OFFCURVE",
"454 364 CURVE",
"423 419 OFFCURVE",
"364 465 OFFCURVE",
"272 465 CURVE",
"231 435 OFFCURVE",
"191 406 OFFCURVE",
"150 381 CURVE",
"152 503 OFFCURVE",
"157 602 OFFCURVE",
"165 706 CURVE",
"162 710 LINE",
"36 700 LINE",
"35 675 LINE",
"53 610 OFFCURVE",
"50 522 OFFCURVE",
"50 376 CURVE SMOOTH",
"50 282 OFFCURVE",
"50 169 OFFCURVE",
"47 0 CURVE",
"157 0 LINE",
"151 134 OFFCURVE",
"149 244 OFFCURVE",
"150 339 CURVE",
"178 358 OFFCURVE",
"210 365 OFFCURVE",
"247 365 CURVE SMOOTH",
"325 365 OFFCURVE",
"395 298 OFFCURVE",
"395 216 CURVE SMOOTH",
"395 89 OFFCURVE",
"307 -49 OFFCURVE",
"195 -144 CURVE",
"195 -162 LINE",
"278 -161 LINE",
"343 -53 OFFCURVE",
"397 27 OFFCURVE",
"433 96 CURVE",
"470 39 OFFCURVE",
"538 -3 OFFCURVE",
"637 -10 CURVE",
"726 68 OFFCURVE",
"823 108 OFFCURVE",
"823 258 CURVE SMOOTH",
"823 358 OFFCURVE",
"736 465 OFFCURVE",
"598 465 CURVE"
);
},
{
closed = 1;
nodes = (
"578 82 OFFCURVE",
"497 146 OFFCURVE",
"481 238 CURVE",
"482 246 OFFCURVE",
"482 255 OFFCURVE",
"482 263 CURVE SMOOTH",
"482 272 OFFCURVE",
"481 282 OFFCURVE",
"480 292 CURVE",
"484 327 OFFCURVE",
"501 365 OFFCURVE",
"530 380 CURVE",
"644 393 OFFCURVE",
"743 307 OFFCURVE",
"743 217 CURVE SMOOTH",
"743 157 OFFCURVE",
"719 112 OFFCURVE",
"678 83 CURVE"
);
}
);
width = 848;
}
);
leftMetricsKey = h;
rightMetricsKey = o;
},
{
color = 4;
glyphname = i;
lastChange = "2020-01-30 13:06:29 +0000";
layers = (
{
layerId = "E35B076F-D533-4C92-BAB9-D65BCB0F4FA2";
paths = (
{
closed = 1;
nodes = (
"165 637 LINE",
"122 652 LINE",
"53 532 LINE",
"84 524 LINE"
);
},
{
closed = 1;
nodes = (
"114 -10 LINE",
"134 5 OFFCURVE",
"162 17 OFFCURVE",
"184 27 CURVE",
"187 48 LINE",
"158 80 OFFCURVE",
"154 143 OFFCURVE",
"154 252 CURVE SMOOTH",
"154 364 OFFCURVE",
"154 357 OFFCURVE",
"171 407 CURVE",
"94 465 LINE",
"92 465 LINE",
"25 408 LINE",
"26 375 LINE",
"45 385 OFFCURVE",
"58 376 OFFCURVE",
"58 336 CURVE SMOOTH",
"58 235 OFFCURVE",
"54 84 OFFCURVE",
"51 42 CURVE",
"75 21 OFFCURVE",
"96 -3 OFFCURVE",
"112 -10 CURVE"
);
}
);
width = 212;
}
);
note = i;
unicode = 0069;
},
{
color = 4;
glyphname = dotlessi;
lastChange = "2020-01-30 13:06:29 +0000";
layers = (
{
layerId = "E35B076F-D533-4C92-BAB9-D65BCB0F4FA2";
paths = (
{
closed = 1;
nodes = (
"128 -10 LINE",
"213 50 LINE",
"206 79 LINE",
"184 79 OFFCURVE",
"176 90 OFFCURVE",
"174 104 CURVE SMOOTH",
"170 131 OFFCURVE",
"164 290 OFFCURVE",
"186 412 CURVE",
"115 465 LINE",
"113 465 LINE",
"25 405 LINE",
"32 382 LINE",
"68 377 OFFCURVE",
"77 370 OFFCURVE",
"75 330 CURVE SMOOTH",
"64 57 LINE SMOOTH",
"63 47 OFFCURVE",
"116 -10 OFFCURVE",
"126 -10 CURVE SMOOTH"
);
}
);
width = 238;
}
);
leftMetricsKey = i;
rightMetricsKey = i;
unicode = 0131;
},
{
color = 4;
glyphname = i_macr;
lastChange = "2020-02-10 15:43:00 +0000";
layers = (
{
layerId = "E35B076F-D533-4C92-BAB9-D65BCB0F4FA2";
paths = (
{
closed = 1;
nodes = (
"73 570 OFFCURVE",
"149 562 OFFCURVE",
"216 559 CURVE",
"249 646 LINE",
"236 653 LINE",
"191 646 OFFCURVE",
"116 653 OFFCURVE",
"46 649 CURVE",
"15 567 LINE",
"24 557 LINE"
);
},
{
closed = 1;
nodes = (
"135 -10 LINE",
"220 50 LINE",
"213 79 LINE",
"191 79 OFFCURVE",
"183 90 OFFCURVE",
"181 104 CURVE SMOOTH",
"177 131 OFFCURVE",
"171 290 OFFCURVE",
"193 412 CURVE",
"122 465 LINE",
"120 465 LINE",
"32 405 LINE",
"39 382 LINE",
"75 377 OFFCURVE",
"84 370 OFFCURVE",
"82 330 CURVE SMOOTH",
"71 57 LINE SMOOTH",
"70 47 OFFCURVE",
"123 -10 OFFCURVE",
"133 -10 CURVE SMOOTH"
);
}
);
width = 269;
}
);
unicode = 012B;
},
{
color = 4;
glyphname = i_n;
lastChange = "2020-02-10 15:43:11 +0000";
layers = (
{
layerId = "E35B076F-D533-4C92-BAB9-D65BCB0F4FA2";
paths = (
{
closed = 1;
nodes = (
"192 690 LINE",
"156 700 LINE",
"77 560 LINE",
"98 544 LINE"
);
},
{
closed = 1;
nodes = (
"677 28 LINE",
"677 57 LINE",
"660 67 OFFCURVE",
"655 79 OFFCURVE",
"654 113 CURVE SMOOTH",
"651 208 OFFCURVE",
"648 315 OFFCURVE",
"653 400 CURVE SMOOTH",
"653 420 OFFCURVE",
"573 465 OFFCURVE",
"553 465 CURVE",
"414 367 LINE",
"415 380 OFFCURVE",
"416 392 OFFCURVE",
"418 404 CURVE",
"415 424 OFFCURVE",
"329 465 OFFCURVE",
"309 465 CURVE",
"264 430 OFFCURVE",
"219 398 OFFCURVE",
"174 371 CURVE",
"176 385 OFFCURVE",
"179 399 OFFCURVE",
"181 414 CURVE",
"156 436 OFFCURVE",
"132 448 OFFCURVE",
"107 466 CURVE",
"106 466 LINE",
"25 408 LINE",
"25 378 LINE",
"55 378 OFFCURVE",
"62 366 OFFCURVE",
"62 336 CURVE SMOOTH",
"62 225 OFFCURVE",
"59 111 OFFCURVE",
"55 0 CURVE",
"172 0 LINE",
"165 87 OFFCURVE",
"163 135 OFFCURVE",
"163 223 CURVE SMOOTH",
"163 262 OFFCURVE",
"165 296 OFFCURVE",
"169 329 CURVE",
"190 342 OFFCURVE",
"215 351 OFFCURVE",
"237 351 CURVE SMOOTH",
"267 351 OFFCURVE",
"310 343 OFFCURVE",
"310 304 CURVE SMOOTH",
"310 200 OFFCURVE",
"306 96 OFFCURVE",
"303 0 CURVE",
"416 0 LINE",
"412 106 OFFCURVE",
"408 231 OFFCURVE",
"412 328 CURVE",
"434 339 OFFCURVE",
"459 351 OFFCURVE",
"489 351 CURVE SMOOTH",
"521 351 OFFCURVE",
"552 334 OFFCURVE",
"552 306 CURVE SMOOTH",
"552 221 OFFCURVE",
"547 74 OFFCURVE",
"545 -7 CURVE"
);
}
);
width = 717;
}
);
note = i_n;
},
{
color = 4;
glyphname = i_u;
lastChange = "2020-02-10 15:43:16 +0000";
layers = (
{
layerId = "E35B076F-D533-4C92-BAB9-D65BCB0F4FA2";
paths = (
{
closed = 1;
nodes = (
"182 680 LINE",
"149 700 LINE",
"87 540 LINE",
"108 524 LINE"
);
},
{
closed = 1;
nodes = (
"300 83 LINE",
"300 60 LINE",
"320 44 OFFCURVE",
"374 -10 OFFCURVE",
"406 -10 CURVE",
"434 14 OFFCURVE",
"480 43 OFFCURVE",
"525 68 CURVE",
"541 47 OFFCURVE",
"557 24 OFFCURVE",
"578 -10 CURVE",
"668 50 LINE",
"663 80 LINE",
"629 99 OFFCURVE",
"627 118 OFFCURVE",
"627 205 CURVE SMOOTH",
"627 290 OFFCURVE",
"632 355 OFFCURVE",
"640 406 CURVE",
"629 426 OFFCURVE",
"566 455 OFFCURVE",
"546 465 CURVE",
"544 465 LINE",
"457 365 LINE",
"468 346 LINE",
"518 374 OFFCURVE",
"528 322 OFFCURVE",
"528 269 CURVE SMOOTH",
"528 214 OFFCURVE",
"526 158 OFFCURVE",
"520 103 CURVE",
"480 88 OFFCURVE",
"440 86 OFFCURVE",
"403 106 CURVE",
"395 213 OFFCURVE",
"400 360 OFFCURVE",
"409 418 CURVE",
"395 438 OFFCURVE",
"364 447 OFFCURVE",
"331 463 CURVE",
"220 365 LINE",
"230 336 LINE",
"276 361 OFFCURVE",
"298 336 OFFCURVE",
"300 296 CURVE SMOOTH",
"302 249 OFFCURVE",
"301 178 OFFCURVE",
"301 119 CURVE",
"274 105 OFFCURVE",
"228 84 OFFCURVE",
"203 84 CURVE SMOOTH",
"171 84 OFFCURVE",
"162 104 OFFCURVE",
"159 146 CURVE SMOOTH",
"157 205 OFFCURVE",
"159 278 OFFCURVE",
"169 382 CURVE",
"169 413 OFFCURVE",
"122 451 OFFCURVE",
"95 465 CURVE",
"93 465 LINE",
"25 385 LINE",
"32 365 LINE",
"58 372 OFFCURVE",
"67 353 OFFCURVE",
"65 313 CURVE SMOOTH",
"54 75 LINE",
"52 59 OFFCURVE",
"131 -10 OFFCURVE",
"163 -10 CURVE"
);
}
);
width = 688;
}
);
leftMetricsKey = i;
note = i_u;
rightMetricsKey = u;
},
{
color = 4;
glyphname = i_j;
lastChange = "2020-02-10 15:43:26 +0000";
layers = (
{
layerId = "E35B076F-D533-4C92-BAB9-D65BCB0F4FA2";
paths = (
{
closed = 1;
nodes = (
"186 675 LINE",
"153 700 LINE",
"68 568 LINE",
"92 552 LINE"
);
},
{
closed = 1;
nodes = (
"384 675 LINE",
"384 680 LINE",
"358 700 LINE",
"351 700 LINE",
"259 573 LINE",
"280 555 LINE"
);
},
{
closed = 1;
nodes = (
"287 -87 OFFCURVE",
"363 0 OFFCURVE",
"363 115 CURVE SMOOTH",
"363 142 OFFCURVE",
"356 298 OFFCURVE",
"368 420 CURVE",
"259 467 LINE",
"257 467 LINE",
"160 397 LINE",
"161 406 OFFCURVE",
"163 414 OFFCURVE",
"164 422 CURVE",
"83 465 LINE",
"81 465 LINE",
"3 416 LINE",
"0 394 LINE",
"25 380 OFFCURVE",
"55 363 OFFCURVE",
"53 313 CURVE SMOOTH",
"42 57 LINE SMOOTH",
"41 47 OFFCURVE",
"94 -10 OFFCURVE",
"104 -10 CURVE SMOOTH",
"106 -10 LINE",
"267 71 LINE",
"267 57 LINE SMOOTH",
"267 12 OFFCURVE",
"247 -87 OFFCURVE",
"149 -189 CURVE",
"177 -210 LINE"
);
},
{
closed = 1;
nodes = (
"206 73 OFFCURVE",
"155 81 OFFCURVE",
"147 135 CURVE SMOOTH",
"141 178 OFFCURVE",
"142 260 OFFCURVE",
"154 354 CURVE",
"227 389 OFFCURVE",
"269 353 OFFCURVE",
"269 306 CURVE SMOOTH",
"267 109 LINE"
);
}
);
width = 414;
}
);
},
{
color = 4;
glyphname = j;
lastChange = "2020-01-30 13:06:29 +0000";
layers = (
{
layerId = "E35B076F-D533-4C92-BAB9-D65BCB0F4FA2";
paths = (
{
closed = 1;
nodes = (
"161 637 LINE",
"118 652 LINE",
"46 532 LINE",
"77 524 LINE"
);
},
{
closed = 1;
nodes = (
"88 -152 OFFCURVE",
"136 -25 OFFCURVE",
"160 19 CURVE",
"160 102 OFFCURVE",
"150 338 OFFCURVE",
"167 407 CURVE",
"84 465 LINE",
"82 465 LINE",
"21 404 LINE",
"20 374 LINE",
"46 379 OFFCURVE",
"54 363 OFFCURVE",
"54 323 CURVE SMOOTH",
"54 123 OFFCURVE",
"71 -38 OFFCURVE",
"24 -199 CURVE",
"63 -210 LINE"
);
}
);
width = 207;
}
);
unicode = 006A;
},
{
color = 4;
glyphname = k;
lastChange = "2020-01-30 13:06:29 +0000";
layers = (
{
layerId = "E35B076F-D533-4C92-BAB9-D65BCB0F4FA2";
paths = (
{
closed = 1;
nodes = (
"166 0 LINE",
"164 44 OFFCURVE",
"162 89 OFFCURVE",
"161 134 CURVE",
"194 162 OFFCURVE",
"227 193 OFFCURVE",
"259 224 CURVE",
"309 168 OFFCURVE",
"299 109 OFFCURVE",
"296 0 CURVE",
"417 0 LINE",
"417 30 LINE",
"390 47 OFFCURVE",
"394 87 OFFCURVE",
"383 208 CURVE SMOOTH",
"380 236 OFFCURVE",
"348 260 OFFCURVE",
"323 288 CURVE",
"358 323 OFFCURVE",
"388 355 OFFCURVE",
"408 375 CURVE",
"375 398 OFFCURVE",
"297 451 OFFCURVE",
"272 466 CURVE",
"159 371 LINE",
"160 483 OFFCURVE",
"162 597 OFFCURVE",
"163 710 CURVE",
"30 690 LINE",
"30 664 LINE",
"57 656 OFFCURVE",
"63 650 OFFCURVE",
"63 590 CURVE SMOOTH",
"63 425 OFFCURVE",
"68 191 OFFCURVE",
"60 0 CURVE"
);
},
{
closed = 1;
nodes = (
"159 224 OFFCURVE",
"159 271 OFFCURVE",
"159 319 CURVE",
"180 353 OFFCURVE",
"202 372 OFFCURVE",
"223 382 CURVE",
"231 382 OFFCURVE",
"300 346 OFFCURVE",
"307 324 CURVE",
"266 265 OFFCURVE",
"204 212 OFFCURVE",
"160 177 CURVE"
);
}
);
width = 447;
}
);
note = k;
rightMetricsKey = n;
unicode = 006B;
},
{
color = 4;
glyphname = l;
lastChange = "2020-01-30 13:06:29 +0000";
layers = (
{
layerId = "E35B076F-D533-4C92-BAB9-D65BCB0F4FA2";
paths = (
{
closed = 1;
nodes = (
"180 21 OFFCURVE",
"199 42 OFFCURVE",
"218 57 CURVE",
"218 77 LINE",
"166 97 OFFCURVE",
"147 110 OFFCURVE",
"147 160 CURVE SMOOTH",
"147 258 OFFCURVE",
"152 633 OFFCURVE",
"158 710 CURVE",
"157 714 LINE",
"15 694 LINE",
"15 664 LINE",
"43 659 OFFCURVE",
"52 643 OFFCURVE",
"53 586 CURVE SMOOTH",
"54 510 OFFCURVE",
"58 353 OFFCURVE",
"52 71 CURVE",
"139 -10 LINE"
);
}
);
width = 228;
}
);
note = l;
unicode = 006C;
},
{
color = 4;
glyphname = l_hook;
lastChange = "2020-01-30 13:06:29 +0000";
layers = (
{
layerId = "E35B076F-D533-4C92-BAB9-D65BCB0F4FA2";
paths = (
{
closed = 1;
nodes = (
"145 -10 LINE SMOOTH",
"174 -10 OFFCURVE",
"229 36 OFFCURVE",
"278 69 CURVE",
"267 90 LINE",
"170 67 OFFCURVE",
"148 103 OFFCURVE",
"148 143 CURVE SMOOTH",
"148 175 OFFCURVE",
"150 261 OFFCURVE",
"153 357 CURVE",
"259 435 OFFCURVE",
"392 529 OFFCURVE",
"392 578 CURVE SMOOTH",
"392 631 OFFCURVE",
"353 711 OFFCURVE",
"317 711 CURVE SMOOTH",
"279 711 OFFCURVE",
"217 671 OFFCURVE",
"158 629 CURVE",
"159 661 OFFCURVE",
"159 686 OFFCURVE",
"158 700 CURVE",
"157 704 LINE",
"25 674 LINE",
"25 664 LINE",
"36 661 OFFCURVE",
"43 612 OFFCURVE",
"45 597 CURVE SMOOTH",
"55 521 OFFCURVE",
"59 362 OFFCURVE",
"45 80 CURVE SMOOTH",
"44 60 OFFCURVE",
"90 -10 OFFCURVE",
"140 -10 CURVE SMOOTH"
);
},
{
closed = 1;
nodes = (
"155 467 OFFCURVE",
"157 541 OFFCURVE",
"158 600 CURVE",
"242 648 OFFCURVE",
"307 627 OFFCURVE",
"307 579 CURVE SMOOTH",
"307 511 OFFCURVE",
"243 460 OFFCURVE",
"153 396 CURVE"
);
}
);
width = 302;
}
);
},
{
color = 4;
glyphname = l_i;
lastChange = "2020-02-10 15:43:38 +0000";
layers = (
{
layerId = "E35B076F-D533-4C92-BAB9-D65BCB0F4FA2";
paths = (
{
closed = 1;
nodes = (
"115 -10 LINE",
"272 86 LINE",
"271 57 LINE SMOOTH",
"270 47 OFFCURVE",
"323 -10 OFFCURVE",
"333 -10 CURVE SMOOTH",
"335 -10 LINE",
"420 50 LINE",
"413 79 LINE",
"391 79 OFFCURVE",
"383 90 OFFCURVE",
"381 104 CURVE SMOOTH",
"377 131 OFFCURVE",
"371 290 OFFCURVE",
"393 412 CURVE",
"322 465 LINE",
"320 465 LINE",
"232 405 LINE",
"239 382 LINE",
"275 377 OFFCURVE",
"284 370 OFFCURVE",
"282 330 CURVE SMOOTH",
"274 134 LINE",
"248 109 OFFCURVE",
"197 90 OFFCURVE",
"170 90 CURVE SMOOTH",
"145 90 OFFCURVE",
"138 113 OFFCURVE",
"138 153 CURVE SMOOTH",
"138 231 OFFCURVE",
"151 623 OFFCURVE",
"148 700 CURVE",
"147 704 LINE",
"15 674 LINE",
"15 664 LINE",
"26 661 OFFCURVE",
"33 612 OFFCURVE",
"35 597 CURVE SMOOTH",
"45 521 OFFCURVE",
"49 362 OFFCURVE",
"35 80 CURVE SMOOTH",
"34 60 OFFCURVE",
"100 -10 OFFCURVE",
"110 -10 CURVE SMOOTH"
);
},
{
closed = 1;
nodes = (
"398 667 LINE",
"348 672 LINE",
"313 549 LINE",
"337 544 LINE"
);
}
);
width = 445;
}
);
leftMetricsKey = l;
note = l_i;
rightMetricsKey = i;
},
{
color = 4;
glyphname = l_u;
lastChange = "2020-02-10 15:43:43 +0000";
layers = (
{
layerId = "E35B076F-D533-4C92-BAB9-D65BCB0F4FA2";
paths = (
{
closed = 1;
nodes = (
"134 -10 LINE",
"263 79 LINE",
"263 60 LINE",
"283 44 OFFCURVE",
"337 -10 OFFCURVE",
"369 -10 CURVE",
"399 16 OFFCURVE",
"451 48 OFFCURVE",
"500 75 CURVE",
"517 52 OFFCURVE",
"535 28 OFFCURVE",
"558 -10 CURVE",
"648 50 LINE",
"643 80 LINE",
"609 99 OFFCURVE",
"607 118 OFFCURVE",
"607 205 CURVE SMOOTH",
"607 290 OFFCURVE",
"612 346 OFFCURVE",
"620 397 CURVE",
"609 417 OFFCURVE",
"546 455 OFFCURVE",
"526 465 CURVE",
"524 465 LINE",
"437 375 LINE",
"448 356 LINE",
"498 374 OFFCURVE",
"508 322 OFFCURVE",
"508 269 CURVE SMOOTH",
"508 216 OFFCURVE",
"506 163 OFFCURVE",
"501 110 CURVE",
"470 96 OFFCURVE",
"444 90 OFFCURVE",
"422 90 CURVE SMOOTH",
"395 90 OFFCURVE",
"374 91 OFFCURVE",
"366 106 CURVE",
"364 213 OFFCURVE",
"363 341 OFFCURVE",
"372 399 CURVE",
"357 420 OFFCURVE",
"317 449 OFFCURVE",
"282 466 CURVE",
"280 466 LINE",
"223 429 OFFCURVE",
"174 377 OFFCURVE",
"119 337 CURVE",
"121 474 OFFCURVE",
"129 620 OFFCURVE",
"135 700 CURVE",
"134 704 LINE",
"15 694 LINE",
"30 579 OFFCURVE",
"18 324 OFFCURVE",
"21 119 CURVE",
"111 -10 LINE"
);
},
{
closed = 1;
nodes = (
"130 130 OFFCURVE",
"119 181 OFFCURVE",
"119 294 CURVE SMOOTH",
"119 304 LINE",
"151 328 OFFCURVE",
"218 365 OFFCURVE",
"264 365 CURVE",
"269 316 OFFCURVE",
"266 201 OFFCURVE",
"264 121 CURVE",
"209 99 OFFCURVE",
"169 100 OFFCURVE",
"144 110 CURVE"
);
}
);
width = 668;
}
);
leftMetricsKey = l;
note = l_u;
rightMetricsKey = u;
},
{
color = 4;
glyphname = m;
lastChange = "2020-01-30 13:06:29 +0000";
layers = (
{
layerId = "E35B076F-D533-4C92-BAB9-D65BCB0F4FA2";
paths = (
{
closed = 1;
nodes = (
"677 28 LINE",
"677 57 LINE",
"660 67 OFFCURVE",
"655 79 OFFCURVE",
"654 113 CURVE SMOOTH",
"651 208 OFFCURVE",
"648 315 OFFCURVE",
"653 400 CURVE SMOOTH",
"653 420 OFFCURVE",
"573 465 OFFCURVE",
"553 465 CURVE",
"414 367 LINE",
"415 380 OFFCURVE",
"416 392 OFFCURVE",
"418 404 CURVE",
"415 424 OFFCURVE",
"329 465 OFFCURVE",
"309 465 CURVE",
"264 430 OFFCURVE",
"219 398 OFFCURVE",
"174 371 CURVE",
"176 385 OFFCURVE",
"179 399 OFFCURVE",
"181 414 CURVE",
"156 436 OFFCURVE",
"132 448 OFFCURVE",
"107 466 CURVE",
"106 466 LINE",
"25 408 LINE",
"25 378 LINE",
"55 378 OFFCURVE",
"62 366 OFFCURVE",
"62 336 CURVE SMOOTH",
"62 225 OFFCURVE",
"59 111 OFFCURVE",
"55 0 CURVE",
"172 0 LINE",
"165 87 OFFCURVE",
"163 135 OFFCURVE",
"163 223 CURVE SMOOTH",
"163 262 OFFCURVE",
"165 296 OFFCURVE",
"169 329 CURVE",
"190 342 OFFCURVE",
"215 351 OFFCURVE",
"237 351 CURVE SMOOTH",
"267 351 OFFCURVE",
"310 343 OFFCURVE",
"310 304 CURVE SMOOTH",
"310 200 OFFCURVE",
"306 96 OFFCURVE",
"303 0 CURVE",
"416 0 LINE",
"412 106 OFFCURVE",
"408 231 OFFCURVE",
"412 328 CURVE",
"434 339 OFFCURVE",
"459 351 OFFCURVE",
"489 351 CURVE SMOOTH",
"521 351 OFFCURVE",
"552 334 OFFCURVE",
"552 306 CURVE SMOOTH",
"552 221 OFFCURVE",
"547 74 OFFCURVE",
"545 -7 CURVE"
);
}
);
width = 707;
}
);
leftMetricsKey = n;
note = m;
rightMetricsKey = n;
unicode = 006D;
},
{
color = 4;
glyphname = m_macr;
lastChange = "2020-01-30 13:06:29 +0000";
layers = (
{
layerId = "E35B076F-D533-4C92-BAB9-D65BCB0F4FA2";
paths = (
{
closed = 1;
nodes = (
"225 563 OFFCURVE",
"310 565 OFFCURVE",
"374 560 CURVE SMOOTH",
"507 549 LINE",
"573 634 LINE",
"558 640 LINE",
"508 629 OFFCURVE",
"359 631 OFFCURVE",
"267 631 CURVE",
"232 605 OFFCURVE",
"194 569 OFFCURVE",
"170 535 CURVE",
"190 525 LINE"
);
},
{
closed = 1;
nodes = (
"677 28 LINE",
"677 57 LINE",
"660 67 OFFCURVE",
"655 79 OFFCURVE",
"654 113 CURVE SMOOTH",
"651 208 OFFCURVE",
"648 315 OFFCURVE",
"653 400 CURVE SMOOTH",
"653 420 OFFCURVE",
"573 465 OFFCURVE",
"553 465 CURVE",
"414 367 LINE",
"415 380 OFFCURVE",
"416 392 OFFCURVE",
"418 404 CURVE",
"415 424 OFFCURVE",
"329 465 OFFCURVE",
"309 465 CURVE",
"264 430 OFFCURVE",
"219 398 OFFCURVE",
"174 371 CURVE",
"176 385 OFFCURVE",
"179 399 OFFCURVE",
"181 414 CURVE",
"156 436 OFFCURVE",
"132 448 OFFCURVE",
"107 466 CURVE",
"106 466 LINE",
"25 408 LINE",
"25 378 LINE",
"55 378 OFFCURVE",
"62 366 OFFCURVE",
"62 336 CURVE SMOOTH",
"62 225 OFFCURVE",
"59 111 OFFCURVE",
"55 0 CURVE",
"172 0 LINE",
"165 87 OFFCURVE",
"163 135 OFFCURVE",
"163 223 CURVE SMOOTH",
"163 262 OFFCURVE",
"165 296 OFFCURVE",
"169 329 CURVE",
"190 342 OFFCURVE",
"215 351 OFFCURVE",
"237 351 CURVE SMOOTH",
"267 351 OFFCURVE",
"310 343 OFFCURVE",
"310 304 CURVE SMOOTH",
"310 200 OFFCURVE",
"306 96 OFFCURVE",
"303 0 CURVE",
"416 0 LINE",
"412 106 OFFCURVE",
"408 231 OFFCURVE",
"412 328 CURVE",
"434 339 OFFCURVE",
"459 351 OFFCURVE",
"489 351 CURVE SMOOTH",
"521 351 OFFCURVE",
"552 334 OFFCURVE",
"552 306 CURVE SMOOTH",
"552 221 OFFCURVE",
"547 74 OFFCURVE",
"545 -7 CURVE"
);
}
);
width = 674;
}
);
note = m_macr;
unicode = E5B8;
},
{
color = 4;
glyphname = n;
lastChange = "2020-01-30 13:06:29 +0000";
layers = (
{
layerId = "E35B076F-D533-4C92-BAB9-D65BCB0F4FA2";
paths = (
{
closed = 1;
nodes = (
"412 20 LINE",
"412 57 LINE",
"396 66 OFFCURVE",
"391 81 OFFCURVE",
"390 111 CURVE SMOOTH",
"387 206 OFFCURVE",
"382 300 OFFCURVE",
"390 386 CURVE",
"390 406 OFFCURVE",
"350 445 OFFCURVE",
"297 465 CURVE",
"166 376 LINE",
"146 412 OFFCURVE",
"126 441 OFFCURVE",
"105 465 CURVE",
"25 395 LINE",
"25 365 LINE",
"47 365 OFFCURVE",
"62 345 OFFCURVE",
"62 325 CURVE SMOOTH",
"62 205 OFFCURVE",
"57 111 OFFCURVE",
"52 0 CURVE",
"165 0 LINE",
"159 113 OFFCURVE",
"162 225 OFFCURVE",
"165 338 CURVE",
"184 347 OFFCURVE",
"205 354 OFFCURVE",
"232 354 CURVE SMOOTH",
"262 354 OFFCURVE",
"287 330 OFFCURVE",
"287 269 CURVE SMOOTH",
"287 176 OFFCURVE",
"285 100 OFFCURVE",
"277 0 CURVE",
"283 -3 LINE"
);
}
);
width = 442;
}
);
note = n;
unicode = 006E;
},
{
color = 4;
glyphname = n_macr;
lastChange = "2020-02-10 15:43:53 +0000";
layers = (
{
layerId = "E35B076F-D533-4C92-BAB9-D65BCB0F4FA2";
paths = (
{
closed = 1;
nodes = (
"97 578 OFFCURVE",
"182 580 OFFCURVE",
"246 574 CURVE SMOOTH",
"349 566 LINE",
"386 640 LINE",
"385 646 LINE",
"165 646 LINE",
"130 620 OFFCURVE",
"67 584 OFFCURVE",
"43 550 CURVE",
"63 540 LINE"
);
},
{
closed = 1;
nodes = (
"412 20 LINE",
"412 57 LINE",
"396 66 OFFCURVE",
"391 81 OFFCURVE",
"390 111 CURVE SMOOTH",
"387 206 OFFCURVE",
"382 300 OFFCURVE",
"390 386 CURVE",
"390 406 OFFCURVE",
"350 445 OFFCURVE",
"297 465 CURVE",
"166 376 LINE",
"146 412 OFFCURVE",
"126 441 OFFCURVE",
"105 465 CURVE",
"25 395 LINE",
"25 365 LINE",
"47 365 OFFCURVE",
"62 345 OFFCURVE",
"62 325 CURVE SMOOTH",
"62 205 OFFCURVE",
"57 111 OFFCURVE",
"52 0 CURVE",
"165 0 LINE",
"159 113 OFFCURVE",
"162 225 OFFCURVE",
"165 338 CURVE",
"184 347 OFFCURVE",
"205 354 OFFCURVE",
"232 354 CURVE SMOOTH",
"262 354 OFFCURVE",
"287 330 OFFCURVE",
"287 269 CURVE SMOOTH",
"287 176 OFFCURVE",
"285 100 OFFCURVE",
"277 0 CURVE",
"283 -3 LINE"
);
}
);
width = 442;
}
);
leftMetricsKey = n;
note = n_macr;
rightMetricsKey = n;
unicode = E5DC;
},
{
color = 4;
glyphname = n_i;
lastChange = "2020-01-30 13:06:29 +0000";
layers = (
{
layerId = "E35B076F-D533-4C92-BAB9-D65BCB0F4FA2";
paths = (
{
closed = 1;
nodes = (
"632 680 LINE",
"584 700 LINE",
"538 600 LINE",
"568 582 LINE"
);
},
{
closed = 1;
nodes = (
"677 28 LINE",
"677 57 LINE",
"660 67 OFFCURVE",
"655 79 OFFCURVE",
"654 113 CURVE SMOOTH",
"651 208 OFFCURVE",
"648 315 OFFCURVE",
"653 400 CURVE SMOOTH",
"653 420 OFFCURVE",
"573 465 OFFCURVE",
"553 465 CURVE",
"414 367 LINE",
"415 380 OFFCURVE",
"416 392 OFFCURVE",
"418 404 CURVE",
"415 424 OFFCURVE",
"329 465 OFFCURVE",
"309 465 CURVE",
"264 430 OFFCURVE",
"219 398 OFFCURVE",
"174 371 CURVE",
"176 385 OFFCURVE",
"179 399 OFFCURVE",
"181 414 CURVE",
"156 436 OFFCURVE",
"132 448 OFFCURVE",
"107 466 CURVE",
"106 466 LINE",
"25 408 LINE",
"25 378 LINE",
"55 378 OFFCURVE",
"62 366 OFFCURVE",
"62 336 CURVE SMOOTH",
"62 225 OFFCURVE",
"59 111 OFFCURVE",
"55 0 CURVE",
"172 0 LINE",
"165 87 OFFCURVE",
"163 135 OFFCURVE",
"163 223 CURVE SMOOTH",
"163 262 OFFCURVE",
"165 296 OFFCURVE",
"169 329 CURVE",
"190 342 OFFCURVE",
"215 351 OFFCURVE",
"237 351 CURVE SMOOTH",
"267 351 OFFCURVE",
"310 343 OFFCURVE",
"310 304 CURVE SMOOTH",
"310 200 OFFCURVE",
"306 96 OFFCURVE",
"303 0 CURVE",
"416 0 LINE",
"412 106 OFFCURVE",
"408 231 OFFCURVE",
"412 328 CURVE",
"434 339 OFFCURVE",
"459 351 OFFCURVE",
"489 351 CURVE SMOOTH",
"521 351 OFFCURVE",
"552 334 OFFCURVE",
"552 306 CURVE SMOOTH",
"552 221 OFFCURVE",
"547 74 OFFCURVE",
"545 -7 CURVE"
);
}
);
width = 702;
}
);
leftMetricsKey = n;
rightMetricsKey = i;
},
{
color = 4;
glyphname = o;
lastChange = "2020-01-30 13:06:29 +0000";
layers = (
{
layerId = "E35B076F-D533-4C92-BAB9-D65BCB0F4FA2";
paths = (
{
closed = 1;
nodes = (
"354 68 OFFCURVE",
"451 108 OFFCURVE",
"451 258 CURVE SMOOTH",
"451 358 OFFCURVE",
"364 465 OFFCURVE",
"226 465 CURVE",
"128 440 OFFCURVE",
"25 327 OFFCURVE",
"25 217 CURVE SMOOTH",
"25 107 OFFCURVE",
"104 1 OFFCURVE",
"265 -10 CURVE"
);
},
{
closed = 1;
nodes = (
"195 82 OFFCURVE",
"106 161 OFFCURVE",
"106 271 CURVE SMOOTH",
"106 310 OFFCURVE",
"123 362 OFFCURVE",
"158 380 CURVE",
"272 393 OFFCURVE",
"371 307 OFFCURVE",
"371 217 CURVE SMOOTH",
"371 157 OFFCURVE",
"347 112 OFFCURVE",
"306 83 CURVE"
);
}
);
width = 476;
}
);
note = o;
unicode = 006F;
},
{
color = 4;
glyphname = o_macr;
lastChange = "2020-01-30 13:06:29 +0000";
layers = (
{
layerId = "E35B076F-D533-4C92-BAB9-D65BCB0F4FA2";
paths = (
{
closed = 1;
nodes = (
"83 573 OFFCURVE",
"168 575 OFFCURVE",
"232 570 CURVE SMOOTH",
"365 559 LINE",
"401 634 LINE",
"400 640 LINE",
"125 641 LINE",
"90 615 OFFCURVE",
"52 579 OFFCURVE",
"28 545 CURVE",
"48 535 LINE"
);
},
{
closed = 1;
nodes = (
"354 68 OFFCURVE",
"451 108 OFFCURVE",
"451 258 CURVE SMOOTH",
"451 358 OFFCURVE",
"364 465 OFFCURVE",
"226 465 CURVE",
"128 440 OFFCURVE",
"25 327 OFFCURVE",
"25 217 CURVE SMOOTH",
"25 107 OFFCURVE",
"104 1 OFFCURVE",
"265 -10 CURVE"
);
},
{
closed = 1;
nodes = (
"195 82 OFFCURVE",
"106 161 OFFCURVE",
"106 271 CURVE SMOOTH",
"106 310 OFFCURVE",
"123 362 OFFCURVE",
"158 380 CURVE",
"272 393 OFFCURVE",
"371 307 OFFCURVE",
"371 217 CURVE SMOOTH",
"371 157 OFFCURVE",
"347 112 OFFCURVE",
"306 83 CURVE"
);
}
);
width = 476;
}
);
leftMetricsKey = o;
rightMetricsKey = o;
unicode = 014D;
},
{
color = 4;
glyphname = o_e;
lastChange = "2020-01-30 13:06:29 +0000";
layers = (
{
layerId = "E35B076F-D533-4C92-BAB9-D65BCB0F4FA2";
paths = (
{
closed = 1;
nodes = (
"678 374 OFFCURVE",
"639 443 OFFCURVE",
"554 464 CURVE",
"517 436 OFFCURVE",
"459 399 OFFCURVE",
"415 369 CURVE",
"377 424 OFFCURVE",
"311 465 OFFCURVE",
"226 465 CURVE",
"128 440 OFFCURVE",
"25 327 OFFCURVE",
"25 217 CURVE SMOOTH",
"25 107 OFFCURVE",
"104 1 OFFCURVE",
"265 -10 CURVE",
"312 31 OFFCURVE",
"361 61 OFFCURVE",
"397 103 CURVE",
"423 26 OFFCURVE",
"475 -10 OFFCURVE",
"509 -10 CURVE SMOOTH",
"544 -10 OFFCURVE",
"609 18 OFFCURVE",
"659 57 CURVE",
"649 87 LINE",
"566 51 OFFCURVE",
"508 81 OFFCURVE",
"483 149 CURVE",
"701 293 LINE",
"708 320 LINE"
);
},
{
closed = 1;
nodes = (
"195 82 OFFCURVE",
"106 161 OFFCURVE",
"106 271 CURVE SMOOTH",
"106 310 OFFCURVE",
"123 362 OFFCURVE",
"158 380 CURVE",
"272 393 OFFCURVE",
"371 307 OFFCURVE",
"371 217 CURVE SMOOTH",
"371 157 OFFCURVE",
"347 112 OFFCURVE",
"306 83 CURVE"
);
},
{
closed = 1;
nodes = (
"471 199 OFFCURVE",
"470 215 OFFCURVE",
"470 232 CURVE SMOOTH",
"470 267 OFFCURVE",
"473 326 OFFCURVE",
"485 378 CURVE",
"539 375 OFFCURVE",
"604 332 OFFCURVE",
"607 299 CURVE SMOOTH",
"609 275 OFFCURVE",
"592 263 OFFCURVE",
"474 184 CURVE"
);
}
);
width = 718;
}
);
leftMetricsKey = o;
note = o_e;
rightMetricsKey = e;
},
{
color = 4;
glyphname = o_r;
lastChange = "2020-01-30 13:06:29 +0000";
layers = (
{
layerId = "E35B076F-D533-4C92-BAB9-D65BCB0F4FA2";
paths = (
{
closed = 1;
nodes = (
"559 469 LINE",
"423 365 LINE",
"385 422 OFFCURVE",
"318 465 OFFCURVE",
"231 465 CURVE",
"133 440 OFFCURVE",
"30 327 OFFCURVE",
"30 217 CURVE SMOOTH",
"30 107 OFFCURVE",
"109 1 OFFCURVE",
"270 -10 CURVE",
"359 68 OFFCURVE",
"456 108 OFFCURVE",
"456 258 CURVE SMOOTH",
"456 283 OFFCURVE",
"450 309 OFFCURVE",
"440 333 CURVE",
"457 347 OFFCURVE",
"489 370 OFFCURVE",
"525 370 CURVE SMOOTH",
"555 370 OFFCURVE",
"596 349 OFFCURVE",
"593 306 CURVE SMOOTH",
"590 266 OFFCURVE",
"576 216 OFFCURVE",
"463 103 CURVE",
"462 98 LINE",
"508 51 OFFCURVE",
"532 20 OFFCURVE",
"595 -10 CURVE",
"700 83 LINE",
"678 104 LINE",
"669 95 OFFCURVE",
"658 87 OFFCURVE",
"643 87 CURVE SMOOTH",
"612 87 OFFCURVE",
"573 109 OFFCURVE",
"544 136 CURVE",
"611 213 OFFCURVE",
"703 300 OFFCURVE",
"707 348 CURVE SMOOTH",
"713 418 OFFCURVE",
"647 459 OFFCURVE",
"568 468 CURVE SMOOTH"
);
},
{
closed = 1;
nodes = (
"200 82 OFFCURVE",
"111 161 OFFCURVE",
"111 271 CURVE SMOOTH",
"111 310 OFFCURVE",
"128 362 OFFCURVE",
"163 380 CURVE",
"277 393 OFFCURVE",
"376 307 OFFCURVE",
"376 217 CURVE SMOOTH",
"376 157 OFFCURVE",
"352 112 OFFCURVE",
"311 83 CURVE"
);
}
);
width = 717;
}
);
leftMetricsKey = e;
note = o_r.alt;
rightMetricsKey = r.ss01;
},
{
color = 4;
glyphname = p;
lastChange = "2020-02-10 15:44:50 +0000";
layers = (
{
layerId = "E35B076F-D533-4C92-BAB9-D65BCB0F4FA2";
paths = (
{
closed = 1;
nodes = (
"170 -243 LINE",
"169 -182 OFFCURVE",
"166 -92 OFFCURVE",
"165 4 CURVE",
"300 0 LINE",
"348 40 OFFCURVE",
"492 133 OFFCURVE",
"492 243 CURVE SMOOTH",
"492 354 OFFCURVE",
"431 433 OFFCURVE",
"295 465 CURVE",
"170 365 LINE",
"170 366 LINE",
"157 386 OFFCURVE",
"127 454 OFFCURVE",
"99 472 CURVE",
"15 399 LINE",
"15 359 LINE",
"47 376 OFFCURVE",
"62 363 OFFCURVE",
"62 333 CURVE SMOOTH",
"62 139 OFFCURVE",
"61 -56 OFFCURVE",
"52 -250 CURVE"
);
},
{
closed = 1;
nodes = (
"226 73 OFFCURVE",
"195 79 OFFCURVE",
"164 82 CURVE",
"163 168 OFFCURVE",
"164 253 OFFCURVE",
"167 319 CURVE",
"193 340 OFFCURVE",
"221 358 OFFCURVE",
"275 358 CURVE SMOOTH",
"347 358 OFFCURVE",
"409 291 OFFCURVE",
"409 210 CURVE SMOOTH",
"409 133 OFFCURVE",
"351 73 OFFCURVE",
"266 73 CURVE SMOOTH"
);
}
);
width = 517;
}
);
note = p;
rightMetricsKey = o;
unicode = 0070;
},
{
color = 4;
glyphname = p_bardes;
lastChange = "2020-02-10 15:45:01 +0000";
layers = (
{
layerId = "E35B076F-D533-4C92-BAB9-D65BCB0F4FA2";
paths = (
{
closed = 1;
nodes = (
"299 0 LINE",
"347 40 OFFCURVE",
"491 133 OFFCURVE",
"491 243 CURVE SMOOTH",
"491 354 OFFCURVE",
"430 433 OFFCURVE",
"294 465 CURVE",
"169 365 LINE",
"169 366 LINE",
"156 386 OFFCURVE",
"126 454 OFFCURVE",
"98 472 CURVE",
"14 399 LINE",
"14 359 LINE",
"46 376 OFFCURVE",
"61 363 OFFCURVE",
"61 333 CURVE SMOOTH",
"61 247 OFFCURVE",
"61 162 OFFCURVE",
"60 76 CURVE",
"-15 38 LINE",
"-10 21 LINE",
"59 15 LINE",
"58 -21 OFFCURVE",
"58 -57 OFFCURVE",
"57 -92 CURVE",
"31 -92 LINE",
"-9 -137 LINE",
"1 -148 LINE",
"19 -148 OFFCURVE",
"37 -148 OFFCURVE",
"55 -149 CURVE",
"54 -183 OFFCURVE",
"53 -216 OFFCURVE",
"51 -250 CURVE",
"169 -243 LINE",
"169 -218 OFFCURVE",
"168 -187 OFFCURVE",
"167 -154 CURVE",
"242 -158 OFFCURVE",
"317 -164 OFFCURVE",
"388 -173 CURVE",
"401 -150 OFFCURVE",
"416 -127 OFFCURVE",
"435 -104 CURVE",
"435 -99 LINE",
"166 -94 LINE",
"165 -63 OFFCURVE",
"164 -30 OFFCURVE",
"164 4 CURVE"
);
},
{
closed = 1;
nodes = (
"192 340 OFFCURVE",
"220 358 OFFCURVE",
"274 358 CURVE SMOOTH",
"346 358 OFFCURVE",
"408 291 OFFCURVE",
"408 210 CURVE SMOOTH",
"408 133 OFFCURVE",
"350 73 OFFCURVE",
"265 73 CURVE SMOOTH",
"225 73 OFFCURVE",
"194 79 OFFCURVE",
"163 82 CURVE",
"162 168 OFFCURVE",
"163 253 OFFCURVE",
"166 319 CURVE"
);
}
);
width = 516;
}
);
note = per;
rightMetricsKey = p;
unicode = A750;
},
{
color = 4;
glyphname = p_hook;
lastChange = "2020-02-10 15:45:04 +0000";
layers = (
{
layerId = "E35B076F-D533-4C92-BAB9-D65BCB0F4FA2";
paths = (
{
closed = 1;
nodes = (
"217 485 OFFCURVE",
"309 525 OFFCURVE",
"309 599 CURVE SMOOTH",
"309 648 OFFCURVE",
"260 686 OFFCURVE",
"210 686 CURVE",
"145 634 LINE",
"148 618 LINE",
"185 618 OFFCURVE",
"233 606 OFFCURVE",
"233 559 CURVE SMOOTH",
"233 521 OFFCURVE",
"210 508 OFFCURVE",
"174 482 CURVE",
"183 469 LINE"
);
},
{
closed = 1;
nodes = (
"180 -243 LINE",
"179 -182 OFFCURVE",
"176 -92 OFFCURVE",
"175 4 CURVE",
"310 0 LINE",
"358 40 OFFCURVE",
"502 133 OFFCURVE",
"502 243 CURVE SMOOTH",
"502 354 OFFCURVE",
"441 433 OFFCURVE",
"305 465 CURVE",
"180 365 LINE",
"180 366 LINE",
"167 386 OFFCURVE",
"137 454 OFFCURVE",
"109 472 CURVE",
"25 399 LINE",
"25 359 LINE",
"57 376 OFFCURVE",
"72 363 OFFCURVE",
"72 333 CURVE SMOOTH",
"72 139 OFFCURVE",
"71 -56 OFFCURVE",
"62 -250 CURVE"
);
},
{
closed = 1;
nodes = (
"236 73 OFFCURVE",
"205 79 OFFCURVE",
"174 82 CURVE",
"173 168 OFFCURVE",
"174 253 OFFCURVE",
"177 319 CURVE",
"203 340 OFFCURVE",
"231 358 OFFCURVE",
"285 358 CURVE SMOOTH",
"357 358 OFFCURVE",
"419 291 OFFCURVE",
"419 210 CURVE SMOOTH",
"419 133 OFFCURVE",
"361 73 OFFCURVE",
"276 73 CURVE SMOOTH"
);
}
);
width = 527;
}
);
rightMetricsKey = p;
},
{
color = 4;
glyphname = p_macr;
lastChange = "2020-02-10 15:45:08 +0000";
layers = (
{
layerId = "E35B076F-D533-4C92-BAB9-D65BCB0F4FA2";
paths = (
{
closed = 1;
nodes = (
"219 544 OFFCURVE",
"243 548 OFFCURVE",
"307 546 CURVE SMOOTH",
"372 544 LINE",
"458 657 LINE",
"420 662 LINE",
"399 616 OFFCURVE",
"330 629 OFFCURVE",
"252 617 CURVE",
"221 586 OFFCURVE",
"180 552 OFFCURVE",
"141 516 CURVE",
"162 501 LINE"
);
},
{
closed = 1;
nodes = (
"242 -227 LINE",
"170 -225 LINE",
"165 4 LINE",
"300 0 LINE",
"348 40 OFFCURVE",
"492 133 OFFCURVE",
"492 243 CURVE SMOOTH",
"492 354 OFFCURVE",
"431 433 OFFCURVE",
"295 465 CURVE",
"165 361 LINE",
"166 394 OFFCURVE",
"168 423 OFFCURVE",
"170 446 CURVE",
"15 438 LINE",
"15 398 LINE",
"57 396 OFFCURVE",
"62 382 OFFCURVE",
"62 352 CURVE SMOOTH",
"62 168 OFFCURVE",
"58 10 OFFCURVE",
"53 -176 CURVE SMOOTH",
"52 -215 OFFCURVE",
"52 -215 OFFCURVE",
"30 -230 CURVE",
"25 -256 LINE",
"232 -263 LINE"
);
},
{
closed = 1;
nodes = (
"226 73 OFFCURVE",
"195 79 OFFCURVE",
"164 82 CURVE",
"163 164 OFFCURVE",
"163 247 OFFCURVE",
"164 317 CURVE",
"191 338 OFFCURVE",
"219 358 OFFCURVE",
"275 358 CURVE SMOOTH",
"347 358 OFFCURVE",
"409 291 OFFCURVE",
"409 210 CURVE SMOOTH",
"409 133 OFFCURVE",
"351 73 OFFCURVE",
"266 73 CURVE SMOOTH"
);
}
);
width = 517;
}
);
leftMetricsKey = p;
note = p_macr;
rightMetricsKey = p;
unicode = E665;
},
{
color = 4;
glyphname = p_e;
lastChange = "2020-02-10 15:45:12 +0000";
layers = (
{
layerId = "E35B076F-D533-4C92-BAB9-D65BCB0F4FA2";
paths = (
{
closed = 1;
nodes = (
"713 374 OFFCURVE",
"674 443 OFFCURVE",
"589 464 CURVE",
"553 437 OFFCURVE",
"497 401 OFFCURVE",
"454 372 CURVE",
"422 415 OFFCURVE",
"370 447 OFFCURVE",
"295 465 CURVE",
"170 365 LINE",
"170 366 LINE",
"157 386 OFFCURVE",
"127 454 OFFCURVE",
"99 472 CURVE",
"15 399 LINE",
"15 359 LINE",
"47 376 OFFCURVE",
"62 363 OFFCURVE",
"62 333 CURVE SMOOTH",
"62 139 OFFCURVE",
"61 -56 OFFCURVE",
"52 -250 CURVE",
"170 -243 LINE",
"169 -182 OFFCURVE",
"166 -92 OFFCURVE",
"165 4 CURVE",
"300 0 LINE",
"327 22 OFFCURVE",
"384 62 OFFCURVE",
"429 111 CURVE",
"455 28 OFFCURVE",
"509 -10 OFFCURVE",
"544 -10 CURVE SMOOTH",
"579 -10 OFFCURVE",
"644 18 OFFCURVE",
"694 57 CURVE",
"684 87 LINE",
"601 51 OFFCURVE",
"543 81 OFFCURVE",
"518 149 CURVE",
"736 293 LINE",
"743 320 LINE"
);
},
{
closed = 1;
nodes = (
"506 199 OFFCURVE",
"505 215 OFFCURVE",
"505 232 CURVE SMOOTH",
"505 267 OFFCURVE",
"508 326 OFFCURVE",
"520 378 CURVE",
"574 375 OFFCURVE",
"639 332 OFFCURVE",
"642 299 CURVE SMOOTH",
"644 275 OFFCURVE",
"627 263 OFFCURVE",
"509 184 CURVE"
);
},
{
closed = 1;
nodes = (
"226 73 OFFCURVE",
"195 79 OFFCURVE",
"164 82 CURVE",
"163 168 OFFCURVE",
"164 253 OFFCURVE",
"167 319 CURVE",
"193 340 OFFCURVE",
"221 358 OFFCURVE",
"275 358 CURVE SMOOTH",
"347 358 OFFCURVE",
"409 291 OFFCURVE",
"409 210 CURVE SMOOTH",
"409 133 OFFCURVE",
"351 73 OFFCURVE",
"266 73 CURVE SMOOTH"
);
}
);
width = 753;
}
);
leftMetricsKey = p;
note = p_e;
rightMetricsKey = e;
},
{
color = 4;
glyphname = p_e_macr;
lastChange = "2020-02-10 15:45:13 +0000";
layers = (
{
layerId = "E35B076F-D533-4C92-BAB9-D65BCB0F4FA2";
paths = (
{
closed = 1;
nodes = (
"759 548 LINE",
"790 625 LINE",
"789 631 LINE",
"514 614 LINE",
"481 585 OFFCURVE",
"446 546 OFFCURVE",
"424 511 CURVE",
"445 502 LINE",
"477 543 OFFCURVE",
"561 550 OFFCURVE",
"626 550 CURVE SMOOTH"
);
},
{
closed = 1;
nodes = (
"577 433 OFFCURVE",
"508 389 OFFCURVE",
"463 357 CURVE",
"433 408 OFFCURVE",
"378 445 OFFCURVE",
"295 465 CURVE",
"170 365 LINE",
"170 366 LINE",
"157 386 OFFCURVE",
"127 454 OFFCURVE",
"99 472 CURVE",
"15 399 LINE",
"15 359 LINE",
"47 376 OFFCURVE",
"62 363 OFFCURVE",
"62 333 CURVE SMOOTH",
"62 139 OFFCURVE",
"61 -56 OFFCURVE",
"52 -250 CURVE",
"170 -243 LINE",
"169 -182 OFFCURVE",
"166 -92 OFFCURVE",
"165 4 CURVE",
"300 0 LINE",
"332 26 OFFCURVE",
"406 76 OFFCURVE",
"452 139 CURVE",
"473 37 OFFCURVE",
"535 -10 OFFCURVE",
"574 -10 CURVE SMOOTH",
"609 -10 OFFCURVE",
"674 18 OFFCURVE",
"724 57 CURVE",
"714 87 LINE",
"631 51 OFFCURVE",
"573 81 OFFCURVE",
"548 149 CURVE",
"766 293 LINE",
"773 320 LINE",
"743 374 OFFCURVE",
"704 443 OFFCURVE",
"619 464 CURVE"
);
},
{
closed = 1;
nodes = (
"536 199 OFFCURVE",
"535 215 OFFCURVE",
"535 232 CURVE SMOOTH",
"535 267 OFFCURVE",
"538 326 OFFCURVE",
"550 378 CURVE",
"604 375 OFFCURVE",
"669 332 OFFCURVE",
"672 299 CURVE SMOOTH",
"674 275 OFFCURVE",
"657 263 OFFCURVE",
"539 184 CURVE"
);
},
{
closed = 1;
nodes = (
"226 73 OFFCURVE",
"195 79 OFFCURVE",
"164 82 CURVE",
"163 168 OFFCURVE",
"164 253 OFFCURVE",
"167 319 CURVE",
"193 340 OFFCURVE",
"221 358 OFFCURVE",
"275 358 CURVE SMOOTH",
"347 358 OFFCURVE",
"409 291 OFFCURVE",
"409 210 CURVE SMOOTH",
"409 133 OFFCURVE",
"351 73 OFFCURVE",
"266 73 CURVE SMOOTH"
);
}
);
width = 800;
}
);
leftMetricsKey = p;
rightMetricsKey = e;
},
{
color = 4;
glyphname = p_o;
lastChange = "2020-02-10 15:45:16 +0000";
layers = (
{
layerId = "E35B076F-D533-4C92-BAB9-D65BCB0F4FA2";
paths = (
{
closed = 1;
nodes = (
"573 450 OFFCURVE",
"511 401 OFFCURVE",
"472 341 CURVE",
"444 401 OFFCURVE",
"387 443 OFFCURVE",
"295 465 CURVE",
"170 365 LINE",
"170 366 LINE",
"157 386 OFFCURVE",
"127 454 OFFCURVE",
"99 472 CURVE",
"15 399 LINE",
"15 359 LINE",
"47 376 OFFCURVE",
"62 363 OFFCURVE",
"62 333 CURVE SMOOTH",
"62 139 OFFCURVE",
"61 -56 OFFCURVE",
"52 -250 CURVE",
"170 -243 LINE",
"169 -182 OFFCURVE",
"166 -92 OFFCURVE",
"165 4 CURVE",
"300 0 LINE",
"331 26 OFFCURVE",
"402 73 OFFCURVE",
"448 134 CURVE",
"479 58 OFFCURVE",
"553 -2 OFFCURVE",
"672 -10 CURVE",
"761 68 OFFCURVE",
"858 108 OFFCURVE",
"858 258 CURVE SMOOTH",
"858 358 OFFCURVE",
"771 465 OFFCURVE",
"633 465 CURVE"
);
},
{
closed = 1;
nodes = (
"602 82 OFFCURVE",
"513 161 OFFCURVE",
"513 271 CURVE SMOOTH",
"513 310 OFFCURVE",
"530 362 OFFCURVE",
"565 380 CURVE",
"679 393 OFFCURVE",
"778 307 OFFCURVE",
"778 217 CURVE SMOOTH",
"778 157 OFFCURVE",
"754 112 OFFCURVE",
"713 83 CURVE"
);
},
{
closed = 1;
nodes = (
"226 73 OFFCURVE",
"195 79 OFFCURVE",
"164 82 CURVE",
"163 168 OFFCURVE",
"164 253 OFFCURVE",
"167 319 CURVE",
"193 340 OFFCURVE",
"221 358 OFFCURVE",
"275 358 CURVE SMOOTH",
"347 358 OFFCURVE",
"409 291 OFFCURVE",
"409 210 CURVE SMOOTH",
"409 133 OFFCURVE",
"351 73 OFFCURVE",
"266 73 CURVE SMOOTH"
);
}
);
width = 883;
}
);
leftMetricsKey = p;
rightMetricsKey = o;
},
{
color = 4;
glyphname = p_o_macr;
lastChange = "2020-02-10 15:45:17 +0000";
layers = (
{
layerId = "E35B076F-D533-4C92-BAB9-D65BCB0F4FA2";
paths = (
{
closed = 1;
nodes = (
"759 559 LINE",
"795 634 LINE",
"794 640 LINE",
"519 641 LINE",
"484 615 OFFCURVE",
"446 579 OFFCURVE",
"422 545 CURVE",
"442 535 LINE",
"477 573 OFFCURVE",
"562 575 OFFCURVE",
"626 570 CURVE SMOOTH"
);
},
{
closed = 1;
nodes = (
"564 451 OFFCURVE",
"506 407 OFFCURVE",
"466 352 CURVE",
"437 406 OFFCURVE",
"381 445 OFFCURVE",
"295 465 CURVE",
"170 365 LINE",
"170 366 LINE",
"157 386 OFFCURVE",
"127 454 OFFCURVE",
"99 472 CURVE",
"15 399 LINE",
"15 359 LINE",
"47 376 OFFCURVE",
"62 363 OFFCURVE",
"62 333 CURVE SMOOTH",
"62 139 OFFCURVE",
"61 -56 OFFCURVE",
"52 -250 CURVE",
"170 -243 LINE",
"169 -182 OFFCURVE",
"166 -92 OFFCURVE",
"165 4 CURVE",
"300 0 LINE",
"329 24 OFFCURVE",
"393 68 OFFCURVE",
"440 123 CURVE",
"473 53 OFFCURVE",
"545 -2 OFFCURVE",
"659 -10 CURVE",
"748 68 OFFCURVE",
"845 108 OFFCURVE",
"845 258 CURVE SMOOTH",
"845 358 OFFCURVE",
"758 465 OFFCURVE",
"620 465 CURVE"
);
},
{
closed = 1;
nodes = (
"589 82 OFFCURVE",
"500 161 OFFCURVE",
"500 271 CURVE SMOOTH",
"500 310 OFFCURVE",
"517 362 OFFCURVE",
"552 380 CURVE",
"666 393 OFFCURVE",
"765 307 OFFCURVE",
"765 217 CURVE SMOOTH",
"765 157 OFFCURVE",
"741 112 OFFCURVE",
"700 83 CURVE"
);
},
{
closed = 1;
nodes = (
"226 73 OFFCURVE",
"195 79 OFFCURVE",
"164 82 CURVE",
"163 168 OFFCURVE",
"164 253 OFFCURVE",
"167 319 CURVE",
"193 340 OFFCURVE",
"221 358 OFFCURVE",
"275 358 CURVE SMOOTH",
"347 358 OFFCURVE",
"409 291 OFFCURVE",
"409 210 CURVE SMOOTH",
"409 133 OFFCURVE",
"351 73 OFFCURVE",
"266 73 CURVE SMOOTH"
);
}
);
width = 870;
}
);
leftMetricsKey = p;
rightMetricsKey = o;
},
{
color = 4;
glyphname = p_p;
lastChange = "2020-02-10 15:47:21 +0000";
layers = (
{
layerId = "E35B076F-D533-4C92-BAB9-D65BCB0F4FA2";
paths = (
{
closed = 1;
nodes = (
"459 -243 LINE",
"458 -182 OFFCURVE",
"455 -94 OFFCURVE",
"454 0 CURVE",
"499 -3 OFFCURVE",
"544 -6 OFFCURVE",
"589 -10 CURVE",
"637 30 OFFCURVE",
"781 133 OFFCURVE",
"781 243 CURVE SMOOTH",
"781 354 OFFCURVE",
"720 433 OFFCURVE",
"584 465 CURVE",
"459 365 LINE",
"459 366 LINE",
"446 386 OFFCURVE",
"428 454 OFFCURVE",
"418 472 CURVE",
"396 474 LINE",
"199 365 LINE",
"186 385 OFFCURVE",
"156 462 OFFCURVE",
"128 480 CURVE",
"44 407 LINE",
"44 367 LINE",
"76 384 OFFCURVE",
"91 371 OFFCURVE",
"91 341 CURVE SMOOTH",
"91 255 OFFCURVE",
"91 170 OFFCURVE",
"90 84 CURVE",
"87 84 LINE",
"15 29 LINE",
"17 14 LINE",
"41 14 OFFCURVE",
"65 15 OFFCURVE",
"89 14 CURVE",
"87 -71 OFFCURVE",
"85 -157 OFFCURVE",
"81 -242 CURVE",
"199 -235 LINE",
"198 -173 OFFCURVE",
"195 -83 OFFCURVE",
"194 13 CURVE",
"245 11 OFFCURVE",
"297 9 OFFCURVE",
"349 6 CURVE",
"347 -79 OFFCURVE",
"345 -165 OFFCURVE",
"341 -250 CURVE"
);
},
{
closed = 1;
nodes = (
"523 73 OFFCURVE",
"488 73 OFFCURVE",
"453 74 CURVE",
"452 162 OFFCURVE",
"452 250 OFFCURVE",
"456 319 CURVE",
"482 340 OFFCURVE",
"510 358 OFFCURVE",
"564 358 CURVE SMOOTH",
"636 358 OFFCURVE",
"698 291 OFFCURVE",
"698 210 CURVE SMOOTH",
"698 133 OFFCURVE",
"640 74 OFFCURVE",
"555 73 CURVE SMOOTH"
);
},
{
closed = 1;
nodes = (
"299 79 OFFCURVE",
"246 81 OFFCURVE",
"193 82 CURVE",
"192 166 OFFCURVE",
"192 259 OFFCURVE",
"195 325 CURVE",
"246 356 OFFCURVE",
"322 350 OFFCURVE",
"351 333 CURVE",
"351 248 OFFCURVE",
"351 162 OFFCURVE",
"350 77 CURVE"
);
}
);
width = 806;
}
);
leftMetricsKey = p;
note = p_p;
rightMetricsKey = p;
unicode = EED6;
},
{
color = 4;
glyphname = p_p_flour;
lastChange = "2020-02-10 15:47:05 +0000";
layers = (
{
layerId = "E35B076F-D533-4C92-BAB9-D65BCB0F4FA2";
paths = (
{
closed = 1;
nodes = (
"537 364 LINE",
"537 365 LINE",
"524 385 OFFCURVE",
"506 453 OFFCURVE",
"496 471 CURVE",
"474 473 LINE",
"277 366 LINE",
"264 386 OFFCURVE",
"234 461 OFFCURVE",
"206 479 CURVE",
"122 406 LINE",
"122 366 LINE",
"154 383 OFFCURVE",
"169 370 OFFCURVE",
"169 340 CURVE SMOOTH",
"169 256 OFFCURVE",
"169 172 OFFCURVE",
"168 88 CURVE",
"94 86 OFFCURVE",
"15 35 OFFCURVE",
"15 -20 CURVE SMOOTH",
"15 -79 OFFCURVE",
"55 -112 OFFCURVE",
"25 -192 CURVE",
"50 -200 LINE",
"78 -119 OFFCURVE",
"71 -84 OFFCURVE",
"71 -34 CURVE SMOOTH",
"71 11 OFFCURVE",
"112 16 OFFCURVE",
"167 13 CURVE",
"165 -72 OFFCURVE",
"163 -158 OFFCURVE",
"159 -243 CURVE",
"277 -236 LINE",
"276 -174 OFFCURVE",
"273 -84 OFFCURVE",
"272 12 CURVE",
"323 10 OFFCURVE",
"375 8 OFFCURVE",
"427 5 CURVE",
"425 -80 OFFCURVE",
"423 -166 OFFCURVE",
"419 -251 CURVE",
"537 -244 LINE",
"536 -183 OFFCURVE",
"533 -95 OFFCURVE",
"532 -1 CURVE",
"577 -4 OFFCURVE",
"622 -7 OFFCURVE",
"667 -11 CURVE",
"715 29 OFFCURVE",
"859 132 OFFCURVE",
"859 242 CURVE SMOOTH",
"859 353 OFFCURVE",
"798 432 OFFCURVE",
"662 464 CURVE"
);
},
{
closed = 1;
nodes = (
"601 72 OFFCURVE",
"566 72 OFFCURVE",
"531 73 CURVE",
"530 161 OFFCURVE",
"530 249 OFFCURVE",
"534 318 CURVE",
"560 339 OFFCURVE",
"588 357 OFFCURVE",
"642 357 CURVE SMOOTH",
"714 357 OFFCURVE",
"776 290 OFFCURVE",
"776 209 CURVE SMOOTH",
"776 132 OFFCURVE",
"718 73 OFFCURVE",
"633 72 CURVE SMOOTH"
);
},
{
closed = 1;
nodes = (
"377 78 OFFCURVE",
"324 80 OFFCURVE",
"271 81 CURVE",
"270 165 OFFCURVE",
"270 258 OFFCURVE",
"273 324 CURVE",
"324 355 OFFCURVE",
"400 349 OFFCURVE",
"429 332 CURVE",
"429 247 OFFCURVE",
"429 161 OFFCURVE",
"428 76 CURVE"
);
}
);
width = 884;
}
);
leftMetricsKey = p;
rightMetricsKey = p;
},
{
color = 4;
glyphname = p_r;
lastChange = "2020-02-10 15:47:28 +0000";
layers = (
{
layerId = "E35B076F-D533-4C92-BAB9-D65BCB0F4FA2";
paths = (
{
closed = 1;
nodes = (
"627 102 OFFCURVE",
"597 126 OFFCURVE",
"568 150 CURVE",
"620 218 OFFCURVE",
"726 312 OFFCURVE",
"726 360 CURVE SMOOTH",
"726 430 OFFCURVE",
"668 465 OFFCURVE",
"588 465 CURVE SMOOTH",
"579 465 LINE",
"470 345 LINE",
"442 402 OFFCURVE",
"385 444 OFFCURVE",
"295 465 CURVE",
"170 365 LINE",
"170 366 LINE",
"157 386 OFFCURVE",
"127 454 OFFCURVE",
"99 472 CURVE",
"15 399 LINE",
"15 359 LINE",
"47 376 OFFCURVE",
"62 363 OFFCURVE",
"62 333 CURVE SMOOTH",
"62 139 OFFCURVE",
"61 -56 OFFCURVE",
"52 -250 CURVE",
"170 -243 LINE",
"169 -182 OFFCURVE",
"166 -92 OFFCURVE",
"165 4 CURVE",
"300 0 LINE",
"348 40 OFFCURVE",
"492 133 OFFCURVE",
"492 243 CURVE SMOOTH",
"492 266 OFFCURVE",
"489 287 OFFCURVE",
"484 307 CURVE",
"502 326 OFFCURVE",
"531 359 OFFCURVE",
"557 359 CURVE SMOOTH",
"586 359 OFFCURVE",
"619 343 OFFCURVE",
"619 303 CURVE SMOOTH",
"619 263 OFFCURVE",
"573 204 OFFCURVE",
"468 108 CURVE",
"467 102 LINE",
"517 59 OFFCURVE",
"554 16 OFFCURVE",
"619 -10 CURVE",
"717 90 LINE",
"693 110 LINE",
"684 100 OFFCURVE",
"673 102 OFFCURVE",
"667 102 CURVE SMOOTH"
);
},
{
closed = 1;
nodes = (
"226 73 OFFCURVE",
"195 79 OFFCURVE",
"164 82 CURVE",
"163 168 OFFCURVE",
"164 253 OFFCURVE",
"167 319 CURVE",
"193 340 OFFCURVE",
"221 358 OFFCURVE",
"275 358 CURVE SMOOTH",
"347 358 OFFCURVE",
"409 291 OFFCURVE",
"409 210 CURVE SMOOTH",
"409 133 OFFCURVE",
"351 73 OFFCURVE",
"266 73 CURVE SMOOTH"
);
}
);
width = 736;
}
);
leftMetricsKey = p;
rightMetricsKey = r.ss01;
},
{
color = 4;
glyphname = q;
lastChange = "2020-02-10 15:48:33 +0000";
layers = (
{
layerId = "E35B076F-D533-4C92-BAB9-D65BCB0F4FA2";
paths = (
{
closed = 1;
nodes = (
"457 -223 LINE",
"450 -24 OFFCURVE",
"450 176 OFFCURVE",
"457 375 CURVE",
"397 399 OFFCURVE",
"337 438 OFFCURVE",
"267 468 CURVE",
"172 428 OFFCURVE",
"25 314 OFFCURVE",
"25 177 CURVE SMOOTH",
"25 87 OFFCURVE",
"72 9 OFFCURVE",
"192 -10 CURVE",
"350 90 LINE",
"348 -30 OFFCURVE",
"345 -153 OFFCURVE",
"337 -260 CURVE",
"342 -265 LINE"
);
},
{
closed = 1;
nodes = (
"148 85 OFFCURVE",
"110 162 OFFCURVE",
"110 232 CURVE SMOOTH",
"110 312 OFFCURVE",
"167 375 OFFCURVE",
"236 375 CURVE SMOOTH",
"276 375 OFFCURVE",
"334 351 OFFCURVE",
"353 324 CURVE",
"352 278 OFFCURVE",
"352 228 OFFCURVE",
"351 178 CURVE",
"334 107 OFFCURVE",
"269 85 OFFCURVE",
"228 85 CURVE SMOOTH"
);
}
);
width = 497;
}
);
leftMetricsKey = o;
note = q;
unicode = 0071;
},
{
color = 4;
glyphname = q_etfin;
lastChange = "2020-02-10 15:47:49 +0000";
layers = (
{
layerId = "E35B076F-D533-4C92-BAB9-D65BCB0F4FA2";
paths = (
{
closed = 1;
nodes = (
"730 363 LINE",
"664 389 OFFCURVE",
"608 432 OFFCURVE",
"560 465 CURVE",
"555 465 LINE",
"518 434 OFFCURVE",
"480 406 OFFCURVE",
"444 380 CURVE",
"388 405 OFFCURVE",
"332 440 OFFCURVE",
"267 468 CURVE",
"172 428 OFFCURVE",
"25 314 OFFCURVE",
"25 177 CURVE SMOOTH",
"25 87 OFFCURVE",
"72 9 OFFCURVE",
"192 -10 CURVE",
"350 90 LINE",
"349 2 OFFCURVE",
"347 -87 OFFCURVE",
"342 -171 CURVE",
"306 -185 OFFCURVE",
"265 -199 OFFCURVE",
"220 -214 CURVE",
"237 -253 LINE",
"340 -212 LINE",
"337 -260 LINE",
"342 -265 LINE",
"457 -223 LINE",
"456 -203 OFFCURVE",
"456 -182 OFFCURVE",
"455 -162 CURVE",
"550 -119 OFFCURVE",
"627 -77 OFFCURVE",
"672 -34 CURVE",
"696 10 OFFCURVE",
"708 95 OFFCURVE",
"697 132 CURVE",
"669 169 OFFCURVE",
"631 194 OFFCURVE",
"597 215 CURVE",
"645 269 OFFCURVE",
"679 302 OFFCURVE",
"730 342 CURVE"
);
},
{
closed = 1;
nodes = (
"148 85 OFFCURVE",
"110 162 OFFCURVE",
"110 232 CURVE SMOOTH",
"110 312 OFFCURVE",
"167 375 OFFCURVE",
"236 375 CURVE SMOOTH",
"276 375 OFFCURVE",
"334 351 OFFCURVE",
"353 324 CURVE",
"352 278 OFFCURVE",
"352 228 OFFCURVE",
"351 178 CURVE",
"334 107 OFFCURVE",
"269 85 OFFCURVE",
"228 85 CURVE SMOOTH"
);
},
{
closed = 1;
nodes = (
"452 209 OFFCURVE",
"454 281 OFFCURVE",
"456 353 CURVE",
"475 366 LINE",
"513 343 OFFCURVE",
"588 314 OFFCURVE",
"624 292 CURVE",
"580 239 OFFCURVE",
"516 188 OFFCURVE",
"452 136 CURVE"
);
},
{
closed = 1;
nodes = (
"613 -16 OFFCURVE",
"564 -68 OFFCURVE",
"454 -122 CURVE",
"452 -50 OFFCURVE",
"452 23 OFFCURVE",
"452 96 CURVE",
"472 111 OFFCURVE",
"490 123 OFFCURVE",
"514 130 CURVE",
"560 136 OFFCURVE",
"613 105 OFFCURVE",
"613 42 CURVE SMOOTH"
);
}
);
width = 745;
}
);
leftMetricsKey = q;
note = q_z;
},
{
color = 4;
glyphname = q_etfin_macr;
lastChange = "2020-02-10 15:51:10 +0000";
layers = (
{
layerId = "E35B076F-D533-4C92-BAB9-D65BCB0F4FA2";
paths = (
{
closed = 1;
nodes = (
"651 579 LINE",
"677 658 LINE",
"675 664 LINE",
"402 627 LINE",
"371 596 OFFCURVE",
"339 535 OFFCURVE",
"320 498 CURVE",
"341 491 LINE",
"370 534 OFFCURVE",
"435 567 OFFCURVE",
"518 571 CURVE SMOOTH"
);
},
{
closed = 1;
nodes = (
"730 363 LINE",
"664 389 OFFCURVE",
"608 432 OFFCURVE",
"560 465 CURVE",
"555 465 LINE",
"518 434 OFFCURVE",
"480 406 OFFCURVE",
"444 380 CURVE",
"388 405 OFFCURVE",
"332 440 OFFCURVE",
"267 468 CURVE",
"172 428 OFFCURVE",
"25 314 OFFCURVE",
"25 177 CURVE SMOOTH",
"25 87 OFFCURVE",
"72 9 OFFCURVE",
"192 -10 CURVE",
"350 90 LINE",
"349 2 OFFCURVE",
"347 -87 OFFCURVE",
"342 -171 CURVE",
"306 -185 OFFCURVE",
"265 -199 OFFCURVE",
"220 -214 CURVE",
"237 -253 LINE",
"340 -212 LINE",
"337 -260 LINE",
"342 -265 LINE",
"457 -223 LINE",
"456 -203 OFFCURVE",
"456 -182 OFFCURVE",
"455 -162 CURVE",
"550 -119 OFFCURVE",
"627 -77 OFFCURVE",
"672 -34 CURVE",
"696 10 OFFCURVE",
"708 95 OFFCURVE",
"697 132 CURVE",
"669 169 OFFCURVE",
"631 194 OFFCURVE",
"597 215 CURVE",
"645 269 OFFCURVE",
"679 302 OFFCURVE",
"730 342 CURVE"
);
},
{
closed = 1;
nodes = (
"148 85 OFFCURVE",
"110 162 OFFCURVE",
"110 232 CURVE SMOOTH",
"110 312 OFFCURVE",
"167 375 OFFCURVE",
"236 375 CURVE SMOOTH",
"276 375 OFFCURVE",
"334 351 OFFCURVE",
"353 324 CURVE",
"352 278 OFFCURVE",
"352 228 OFFCURVE",
"351 178 CURVE",
"334 107 OFFCURVE",
"269 85 OFFCURVE",
"228 85 CURVE SMOOTH"
);
},
{
closed = 1;
nodes = (
"452 209 OFFCURVE",
"454 281 OFFCURVE",
"456 353 CURVE",
"475 366 LINE",
"513 343 OFFCURVE",
"588 314 OFFCURVE",
"624 292 CURVE",
"580 239 OFFCURVE",
"516 188 OFFCURVE",
"452 136 CURVE"
);
},
{
closed = 1;
nodes = (
"613 -16 OFFCURVE",
"564 -68 OFFCURVE",
"454 -122 CURVE",
"452 -50 OFFCURVE",
"452 23 OFFCURVE",
"452 96 CURVE",
"472 111 OFFCURVE",
"490 123 OFFCURVE",
"514 130 CURVE",
"560 136 OFFCURVE",
"613 105 OFFCURVE",
"613 42 CURVE SMOOTH"
);
}
);
width = 745;
}
);
leftMetricsKey = q;
rightMetricsKey = etfin;
},
{
color = 4;
glyphname = q_etfin_ra;
lastChange = "2020-02-10 15:51:10 +0000";
layers = (
{
layerId = "E35B076F-D533-4C92-BAB9-D65BCB0F4FA2";
paths = (
{
closed = 1;
nodes = (
"342 559 OFFCURVE",
"380 584 OFFCURVE",
"413 611 CURVE",
"420 589 OFFCURVE",
"450 554 OFFCURVE",
"490 536 CURVE",
"529 561 OFFCURVE",
"571 602 OFFCURVE",
"609 631 CURVE",
"595 653 LINE",
"525 595 OFFCURVE",
"448 617 OFFCURVE",
"496 696 CURVE",
"465 703 LINE",
"439 662 OFFCURVE",
"398 621 OFFCURVE",
"363 621 CURVE SMOOTH",
"327 621 OFFCURVE",
"295 670 OFFCURVE",
"339 703 CURVE",
"315 714 LINE",
"277 692 OFFCURVE",
"212 654 OFFCURVE",
"212 649 CURVE",
"223 628 OFFCURVE",
"248 564 OFFCURVE",
"303 548 CURVE"
);
},
{
closed = 1;
nodes = (
"730 363 LINE",
"664 389 OFFCURVE",
"608 432 OFFCURVE",
"560 465 CURVE",
"555 465 LINE",
"518 434 OFFCURVE",
"480 406 OFFCURVE",
"444 380 CURVE",
"388 405 OFFCURVE",
"332 440 OFFCURVE",
"267 468 CURVE",
"172 428 OFFCURVE",
"25 314 OFFCURVE",
"25 177 CURVE SMOOTH",
"25 87 OFFCURVE",
"72 9 OFFCURVE",
"192 -10 CURVE",
"350 90 LINE",
"349 2 OFFCURVE",
"347 -87 OFFCURVE",
"342 -171 CURVE",
"306 -185 OFFCURVE",
"265 -199 OFFCURVE",
"220 -214 CURVE",
"237 -253 LINE",
"340 -212 LINE",
"337 -260 LINE",
"342 -265 LINE",
"457 -223 LINE",
"456 -203 OFFCURVE",
"456 -182 OFFCURVE",
"455 -162 CURVE",
"550 -119 OFFCURVE",
"627 -77 OFFCURVE",
"672 -34 CURVE",
"696 10 OFFCURVE",
"708 95 OFFCURVE",
"697 132 CURVE",
"669 169 OFFCURVE",
"631 194 OFFCURVE",
"597 215 CURVE",
"645 269 OFFCURVE",
"679 302 OFFCURVE",
"730 342 CURVE"
);
},
{
closed = 1;
nodes = (
"148 85 OFFCURVE",
"110 162 OFFCURVE",
"110 232 CURVE SMOOTH",
"110 312 OFFCURVE",
"167 375 OFFCURVE",
"236 375 CURVE SMOOTH",
"276 375 OFFCURVE",
"334 351 OFFCURVE",
"353 324 CURVE",
"352 278 OFFCURVE",
"352 228 OFFCURVE",
"351 178 CURVE",
"334 107 OFFCURVE",
"269 85 OFFCURVE",
"228 85 CURVE SMOOTH"
);
},
{
closed = 1;
nodes = (
"452 209 OFFCURVE",
"454 281 OFFCURVE",
"456 353 CURVE",
"475 366 LINE",
"513 343 OFFCURVE",
"588 314 OFFCURVE",
"624 292 CURVE",
"580 239 OFFCURVE",
"516 188 OFFCURVE",
"452 136 CURVE"
);
},
{
closed = 1;
nodes = (
"613 -16 OFFCURVE",
"564 -68 OFFCURVE",
"454 -122 CURVE",
"452 -50 OFFCURVE",
"452 23 OFFCURVE",
"452 96 CURVE",
"472 111 OFFCURVE",
"490 123 OFFCURVE",
"514 130 CURVE",
"560 136 OFFCURVE",
"613 105 OFFCURVE",
"613 42 CURVE SMOOTH"
);
}
);
width = 745;
}
);
leftMetricsKey = q;
rightMetricsKey = etfin;
},
{
color = 4;
glyphname = q_hook;
lastChange = "2020-02-10 15:51:10 +0000";
layers = (
{
layerId = "E35B076F-D533-4C92-BAB9-D65BCB0F4FA2";
paths = (
{
closed = 1;
nodes = (
"262 506 OFFCURVE",
"334 561 OFFCURVE",
"334 623 CURVE SMOOTH",
"334 673 OFFCURVE",
"284 715 OFFCURVE",
"233 715 CURVE",
"160 629 LINE",
"163 624 LINE",
"202 619 OFFCURVE",
"234 600 OFFCURVE",
"234 575 CURVE SMOOTH",
"234 545 OFFCURVE",
"198 522 OFFCURVE",
"170 513 CURVE",
"178 487 LINE"
);
},
{
closed = 1;
nodes = (
"457 -223 LINE",
"450 -24 OFFCURVE",
"450 176 OFFCURVE",
"457 375 CURVE",
"397 399 OFFCURVE",
"337 438 OFFCURVE",
"267 468 CURVE",
"172 428 OFFCURVE",
"25 314 OFFCURVE",
"25 177 CURVE SMOOTH",
"25 87 OFFCURVE",
"72 9 OFFCURVE",
"192 -10 CURVE",
"350 90 LINE",
"348 -30 OFFCURVE",
"345 -153 OFFCURVE",
"337 -260 CURVE",
"342 -265 LINE"
);
},
{
closed = 1;
nodes = (
"148 85 OFFCURVE",
"110 162 OFFCURVE",
"110 232 CURVE SMOOTH",
"110 312 OFFCURVE",
"167 375 OFFCURVE",
"236 375 CURVE SMOOTH",
"276 375 OFFCURVE",
"334 351 OFFCURVE",
"353 324 CURVE",
"352 278 OFFCURVE",
"352 228 OFFCURVE",
"351 178 CURVE",
"334 107 OFFCURVE",
"269 85 OFFCURVE",
"228 85 CURVE SMOOTH"
);
}
);
width = 497;
}
);
leftMetricsKey = q;
note = q_apomod;
rightMetricsKey = q;
},
{
color = 4;
glyphname = q_macr;
lastChange = "2020-02-10 15:51:10 +0000";
layers = (
{
layerId = "E35B076F-D533-4C92-BAB9-D65BCB0F4FA2";
paths = (
{
closed = 1;
nodes = (
"151 544 OFFCURVE",
"235 557 OFFCURVE",
"299 561 CURVE SMOOTH",
"432 569 LINE",
"458 648 LINE",
"456 654 LINE",
"183 617 LINE",
"152 586 OFFCURVE",
"120 545 OFFCURVE",
"101 508 CURVE",
"122 501 LINE"
);
},
{
closed = 1;
nodes = (
"457 -223 LINE",
"450 -24 OFFCURVE",
"450 176 OFFCURVE",
"457 375 CURVE",
"397 399 OFFCURVE",
"337 438 OFFCURVE",
"267 468 CURVE",
"172 428 OFFCURVE",
"25 314 OFFCURVE",
"25 177 CURVE SMOOTH",
"25 87 OFFCURVE",
"72 9 OFFCURVE",
"192 -10 CURVE",
"350 90 LINE",
"348 -30 OFFCURVE",
"345 -153 OFFCURVE",
"337 -260 CURVE",
"342 -265 LINE"
);
},
{
closed = 1;
nodes = (
"148 85 OFFCURVE",
"110 162 OFFCURVE",
"110 232 CURVE SMOOTH",
"110 312 OFFCURVE",
"167 375 OFFCURVE",
"236 375 CURVE SMOOTH",
"276 375 OFFCURVE",
"334 351 OFFCURVE",
"353 324 CURVE",
"352 278 OFFCURVE",
"352 228 OFFCURVE",
"351 178 CURVE",
"334 107 OFFCURVE",
"269 85 OFFCURVE",
"228 85 CURVE SMOOTH"
);
}
);
width = 498;
}
);
leftMetricsKey = q;
note = q_macr;
rightMetricsKey = q;
unicode = E681;
},
{
color = 4;
glyphname = q_ra;
lastChange = "2020-02-10 15:51:10 +0000";
layers = (
{
layerId = "E35B076F-D533-4C92-BAB9-D65BCB0F4FA2";
paths = (
{
closed = 1;
nodes = (
"392 561 OFFCURVE",
"434 602 OFFCURVE",
"472 631 CURVE",
"458 653 LINE",
"388 595 OFFCURVE",
"311 617 OFFCURVE",
"359 696 CURVE",
"328 703 LINE",
"302 662 OFFCURVE",
"261 621 OFFCURVE",
"226 621 CURVE SMOOTH",
"190 621 OFFCURVE",
"158 670 OFFCURVE",
"202 703 CURVE",
"178 714 LINE",
"140 692 OFFCURVE",
"75 654 OFFCURVE",
"75 649 CURVE",
"86 628 OFFCURVE",
"111 564 OFFCURVE",
"166 548 CURVE",
"205 559 OFFCURVE",
"243 584 OFFCURVE",
"276 611 CURVE",
"283 589 OFFCURVE",
"313 554 OFFCURVE",
"353 536 CURVE"
);
},
{
closed = 1;
nodes = (
"457 -223 LINE",
"450 -24 OFFCURVE",
"450 176 OFFCURVE",
"457 375 CURVE",
"397 399 OFFCURVE",
"337 438 OFFCURVE",
"267 468 CURVE",
"172 428 OFFCURVE",
"25 314 OFFCURVE",
"25 177 CURVE SMOOTH",
"25 87 OFFCURVE",
"72 9 OFFCURVE",
"192 -10 CURVE",
"350 90 LINE",
"348 -30 OFFCURVE",
"345 -153 OFFCURVE",
"337 -260 CURVE",
"342 -265 LINE"
);
},
{
closed = 1;
nodes = (
"148 85 OFFCURVE",
"110 162 OFFCURVE",
"110 232 CURVE SMOOTH",
"110 312 OFFCURVE",
"167 375 OFFCURVE",
"236 375 CURVE SMOOTH",
"276 375 OFFCURVE",
"334 351 OFFCURVE",
"353 324 CURVE",
"352 278 OFFCURVE",
"352 228 OFFCURVE",
"351 178 CURVE",
"334 107 OFFCURVE",
"269 85 OFFCURVE",
"228 85 CURVE SMOOTH"
);
}
);
width = 512;
}
);
leftMetricsKey = q;
rightMetricsKey = q;
},
{
color = 4;
glyphname = q_strok;
lastChange = "2020-01-30 13:06:30 +0000";
layers = (
{
layerId = "E35B076F-D533-4C92-BAB9-D65BCB0F4FA2";
paths = (
{
closed = 1;
nodes = (
"732 373 OFFCURVE",
"651 432 OFFCURVE",
"602 464 CURVE",
"456 344 LINE",
"456 354 OFFCURVE",
"457 365 OFFCURVE",
"457 375 CURVE",
"397 399 OFFCURVE",
"337 438 OFFCURVE",
"267 468 CURVE",
"172 428 OFFCURVE",
"25 314 OFFCURVE",
"25 177 CURVE SMOOTH",
"25 87 OFFCURVE",
"72 9 OFFCURVE",
"192 -10 CURVE",
"350 90 LINE",
"348 -30 OFFCURVE",
"345 -153 OFFCURVE",
"337 -260 CURVE",
"342 -265 LINE",
"457 -223 LINE",
"454 -134 LINE",
"640 -11 OFFCURVE",
"732 101 OFFCURVE",
"732 263 CURVE SMOOTH"
);
},
{
closed = 1;
nodes = (
"334 107 OFFCURVE",
"269 85 OFFCURVE",
"228 85 CURVE SMOOTH",
"148 85 OFFCURVE",
"110 162 OFFCURVE",
"110 232 CURVE SMOOTH",
"110 312 OFFCURVE",
"167 375 OFFCURVE",
"236 375 CURVE SMOOTH",
"276 375 OFFCURVE",
"334 351 OFFCURVE",
"353 324 CURVE",
"352 278 OFFCURVE",
"352 228 OFFCURVE",
"351 178 CURVE"
);
},
{
closed = 1;
nodes = (
"451 39 OFFCURVE",
"451 163 OFFCURVE",
"454 287 CURVE",
"488 323 OFFCURVE",
"513 329 OFFCURVE",
"541 329 CURVE SMOOTH",
"579 329 OFFCURVE",
"639 284 OFFCURVE",
"639 204 CURVE SMOOTH",
"639 85 OFFCURVE",
"547 -16 OFFCURVE",
"453 -85 CURVE"
);
}
);
width = 767;
}
);
leftMetricsKey = q;
rightMetricsKey = h;
},
{
color = 4;
glyphname = r;
lastChange = "2020-01-30 13:06:30 +0000";
layers = (
{
layerId = "E35B076F-D533-4C92-BAB9-D65BCB0F4FA2";
paths = (
{
closed = 1;
nodes = (
"167 0 LINE",
"164 118 OFFCURVE",
"157 285 OFFCURVE",
"160 362 CURVE",
"210 368 OFFCURVE",
"233 350 OFFCURVE",
"259 313 CURVE",
"274 311 LINE",
"292 337 OFFCURVE",
"311 349 OFFCURVE",
"334 373 CURVE",
"328 419 OFFCURVE",
"293 440 OFFCURVE",
"249 465 CURVE",
"161 393 LINE",
"155 416 OFFCURVE",
"129 453 OFFCURVE",
"120 465 CURVE",
"25 405 LINE",
"25 375 LINE",
"47 368 OFFCURVE",
"62 353 OFFCURVE",
"62 293 CURVE SMOOTH",
"62 219 OFFCURVE",
"58 114 OFFCURVE",
"56 0 CURVE"
);
}
);
width = 339;
}
);
leftMetricsKey = n;
note = r;
unicode = 0072;
},
{
color = 4;
glyphname = r.ss01;
lastChange = "2020-02-10 15:48:44 +0000";
layers = (
{
layerId = "E35B076F-D533-4C92-BAB9-D65BCB0F4FA2";
paths = (
{
closed = 1;
nodes = (
"302 90 LINE",
"278 110 LINE",
"263 101 OFFCURVE",
"248 94 OFFCURVE",
"232 93 CURVE SMOOTH",
"212 92 OFFCURVE",
"147 124 OFFCURVE",
"118 148 CURVE",
"175 213 OFFCURVE",
"290 307 OFFCURVE",
"290 355 CURVE SMOOTH",
"290 425 OFFCURVE",
"223 467 OFFCURVE",
"143 465 CURVE",
"43 365 LINE",
"60 345 LINE",
"75 358 OFFCURVE",
"97 365 OFFCURVE",
"112 365 CURVE SMOOTH",
"147 365 OFFCURVE",
"180 345 OFFCURVE",
"180 305 CURVE SMOOTH",
"180 265 OFFCURVE",
"144 211 OFFCURVE",
"15 101 CURVE",
"17 90 LINE",
"67 66 OFFCURVE",
"139 26 OFFCURVE",
"204 -10 CURVE"
);
}
);
width = 312;
}
);
note = r.alt;
},
{
color = 4;
glyphname = r_macr;
lastChange = "2020-01-30 13:06:30 +0000";
layers = (
{
layerId = "E35B076F-D533-4C92-BAB9-D65BCB0F4FA2";
paths = (
{
closed = 1;
nodes = (
"75 552 OFFCURVE",
"148 555 OFFCURVE",
"203 551 CURVE SMOOTH",
"317 543 LINE",
"350 618 LINE",
"349 625 LINE",
"113 621 LINE",
"82 594 OFFCURVE",
"49 557 OFFCURVE",
"28 522 CURVE",
"45 513 LINE"
);
},
{
closed = 1;
nodes = (
"167 0 LINE",
"164 118 OFFCURVE",
"157 285 OFFCURVE",
"160 362 CURVE",
"210 368 OFFCURVE",
"233 350 OFFCURVE",
"259 313 CURVE",
"274 311 LINE",
"292 337 OFFCURVE",
"311 349 OFFCURVE",
"334 373 CURVE",
"328 419 OFFCURVE",
"293 440 OFFCURVE",
"249 465 CURVE",
"161 393 LINE",
"155 416 OFFCURVE",
"129 453 OFFCURVE",
"120 465 CURVE",
"25 405 LINE",
"25 375 LINE",
"47 368 OFFCURVE",
"62 353 OFFCURVE",
"62 293 CURVE SMOOTH",
"62 219 OFFCURVE",
"58 114 OFFCURVE",
"56 0 CURVE"
);
}
);
width = 355;
}
);
leftMetricsKey = r;
note = r_macr;
rightMetricsKey = r;
},
{
color = 4;
glyphname = r_a;
lastChange = "2020-01-30 13:06:30 +0000";
layers = (
{
layerId = "E35B076F-D533-4C92-BAB9-D65BCB0F4FA2";
paths = (
{
closed = 1;
nodes = (
"653 49 LINE",
"653 78 LINE",
"651 79 LINE",
"624 72 OFFCURVE",
"611 96 OFFCURVE",
"611 145 CURVE SMOOTH",
"611 403 LINE",
"591 433 OFFCURVE",
"517 465 OFFCURVE",
"487 465 CURVE",
"357 382 LINE",
"334 412 OFFCURVE",
"311 439 OFFCURVE",
"286 465 CURVE",
"281 465 LINE",
"165 364 LINE",
"165 410 OFFCURVE",
"149 445 OFFCURVE",
"113 465 CURVE",
"112 465 LINE",
"25 405 LINE",
"32 365 LINE",
"56 365 OFFCURVE",
"66 350 OFFCURVE",
"66 323 CURVE SMOOTH",
"66 0 LINE",
"168 0 LINE",
"164 106 OFFCURVE",
"166 209 OFFCURVE",
"166 315 CURVE",
"212 353 OFFCURVE",
"243 344 OFFCURVE",
"281 288 CURVE",
"283 287 LINE",
"324 328 OFFCURVE",
"392 378 OFFCURVE",
"434 378 CURVE SMOOTH",
"467 378 OFFCURVE",
"509 365 OFFCURVE",
"510 319 CURVE SMOOTH",
"510 295 LINE",
"255 145 LINE",
"289 93 OFFCURVE",
"326 17 OFFCURVE",
"345 -6 CURVE",
"400 19 OFFCURVE",
"456 49 OFFCURVE",
"511 83 CURVE",
"511 67 LINE SMOOTH",
"511 27 OFFCURVE",
"541 -10 OFFCURVE",
"561 -10 CURVE"
);
},
{
closed = 1;
nodes = (
"396 102 OFFCURVE",
"367 137 OFFCURVE",
"360 171 CURVE",
"411 205 OFFCURVE",
"459 235 OFFCURVE",
"510 263 CURVE",
"511 119 LINE",
"480 99 OFFCURVE",
"452 89 OFFCURVE",
"420 84 CURVE"
);
}
);
width = 678;
}
);
leftMetricsKey = r;
rightMetricsKey = a;
},
{
color = 4;
glyphname = r_a_macr;
lastChange = "2020-01-30 13:06:30 +0000";
layers = (
{
layerId = "E35B076F-D533-4C92-BAB9-D65BCB0F4FA2";
paths = (
{
closed = 1;
nodes = (
"340 554 OFFCURVE",
"424 567 OFFCURVE",
"488 571 CURVE SMOOTH",
"621 579 LINE",
"647 658 LINE",
"645 664 LINE",
"372 627 LINE",
"341 596 OFFCURVE",
"309 555 OFFCURVE",
"290 518 CURVE",
"311 511 LINE"
);
},
{
closed = 1;
nodes = (
"653 49 LINE",
"653 78 LINE",
"651 79 LINE",
"624 72 OFFCURVE",
"611 96 OFFCURVE",
"611 145 CURVE SMOOTH",
"611 403 LINE",
"591 433 OFFCURVE",
"517 465 OFFCURVE",
"487 465 CURVE",
"357 382 LINE",
"334 412 OFFCURVE",
"311 439 OFFCURVE",
"286 465 CURVE",
"281 465 LINE",
"165 364 LINE",
"165 410 OFFCURVE",
"149 445 OFFCURVE",
"113 465 CURVE",
"112 465 LINE",
"25 405 LINE",
"32 365 LINE",
"56 365 OFFCURVE",
"66 350 OFFCURVE",
"66 323 CURVE SMOOTH",
"66 0 LINE",
"168 0 LINE",
"164 106 OFFCURVE",
"166 209 OFFCURVE",
"166 315 CURVE",
"212 353 OFFCURVE",
"243 344 OFFCURVE",
"281 288 CURVE",
"283 287 LINE",
"324 328 OFFCURVE",
"392 378 OFFCURVE",
"434 378 CURVE SMOOTH",
"467 378 OFFCURVE",
"509 365 OFFCURVE",
"510 319 CURVE SMOOTH",
"510 295 LINE",
"255 145 LINE",
"289 93 OFFCURVE",
"326 17 OFFCURVE",
"345 -6 CURVE",
"400 19 OFFCURVE",
"456 49 OFFCURVE",
"511 83 CURVE",
"511 67 LINE SMOOTH",
"511 27 OFFCURVE",
"541 -10 OFFCURVE",
"561 -10 CURVE"
);
},
{
closed = 1;
nodes = (
"396 102 OFFCURVE",
"367 137 OFFCURVE",
"360 171 CURVE",
"411 205 OFFCURVE",
"459 235 OFFCURVE",
"510 263 CURVE",
"511 119 LINE",
"480 99 OFFCURVE",
"452 89 OFFCURVE",
"420 84 CURVE"
);
}
);
width = 678;
}
);
leftMetricsKey = r;
note = r_amacr;
rightMetricsKey = a;
},
{
color = 4;
glyphname = r_e;
lastChange = "2020-01-30 13:06:30 +0000";
layers = (
{
layerId = "E35B076F-D533-4C92-BAB9-D65BCB0F4FA2";
paths = (
{
closed = 1;
nodes = (
"593 374 OFFCURVE",
"554 443 OFFCURVE",
"469 464 CURVE",
"431 436 OFFCURVE",
"371 397 OFFCURVE",
"327 367 CURVE",
"302 407 OFFCURVE",
"272 443 OFFCURVE",
"250 465 CURVE",
"161 380 LINE",
"155 406 OFFCURVE",
"129 451 OFFCURVE",
"120 463 CURVE",
"25 403 LINE",
"25 373 LINE",
"47 366 OFFCURVE",
"62 351 OFFCURVE",
"62 291 CURVE SMOOTH",
"62 217 OFFCURVE",
"58 112 OFFCURVE",
"56 -2 CURVE",
"167 -2 LINE",
"164 115 OFFCURVE",
"157 273 OFFCURVE",
"160 348 CURVE",
"208 351 OFFCURVE",
"216 317 OFFCURVE",
"232 289 CURVE",
"247 287 LINE",
"267 302 OFFCURVE",
"285 313 OFFCURVE",
"301 325 CURVE",
"299 289 OFFCURVE",
"295 244 OFFCURVE",
"295 212 CURVE SMOOTH",
"295 59 OFFCURVE",
"377 -10 OFFCURVE",
"424 -10 CURVE SMOOTH",
"459 -10 OFFCURVE",
"524 18 OFFCURVE",
"574 57 CURVE",
"564 87 LINE",
"481 51 OFFCURVE",
"423 81 OFFCURVE",
"398 149 CURVE",
"616 293 LINE",
"623 320 LINE"
);
},
{
closed = 1;
nodes = (
"386 199 OFFCURVE",
"385 215 OFFCURVE",
"385 232 CURVE SMOOTH",
"385 267 OFFCURVE",
"388 326 OFFCURVE",
"400 378 CURVE",
"454 375 OFFCURVE",
"519 332 OFFCURVE",
"522 299 CURVE SMOOTH",
"524 275 OFFCURVE",
"507 263 OFFCURVE",
"389 184 CURVE"
);
}
);
width = 633;
}
);
leftMetricsKey = r;
note = r_e;
rightMetricsKey = e;
},
{
color = 4;
glyphname = r_o;
lastChange = "2020-01-30 13:06:30 +0000";
layers = (
{
layerId = "E35B076F-D533-4C92-BAB9-D65BCB0F4FA2";
paths = (
{
closed = 1;
nodes = (
"422 452 OFFCURVE",
"368 413 OFFCURVE",
"329 363 CURVE",
"304 405 OFFCURVE",
"272 442 OFFCURVE",
"250 465 CURVE",
"161 380 LINE",
"155 406 OFFCURVE",
"129 451 OFFCURVE",
"120 463 CURVE",
"25 403 LINE",
"25 373 LINE",
"47 366 OFFCURVE",
"62 351 OFFCURVE",
"62 291 CURVE SMOOTH",
"62 217 OFFCURVE",
"58 112 OFFCURVE",
"56 -2 CURVE",
"167 -2 LINE",
"164 115 OFFCURVE",
"157 273 OFFCURVE",
"160 348 CURVE",
"208 351 OFFCURVE",
"216 317 OFFCURVE",
"232 289 CURVE",
"247 287 LINE",
"268 303 OFFCURVE",
"288 315 OFFCURVE",
"305 327 CURVE",
"285 293 OFFCURVE",
"273 255 OFFCURVE",
"273 217 CURVE SMOOTH",
"273 107 OFFCURVE",
"352 1 OFFCURVE",
"513 -10 CURVE",
"602 68 OFFCURVE",
"699 108 OFFCURVE",
"699 258 CURVE SMOOTH",
"699 358 OFFCURVE",
"612 465 OFFCURVE",
"474 465 CURVE"
);
},
{
closed = 1;
nodes = (
"443 82 OFFCURVE",
"354 161 OFFCURVE",
"354 271 CURVE SMOOTH",
"354 310 OFFCURVE",
"371 362 OFFCURVE",
"406 380 CURVE",
"520 393 OFFCURVE",
"619 307 OFFCURVE",
"619 217 CURVE SMOOTH",
"619 157 OFFCURVE",
"595 112 OFFCURVE",
"554 83 CURVE"
);
}
);
width = 724;
}
);
leftMetricsKey = r;
rightMetricsKey = o;
},
{
color = 4;
glyphname = s;
lastChange = "2020-01-30 13:06:30 +0000";
layers = (
{
layerId = "E35B076F-D533-4C92-BAB9-D65BCB0F4FA2";
paths = (
{
closed = 1;
nodes = (
"332 29 OFFCURVE",
"430 62 OFFCURVE",
"430 172 CURVE SMOOTH",
"430 247 OFFCURVE",
"368 274 OFFCURVE",
"312 302 CURVE",
"273 279 OFFCURVE",
"253 259 OFFCURVE",
"206 248 CURVE",
"161 248 OFFCURVE",
"120 276 OFFCURVE",
"120 317 CURVE SMOOTH",
"120 378 OFFCURVE",
"160 398 OFFCURVE",
"181 404 CURVE",
"208 404 OFFCURVE",
"275 367 OFFCURVE",
"310 320 CURVE",
"335 342 OFFCURVE",
"370 377 OFFCURVE",
"415 401 CURVE",
"415 411 LINE",
"366 425 OFFCURVE",
"312 436 OFFCURVE",
"246 463 CURVE",
"221 453 OFFCURVE",
"153 429 OFFCURVE",
"91 414 CURVE",
"61 386 OFFCURVE",
"33 336 OFFCURVE",
"33 282 CURVE SMOOTH",
"33 226 OFFCURVE",
"67 170 OFFCURVE",
"122 153 CURVE",
"157 181 OFFCURVE",
"190 201 OFFCURVE",
"221 211 CURVE SMOOTH",
"280 231 OFFCURVE",
"331 187 OFFCURVE",
"331 141 CURVE SMOOTH",
"331 91 OFFCURVE",
"303 52 OFFCURVE",
"249 52 CURVE SMOOTH",
"204 52 OFFCURVE",
"165 79 OFFCURVE",
"133 125 CURVE",
"127 127 LINE",
"30 60 LINE",
"30 55 LINE",
"71 19 OFFCURVE",
"181 -10 OFFCURVE",
"252 -10 CURVE"
);
}
);
width = 460;
}
);
note = s;
unicode = 0073;
},
{
color = 4;
glyphname = s.ss01;
lastChange = "2020-01-30 13:06:30 +0000";
layers = (
{
layerId = "E35B076F-D533-4C92-BAB9-D65BCB0F4FA2";
paths = (
{
closed = 1;
nodes = (
"185 -170 OFFCURVE",
"280 -77 OFFCURVE",
"351 -1 CURVE",
"359 131 OFFCURVE",
"241 206 OFFCURVE",
"157 261 CURVE SMOOTH",
"105 295 OFFCURVE",
"87 327 OFFCURVE",
"97 355 CURVE",
"163 369 OFFCURVE",
"237 312 OFFCURVE",
"287 302 CURVE",
"342 363 OFFCURVE",
"391 405 OFFCURVE",
"437 443 CURVE",
"404 464 LINE",
"382 437 OFFCURVE",
"352 407 OFFCURVE",
"320 407 CURVE SMOOTH",
"285 407 OFFCURVE",
"225 435 OFFCURVE",
"195 465 CURVE",
"191 465 LINE",
"135 434 OFFCURVE",
"67 371 OFFCURVE",
"30 335 CURVE",
"30 246 OFFCURVE",
"59 202 OFFCURVE",
"113 159 CURVE SMOOTH",
"185 101 OFFCURVE",
"255 55 OFFCURVE",
"255 2 CURVE SMOOTH",
"255 -35 OFFCURVE",
"160 -161 OFFCURVE",
"34 -241 CURVE",
"61 -265 LINE"
);
}
);
width = 427;
}
);
note = s.alt;
},
{
color = 4;
glyphname = longs;
lastChange = "2020-01-30 13:06:30 +0000";
layers = (
{
layerId = "E35B076F-D533-4C92-BAB9-D65BCB0F4FA2";
paths = (
{
closed = 1;
nodes = (
"123 0 LINE",
"123 618 LINE",
"162 617 OFFCURVE",
"200 612 OFFCURVE",
"239 605 CURVE",
"307 683 LINE",
"305 695 LINE",
"154 700 LINE",
"106 665 OFFCURVE",
"63 626 OFFCURVE",
"23 585 CURVE",
"23 368 LINE SMOOTH",
"23 285 OFFCURVE",
"28 92 OFFCURVE",
"20 0 CURVE"
);
}
);
width = 182;
}
);
note = longs;
unicode = 017F;
},
{
color = 4;
glyphname = longs_strok;
lastChange = "2020-01-30 13:06:30 +0000";
layers = (
{
layerId = "E35B076F-D533-4C92-BAB9-D65BCB0F4FA2";
paths = (
{
closed = 1;
nodes = (
"35 11 OFFCURVE",
"59 23 OFFCURVE",
"83 35 CURVE",
"83 22 OFFCURVE",
"82 11 OFFCURVE",
"81 0 CURVE",
"184 0 LINE",
"184 84 LINE",
"230 106 OFFCURVE",
"277 130 OFFCURVE",
"327 160 CURVE SMOOTH",
"385 195 OFFCURVE",
"429 245 OFFCURVE",
"429 318 CURVE SMOOTH",
"429 405 OFFCURVE",
"379 428 OFFCURVE",
"302 467 CURVE",
"262 425 OFFCURVE",
"223 389 OFFCURVE",
"184 359 CURVE",
"184 618 LINE",
"223 617 OFFCURVE",
"261 612 OFFCURVE",
"300 605 CURVE",
"368 683 LINE",
"366 695 LINE",
"215 700 LINE",
"167 665 OFFCURVE",
"124 626 OFFCURVE",
"84 585 CURVE",
"84 368 LINE SMOOTH",
"84 302 OFFCURVE",
"87 166 OFFCURVE",
"84 67 CURVE",
"58 54 OFFCURVE",
"30 42 OFFCURVE",
"0 29 CURVE",
"11 -3 LINE"
);
},
{
closed = 1;
nodes = (
"184 321 LINE",
"213 340 OFFCURVE",
"227 354 OFFCURVE",
"262 353 CURVE SMOOTH",
"292 352 OFFCURVE",
"335 332 OFFCURVE",
"335 278 CURVE SMOOTH",
"335 220 OFFCURVE",
"282 170 OFFCURVE",
"184 116 CURVE"
);
}
);
width = 454;
}
);
rightMetricsKey = p;
},
{
color = 4;
glyphname = longs_c_h;
lastChange = "2020-01-30 13:06:30 +0000";
layers = (
{
layerId = "E35B076F-D533-4C92-BAB9-D65BCB0F4FA2";
paths = (
{
closed = 1;
nodes = (
"595 -198 LINE",
"656 -79 OFFCURVE",
"856 145 OFFCURVE",
"856 281 CURVE SMOOTH",
"856 381 OFFCURVE",
"801 431 OFFCURVE",
"681 465 CURVE",
"632 429 OFFCURVE",
"592 409 OFFCURVE",
"544 378 CURVE",
"544 490 OFFCURVE",
"547 588 OFFCURVE",
"559 700 CURVE",
"537 715 LINE",
"357 635 LINE",
"357 609 LINE",
"400 606 OFFCURVE",
"442 604 OFFCURVE",
"443 571 CURVE SMOOTH",
"445 529 OFFCURVE",
"444 476 OFFCURVE",
"444 419 CURVE",
"400 437 OFFCURVE",
"364 449 OFFCURVE",
"322 465 CURVE",
"199 361 LINE",
"187 303 OFFCURVE",
"187 231 OFFCURVE",
"187 191 CURVE SMOOTH",
"187 69 OFFCURVE",
"245 18 OFFCURVE",
"327 -10 CURVE",
"354 8 OFFCURVE",
"393 45 OFFCURVE",
"442 78 CURVE",
"442 53 OFFCURVE",
"441 27 OFFCURVE",
"441 0 CURVE",
"551 0 LINE",
"545 337 LINE",
"570 357 OFFCURVE",
"596 369 OFFCURVE",
"632 369 CURVE SMOOTH",
"700 369 OFFCURVE",
"769 310 OFFCURVE",
"769 220 CURVE SMOOTH",
"769 110 OFFCURVE",
"680 -18 OFFCURVE",
"579 -103 CURVE",
"566 -198 LINE"
);
},
{
closed = 1;
nodes = (
"123 0 LINE",
"123 618 LINE",
"162 617 OFFCURVE",
"200 612 OFFCURVE",
"239 605 CURVE",
"307 683 LINE",
"305 695 LINE",
"154 700 LINE",
"106 665 OFFCURVE",
"63 626 OFFCURVE",
"23 585 CURVE",
"23 368 LINE SMOOTH",
"23 285 OFFCURVE",
"28 92 OFFCURVE",
"20 0 CURVE"
);
},
{
closed = 1;
nodes = (
"335 72 OFFCURVE",
"284 121 OFFCURVE",
"284 259 CURVE SMOOTH",
"284 301 OFFCURVE",
"288 335 OFFCURVE",
"301 372 CURVE",
"332 366 OFFCURVE",
"354 358 OFFCURVE",
"388 346 CURVE",
"393 346 LINE",
"444 394 LINE",
"444 376 LINE SMOOTH",
"444 305 OFFCURVE",
"444 223 OFFCURVE",
"443 115 CURVE"
);
}
);
width = 891;
}
);
leftMetricsKey = longs;
note = longs_c_h;
rightMetricsKey = h;
},
{
color = 4;
glyphname = longs_i;
lastChange = "2020-02-10 15:48:57 +0000";
layers = (
{
layerId = "E35B076F-D533-4C92-BAB9-D65BCB0F4FA2";
paths = (
{
closed = 1;
nodes = (
"123 0 LINE",
"123 618 LINE",
"162 617 OFFCURVE",
"200 612 OFFCURVE",
"239 605 CURVE",
"307 683 LINE",
"305 695 LINE",
"154 700 LINE",
"106 665 OFFCURVE",
"63 626 OFFCURVE",
"23 585 CURVE",
"23 368 LINE SMOOTH",
"23 285 OFFCURVE",
"28 92 OFFCURVE",
"20 0 CURVE"
);
},
{
closed = 1;
nodes = (
"406 687 LINE",
"356 692 LINE",
"321 569 LINE",
"345 564 LINE"
);
},
{
closed = 1;
nodes = (
"290 -10 LINE",
"375 50 LINE",
"368 79 LINE",
"346 79 OFFCURVE",
"338 90 OFFCURVE",
"336 104 CURVE SMOOTH",
"332 131 OFFCURVE",
"326 290 OFFCURVE",
"348 412 CURVE",
"277 465 LINE",
"275 465 LINE",
"167 405 LINE",
"174 382 LINE",
"230 377 OFFCURVE",
"239 370 OFFCURVE",
"237 330 CURVE SMOOTH",
"226 57 LINE SMOOTH",
"225 47 OFFCURVE",
"278 -10 OFFCURVE",
"288 -10 CURVE SMOOTH"
);
}
);
width = 401;
}
);
leftMetricsKey = longs;
},
{
color = 4;
glyphname = longs_longs;
lastChange = "2020-01-30 13:06:30 +0000";
layers = (
{
layerId = "E35B076F-D533-4C92-BAB9-D65BCB0F4FA2";
paths = (
{
closed = 1;
nodes = (
"123 0 LINE",
"123 618 LINE",
"164 622 OFFCURVE",
"192 622 OFFCURVE",
"239 615 CURVE",
"307 693 LINE",
"305 705 LINE",
"154 700 LINE",
"106 665 OFFCURVE",
"63 626 OFFCURVE",
"23 585 CURVE",
"24 382 OFFCURVE",
"28 114 OFFCURVE",
"20 0 CURVE"
);
},
{
closed = 1;
nodes = (
"339 0 LINE",
"337 620 LINE",
"368 620 OFFCURVE",
"404 619 OFFCURVE",
"435 615 CURVE",
"502 693 LINE",
"501 705 LINE",
"370 700 LINE",
"322 665 OFFCURVE",
"279 626 OFFCURVE",
"239 585 CURVE",
"241 381 OFFCURVE",
"243 124 OFFCURVE",
"236 0 CURVE"
);
}
);
width = 377;
}
);
leftMetricsKey = longs;
note = s_s;
rightMetricsKey = longs;
},
{
color = 4;
glyphname = longs_t;
lastChange = "2020-01-30 13:06:30 +0000";
layers = (
{
layerId = "E35B076F-D533-4C92-BAB9-D65BCB0F4FA2";
paths = (
{
closed = 1;
nodes = (
"391 19 OFFCURVE",
"449 64 OFFCURVE",
"498 104 CURVE",
"484 128 LINE",
"463 110 OFFCURVE",
"424 90 OFFCURVE",
"404 90 CURVE SMOOTH",
"368 90 OFFCURVE",
"341 105 OFFCURVE",
"337 172 CURVE SMOOTH",
"334 225 OFFCURVE",
"331 295 OFFCURVE",
"332 375 CURVE",
"391 376 OFFCURVE",
"449 374 OFFCURVE",
"508 371 CURVE",
"508 455 LINE",
"335 455 LINE",
"339 527 OFFCURVE",
"346 604 OFFCURVE",
"360 685 CURVE",
"351 695 LINE",
"154 700 LINE",
"106 665 OFFCURVE",
"63 626 OFFCURVE",
"23 585 CURVE",
"23 290 OFFCURVE",
"27 84 OFFCURVE",
"20 0 CURVE",
"123 0 LINE",
"126 620 LINE",
"253 618 LINE",
"254 571 OFFCURVE",
"254 515 OFFCURVE",
"246 474 CURVE SMOOTH",
"237 425 OFFCURVE",
"213 407 OFFCURVE",
"192 393 CURVE",
"192 373 LINE",
"244 373 LINE",
"244 71 LINE",
"264 31 OFFCURVE",
"317 0 OFFCURVE",
"348 -10 CURVE"
);
}
);
width = 518;
}
);
leftMetricsKey = longs;
note = s_t;
rightMetricsKey = t;
},
{
color = 4;
glyphname = longs_t_i;
lastChange = "2020-01-30 13:06:30 +0000";
layers = (
{
layerId = "E35B076F-D533-4C92-BAB9-D65BCB0F4FA2";
paths = (
{
closed = 1;
nodes = (
"382 13 OFFCURVE",
"425 45 OFFCURVE",
"465 77 CURVE",
"470 52 OFFCURVE",
"488 -10 OFFCURVE",
"496 -10 CURVE SMOOTH",
"498 -10 LINE",
"613 50 LINE",
"607 75 LINE",
"585 75 OFFCURVE",
"566 82 OFFCURVE",
"564 96 CURVE SMOOTH",
"560 123 OFFCURVE",
"558 346 OFFCURVE",
"570 468 CURVE",
"569 471 LINE",
"559 479 LINE",
"541 466 OFFCURVE",
"511 458 OFFCURVE",
"483 455 CURVE",
"335 455 LINE",
"338 527 OFFCURVE",
"346 604 OFFCURVE",
"360 685 CURVE",
"351 695 LINE",
"154 700 LINE",
"106 665 OFFCURVE",
"63 626 OFFCURVE",
"23 585 CURVE",
"23 290 OFFCURVE",
"27 84 OFFCURVE",
"20 0 CURVE",
"123 0 LINE",
"126 620 LINE",
"253 618 LINE",
"254 571 OFFCURVE",
"254 515 OFFCURVE",
"246 474 CURVE SMOOTH",
"236 425 OFFCURVE",
"213 407 OFFCURVE",
"192 393 CURVE",
"192 373 LINE",
"244 373 LINE",
"244 71 LINE",
"264 31 OFFCURVE",
"317 0 OFFCURVE",
"348 -10 CURVE"
);
},
{
closed = 1;
nodes = (
"602 700 LINE",
"549 700 LINE",
"496 553 LINE",
"528 552 LINE"
);
},
{
closed = 1;
nodes = (
"368 90 OFFCURVE",
"341 105 OFFCURVE",
"337 172 CURVE SMOOTH",
"334 225 OFFCURVE",
"331 295 OFFCURVE",
"332 375 CURVE",
"378 376 OFFCURVE",
"418 374 OFFCURVE",
"464 372 CURVE",
"465 118 LINE",
"447 103 OFFCURVE",
"427 90 OFFCURVE",
"404 90 CURVE SMOOTH"
);
}
);
width = 638;
}
);
leftMetricsKey = longs;
note = longs_t_i;
rightMetricsKey = i;
},
{
color = 4;
glyphname = longs_t_u;
lastChange = "2020-02-10 15:49:02 +0000";
layers = (
{
layerId = "E35B076F-D533-4C92-BAB9-D65BCB0F4FA2";
paths = (
{
closed = 1;
nodes = (
"394 16 OFFCURVE",
"439 40 OFFCURVE",
"483 59 CURVE",
"504 42 OFFCURVE",
"557 0 OFFCURVE",
"588 -10 CURVE",
"618 16 OFFCURVE",
"670 48 OFFCURVE",
"719 75 CURVE",
"736 52 OFFCURVE",
"754 28 OFFCURVE",
"777 -10 CURVE",
"867 50 LINE",
"862 80 LINE",
"828 99 OFFCURVE",
"826 118 OFFCURVE",
"826 205 CURVE SMOOTH",
"826 290 OFFCURVE",
"831 346 OFFCURVE",
"839 397 CURVE",
"828 417 OFFCURVE",
"765 455 OFFCURVE",
"745 465 CURVE",
"743 465 LINE",
"656 365 LINE",
"667 346 LINE",
"717 374 OFFCURVE",
"727 322 OFFCURVE",
"727 269 CURVE SMOOTH",
"727 216 OFFCURVE",
"725 163 OFFCURVE",
"720 110 CURVE",
"689 96 OFFCURVE",
"663 90 OFFCURVE",
"641 90 CURVE SMOOTH",
"614 90 OFFCURVE",
"593 91 OFFCURVE",
"585 106 CURVE",
"583 213 OFFCURVE",
"582 416 OFFCURVE",
"591 474 CURVE",
"580 480 LINE",
"497 455 LINE",
"335 455 LINE",
"339 527 OFFCURVE",
"346 604 OFFCURVE",
"360 685 CURVE",
"351 695 LINE",
"154 700 LINE",
"106 665 OFFCURVE",
"63 626 OFFCURVE",
"23 585 CURVE",
"23 290 OFFCURVE",
"27 84 OFFCURVE",
"20 0 CURVE",
"123 0 LINE",
"126 620 LINE",
"253 618 LINE",
"254 571 OFFCURVE",
"254 515 OFFCURVE",
"246 474 CURVE SMOOTH",
"237 425 OFFCURVE",
"213 407 OFFCURVE",
"192 393 CURVE",
"192 373 LINE",
"244 373 LINE",
"244 71 LINE",
"264 31 OFFCURVE",
"324 0 OFFCURVE",
"355 -10 CURVE"
);
},
{
closed = 1;
nodes = (
"368 81 OFFCURVE",
"341 105 OFFCURVE",
"337 172 CURVE SMOOTH",
"334 225 OFFCURVE",
"331 295 OFFCURVE",
"332 375 CURVE",
"375 376 OFFCURVE",
"422 375 OFFCURVE",
"463 373 CURVE",
"481 353 OFFCURVE",
"489 316 OFFCURVE",
"489 248 CURVE SMOOTH",
"489 201 OFFCURVE",
"485 140 OFFCURVE",
"483 98 CURVE",
"462 90 OFFCURVE",
"424 81 OFFCURVE",
"404 81 CURVE SMOOTH"
);
}
);
width = 887;
}
);
leftMetricsKey = longs;
rightMetricsKey = u;
},
{
color = 4;
glyphname = t;
lastChange = "2020-01-30 13:06:30 +0000";
layers = (
{
layerId = "E35B076F-D533-4C92-BAB9-D65BCB0F4FA2";
paths = (
{
closed = 1;
nodes = (
"208 -10 OFFCURVE",
"284 50 OFFCURVE",
"316 69 CURVE",
"307 106 LINE",
"280 91 OFFCURVE",
"253 81 OFFCURVE",
"233 81 CURVE SMOOTH",
"185 81 OFFCURVE",
"162 135 OFFCURVE",
"157 168 CURVE SMOOTH",
"148 228 OFFCURVE",
"148 317 OFFCURVE",
"151 371 CURVE",
"213 371 OFFCURVE",
"266 366 OFFCURVE",
"310 365 CURVE",
"309 460 LINE",
"239 454 OFFCURVE",
"216 453 OFFCURVE",
"155 455 CURVE",
"158 497 OFFCURVE",
"165 538 OFFCURVE",
"170 580 CURVE",
"136 583 LINE",
"107 513 OFFCURVE",
"71 470 OFFCURVE",
"25 420 CURVE",
"25 389 LINE",
"41 379 OFFCURVE",
"51 369 OFFCURVE",
"51 355 CURVE SMOOTH",
"51 255 OFFCURVE",
"55 189 OFFCURVE",
"66 97 CURVE SMOOTH",
"72 47 OFFCURVE",
"108 -10 OFFCURVE",
"168 -10 CURVE SMOOTH"
);
}
);
width = 326;
}
);
note = t;
unicode = 0074;
},
{
color = 4;
glyphname = t_acute;
lastChange = "2020-01-30 13:06:30 +0000";
layers = (
{
layerId = "E35B076F-D533-4C92-BAB9-D65BCB0F4FA2";
paths = (
{
closed = 1;
nodes = (
"77 602 OFFCURVE",
"158 604 OFFCURVE",
"219 599 CURVE SMOOTH",
"346 588 LINE",
"382 663 LINE",
"380 669 LINE",
"117 670 LINE",
"84 644 OFFCURVE",
"48 608 OFFCURVE",
"25 574 CURVE",
"44 564 LINE"
);
},
{
closed = 1;
nodes = (
"214 -10 OFFCURVE",
"290 50 OFFCURVE",
"322 69 CURVE",
"313 106 LINE",
"286 91 OFFCURVE",
"259 81 OFFCURVE",
"239 81 CURVE SMOOTH",
"191 81 OFFCURVE",
"168 135 OFFCURVE",
"163 168 CURVE SMOOTH",
"154 228 OFFCURVE",
"154 317 OFFCURVE",
"157 371 CURVE",
"219 371 OFFCURVE",
"272 370 OFFCURVE",
"316 365 CURVE",
"345 460 LINE",
"275 454 OFFCURVE",
"223 453 OFFCURVE",
"152 455 CURVE",
"152 469 OFFCURVE",
"148 488 OFFCURVE",
"153 530 CURVE",
"119 533 LINE",
"90 463 OFFCURVE",
"77 470 OFFCURVE",
"31 420 CURVE",
"31 389 LINE",
"47 379 OFFCURVE",
"57 369 OFFCURVE",
"57 355 CURVE SMOOTH",
"57 255 OFFCURVE",
"61 189 OFFCURVE",
"72 97 CURVE SMOOTH",
"78 47 OFFCURVE",
"114 -10 OFFCURVE",
"174 -10 CURVE SMOOTH"
);
}
);
width = 392;
}
);
leftMetricsKey = t;
note = t_macr;
rightMetricsKey = t;
unicode = E6E2;
},
{
color = 4;
glyphname = t_urrot;
lastChange = "2020-01-30 13:06:30 +0000";
layers = (
{
layerId = "E35B076F-D533-4C92-BAB9-D65BCB0F4FA2";
paths = (
{
closed = 1;
nodes = (
"298 570 LINE",
"311 591 OFFCURVE",
"322 607 OFFCURVE",
"341 626 CURVE",
"341 632 LINE",
"288 625 OFFCURVE",
"241 621 OFFCURVE",
"187 621 CURVE",
"263 694 LINE",
"263 700 LINE",
"202 695 OFFCURVE",
"141 690 OFFCURVE",
"80 692 CURVE",
"25 640 LINE",
"25 635 LINE",
"62 643 OFFCURVE",
"129 642 OFFCURVE",
"176 640 CURVE",
"117 574 LINE",
"117 569 LINE"
);
},
{
closed = 1;
nodes = (
"208 -10 OFFCURVE",
"284 50 OFFCURVE",
"316 69 CURVE",
"307 106 LINE",
"280 91 OFFCURVE",
"253 81 OFFCURVE",
"233 81 CURVE SMOOTH",
"185 81 OFFCURVE",
"162 135 OFFCURVE",
"157 168 CURVE SMOOTH",
"148 228 OFFCURVE",
"148 317 OFFCURVE",
"151 371 CURVE",
"213 371 OFFCURVE",
"266 370 OFFCURVE",
"310 365 CURVE",
"339 460 LINE",
"269 454 OFFCURVE",
"217 453 OFFCURVE",
"146 455 CURVE",
"146 469 OFFCURVE",
"142 488 OFFCURVE",
"147 530 CURVE",
"113 533 LINE",
"84 463 OFFCURVE",
"71 470 OFFCURVE",
"25 420 CURVE",
"25 389 LINE",
"41 379 OFFCURVE",
"51 369 OFFCURVE",
"51 355 CURVE SMOOTH",
"51 255 OFFCURVE",
"55 189 OFFCURVE",
"66 97 CURVE SMOOTH",
"72 47 OFFCURVE",
"108 -10 OFFCURVE",
"168 -10 CURVE SMOOTH"
);
}
);
width = 351;
}
);
leftMetricsKey = t;
note = t_urrot;
rightMetricsKey = t;
},
{
color = 4;
glyphname = t_a;
lastChange = "2020-01-30 13:06:30 +0000";
layers = (
{
layerId = "E35B076F-D533-4C92-BAB9-D65BCB0F4FA2";
paths = (
{
closed = 1;
nodes = (
"207 41 OFFCURVE",
"252 91 OFFCURVE",
"284 111 CURVE",
"312 64 OFFCURVE",
"339 13 OFFCURVE",
"355 -6 CURVE",
"410 19 OFFCURVE",
"466 65 OFFCURVE",
"521 101 CURVE",
"521 67 LINE SMOOTH",
"521 27 OFFCURVE",
"551 -10 OFFCURVE",
"571 -10 CURVE",
"663 49 LINE",
"663 78 LINE",
"661 79 LINE",
"634 72 OFFCURVE",
"621 96 OFFCURVE",
"621 145 CURVE SMOOTH",
"621 413 LINE",
"601 443 OFFCURVE",
"527 465 OFFCURVE",
"497 465 CURVE",
"357 383 LINE",
"361 356 LINE",
"363 355 LINE",
"394 369 OFFCURVE",
"422 380 OFFCURVE",
"464 380 CURVE SMOOTH",
"497 380 OFFCURVE",
"519 365 OFFCURVE",
"520 319 CURVE SMOOTH",
"520 314 LINE",
"317 177 LINE SMOOTH",
"284 154 OFFCURVE",
"212 98 OFFCURVE",
"199 98 CURVE",
"133 143 OFFCURVE",
"148 279 OFFCURVE",
"151 371 CURVE",
"213 371 OFFCURVE",
"278 366 OFFCURVE",
"322 365 CURVE",
"339 460 LINE",
"269 454 OFFCURVE",
"216 453 OFFCURVE",
"155 455 CURVE",
"158 497 OFFCURVE",
"165 538 OFFCURVE",
"170 580 CURVE",
"136 583 LINE",
"107 513 OFFCURVE",
"71 470 OFFCURVE",
"25 420 CURVE",
"25 389 LINE",
"41 379 OFFCURVE",
"51 369 OFFCURVE",
"51 355 CURVE SMOOTH",
"51 255 OFFCURVE",
"55 189 OFFCURVE",
"66 97 CURVE SMOOTH",
"72 47 OFFCURVE",
"108 -10 OFFCURVE",
"168 -10 CURVE"
);
},
{
closed = 1;
nodes = (
"406 102 OFFCURVE",
"377 137 OFFCURVE",
"370 171 CURVE",
"410 204 OFFCURVE",
"468 252 OFFCURVE",
"520 283 CURVE",
"521 136 LINE",
"490 114 OFFCURVE",
"462 89 OFFCURVE",
"430 84 CURVE"
);
}
);
width = 688;
}
);
leftMetricsKey = t;
note = t_a;
rightMetricsKey = a;
},
